<?xml version="1.0" standalone="no"?>
<!DOCTYPE svg PUBLIC "-//W3C//DTD SVG 1.1//EN" "http://www.w3.org/Graphics/SVG/1.1/DTD/svg11.dtd" >
<svg xmlns="http://www.w3.org/2000/svg">
<metadata></metadata>
<defs>
<font id="aracne_condensed_regularCnRg" horiz-adv-x="731" >
<font-face units-per-em="2048" ascent="1638" descent="-410" />
<missing-glyph horiz-adv-x="507" />
<glyph horiz-adv-x="0" />
<glyph unicode="&#xd;" horiz-adv-x="507" />
<glyph unicode=" "  horiz-adv-x="507" />
<glyph unicode="&#x09;" horiz-adv-x="507" />
<glyph unicode="&#xa0;" horiz-adv-x="507" />
<glyph unicode="!" horiz-adv-x="331" d="M39 1425q10 -4 10 -8q8 4 12 4q63 -37 64 -121h-4l4 -8q-4 -8 -4 -12q8 0 8 -6q0 -8 -8 -8l4 -9v-10q0 -4 -4 -4l4 -8v-45l4 -23l-8 -16q6 0 12 -10l-12 -8l8 -37l-4 -9q4 -6 4 -14q0 -4 -4 -4l4 -20l-4 -25q0 -4 4 -4l-4 -27v-114q0 -4 -4 -5l4 -6v-22q0 -4 -4 -4l4 -8 v-37q0 -10 4 -17q-4 -6 -4 -10q0 -10 4 -31q-4 -20 -4 -45q8 -2 8 -8l-8 -4q4 -55 8 -61l-4 -7q0 -4 4 -12q0 -10 -4 -27q4 -55 4 -94v-35q0 -4 -4 -4l4 -6v-4q0 -4 -4 -4q4 -8 4 -10q0 -45 6 -74q-8 -53 -10 -53l4 -6v-4q0 -4 -4 -5l4 -8v-53l6 -25h-2l2 -8 q-18 -37 -28 -43l-17 4l-6 -4q-8 4 -16 4l-19 -4l-18 25v2l4 8q-8 0 -8 8q0 10 4 11l-4 38v50l4 22q-4 8 -4 12q4 6 4 11q0 4 -4 4l4 22l-4 35q0 4 4 4l-4 19v71q0 8 -4 15l8 30q-8 43 -12 95q4 8 4 16l-4 14q4 12 8 13q-4 6 -8 32q0 4 4 4q-8 68 -9 111h5l-5 8q4 6 5 10 q0 4 -5 5l5 18v27l-5 18h5l-9 43q8 14 9 27l-5 6q4 8 5 16q0 4 -5 4q0 4 5 11q-4 41 -5 71v4q0 12 5 21q-4 41 -9 51l4 8q-4 33 -4 53v15l-2 8l6 4q-6 72 -14 80h4l-4 8q0 2 4 2l-4 8v23l4 8h-8v4q2 6 8 6l-4 8q18 27 19 35h4l8 -4zM106 88q4 0 5 -4l6 4q20 -8 35 -31 q0 -33 -37 -57l-25 4l-22 -4q0 8 -11 8q-8 -4 -12 -4q-10 20 -10 31h4l-4 6q-1 35 71 47z" />
<glyph unicode="&#x22;" horiz-adv-x="438" d="M10 1536v6q0 8 43 14v3q41 0 49 -21q0 -2 4 -2l-4 -14v-43q0 -2 -4 -2l4 -4v-17q0 -4 -4 -8q4 -4 4 -8q0 -2 -4 -6q0 -4 4 -4l-4 -11l4 -10q-4 -4 -4 -6l4 -10q0 -4 -4 -4l4 -25v-10q0 -20 -4 -56q4 -4 4 -10q-4 -4 -4 -6l4 -4q0 -2 -4 -2l8 -41q-12 -41 -36 -41 q-18 0 -41 25q-12 0 -13 4l4 6q0 2 -4 2q0 2 4 6q-6 53 -6 98l2 13q-2 4 -2 6t2 2l-2 10v47q0 2 2 2l-2 4v21l2 12q-2 4 -2 10v2q0 6 2 11l-2 4l2 4q0 2 -2 2l2 8q-2 20 -2 25h2q-6 8 -6 18zM160 1536v6q0 8 45 14v3q39 0 49 -21q0 -2 2 -2l-2 -14v-43q0 -2 -4 -2l4 -4v-17 q0 -4 -4 -8q4 -4 4 -8q0 -2 -4 -6q0 -4 4 -4l-4 -11l4 -10q-4 -4 -4 -6l4 -10q0 -4 -4 -4l4 -25v-10q0 -20 -4 -56q4 -4 4 -10q-4 -4 -4 -6l4 -4q0 -2 -4 -2l6 -41q-10 -41 -37 -41q-16 0 -41 25q-10 0 -10 4l2 6q0 2 -2 2q0 2 2 6q-6 53 -6 98l4 13q-4 4 -4 6t4 2l-4 10v47 q0 2 4 2l-4 4v21l4 12q-4 4 -4 10v2q0 6 4 11l-4 4l4 4q0 2 -4 2l4 8q-4 20 -4 25h4q-8 8 -8 18z" />
<glyph unicode="#" horiz-adv-x="1333" d="M371 1442q4 0 4 -4l8 4l8 -4q14 4 27 4q18 0 33 -49q-12 -113 -15 -113q6 -18 6 -35q-2 -41 -6 -41l6 -88q-2 -37 -2 -80v-18l2 -39h-2l2 -6v-43l-2 -6q6 0 6 -4q4 0 5 4l22 -4q51 4 72 4q14 0 65 -4q6 4 11 4v-4l8 4h18q4 0 4 -4q4 0 4 4l39 -4h15v79q0 4 4 5l-4 6v114 l-4 19h4q0 4 -4 4l4 27v4l-4 18h4l-4 8v27q0 10 -5 10l5 19v8q0 35 -9 133q27 33 62 33q45 0 61 -78l-4 -21v-41q0 -4 -4 -4l4 -8v-10q0 -55 -4 -98l8 -70l-8 -2l4 -8v-39q0 -2 -4 -2l4 -9v-67q0 -10 -4 -16q4 -6 4 -15h-4l4 -8v-18h4q55 0 131 -5q39 4 62 5q8 -4 12 -5l6 5 q4 0 4 -5l39 5h6q37 0 58 -58v-4q0 -23 -31 -49h-4q-2 0 -2 4l-8 -4h-23l-12 8h-10l-21 -4v4q-4 -4 -53 -8l-6 4q-4 0 -4 -4q-33 8 -39 8l-6 -4l-17 4l-22 -4v4l-7 -4h-30l-21 4v-8l4 -23l-4 -8l4 -14l-4 -35l4 -14l-4 -8l4 -7q0 -4 -4 -4l4 -20v-10q0 -23 -4 -62 q4 -6 4 -14h-4l4 -8v-31h43q8 0 15 4q23 -4 22 -6l8 2l9 -2q6 2 10 2v-2l8 2q4 0 4 -2l6 2h62q4 0 4 -2q12 6 22 6q39 0 58 -49v-8q0 -2 -4 -2q4 -8 4 -13q0 -31 -43 -41l-19 4h-22l-27 -4v4q-8 -4 -12 -4q-66 6 -82 7h-49l-8 4v-11q0 -8 4 -16l-4 -6q4 -8 4 -17h-4l4 -6 q0 -4 -4 -4l4 -20v-37l4 -23l-4 -8q4 -6 4 -14q0 -4 -4 -4q4 -12 10 -80v-23q0 -4 -2 -4l2 -8v-143q0 -27 -49 -31l-2 8l-17 -8q-10 0 -37 49q0 4 2 4q-6 49 -6 72h4l-4 8v14q-12 72 -12 115h4l-4 8q0 2 4 2q-8 14 -8 31q0 12 4 21q-6 47 -6 98h2l-2 6v23l-25 4l-32 -4 q-35 4 -43 4l-19 -4q-10 4 -10 8l-8 -4h-115q-2 0 -2 4q-8 -4 -21 -4q4 -25 9 -33q-4 -8 -4 -12q8 -68 8 -113h-4q0 -4 4 -4l8 -228h-4q10 -23 10 -53q-4 0 -4 -4q4 0 4 -4l-41 -22l-4 8q-16 -8 -22 -8l-31 40v5q0 4 4 4q-4 8 -4 12l4 6l-14 27v4q0 4 2 4q-2 6 -7 45l5 16 q-4 14 -5 27h5l-5 6v35l-8 10l8 4l-4 8q0 12 4 19q-8 80 -8 110l4 9l-4 6q0 4 4 12q-4 25 -4 41v19q0 8 -8 8h-18l-19 -4v4q-25 -6 -121 -15v4l-8 -4h-41l-26 -4v4q-27 -6 -35 -12l-4 8l-9 -4q-59 18 -59 68q-4 8 -4 12q4 0 31 35l22 2q4 0 4 -2q2 0 15 2l22 -2q68 4 72 6 q4 0 4 -4l16 4q115 4 158 4v12q0 12 4 33q-4 8 -4 12h4l-4 9v10l-2 45h2l-2 8q0 8 2 14l-2 9q2 6 2 14q0 4 -2 4l2 21q0 8 -2 28l2 17l-2 22h-4q-39 0 -115 4v4q-16 -8 -59 -8l-27 4q-8 -4 -12 -4q-84 6 -84 45q-6 0 -6 8v11q0 31 33 53q35 -2 34 -6l19 2h8q8 0 14 -2l9 2 q4 0 4 -2q8 0 14 2q123 -2 174 -6q0 12 4 18q-4 20 -4 35v2q0 4 4 4q-2 8 -6 43q2 27 2 45q0 12 -2 64h2l-2 8q0 8 2 41q-2 41 -2 65h2l-2 6q0 10 2 17q-2 27 -2 41v8q0 4 2 4l-2 6v66q14 14 14 26q-8 0 -8 9q5 10 23 10zM580 821q-68 -4 -111 -4v4l-6 -4h-23v-45 q0 -10 2 -16q-2 -18 -6 -19l4 -8v-6q0 -4 -4 -4q4 -10 6 -39q-2 -6 -2 -10q2 -8 2 -13l-2 -8l2 -6l-2 -18q2 -8 2 -17q-6 0 -6 -8q6 0 6 -6v-35h62q4 0 4 -4l8 4h2q39 0 39 -8l18 4q8 0 43 -4l7 4q6 -4 16 -4q8 0 14 4l23 -4h35v31q0 4 4 4l-8 39q0 2 4 2l-4 20v76 q0 12 -4 18l4 23v49q0 8 -9 8q-51 -4 -63 -4q-35 2 -35 8l-8 -4h-2q-4 0 -4 4z" />
<glyph unicode="$" horiz-adv-x="782" d="M258 1589h14q4 0 4 -4l9 4q59 -18 59 -63v-8q0 -4 -2 -5l2 -6v-30q16 0 16 -4q4 0 5 4q121 0 180 -146q16 -66 39 -117q-6 -57 -45 -57q-4 0 -23 -4q0 6 -31 25q-16 29 -18 71q-14 23 -47 107q-27 33 -68 33q-8 0 -8 -9v-41q0 -4 -2 -4l2 -6q0 -4 -2 -4l2 -8v-49 q0 -14 4 -35q0 -4 -4 -4l8 -49l-4 -19q4 -33 8 -41q0 -4 -4 -4l4 -18v-13q0 -12 -4 -32q4 -8 4 -17q0 -4 -4 -4l4 -26v-60q0 -8 4 -16l-4 -6q0 -51 37 -76q129 -137 152 -227q23 -70 30 -125h-4q4 -4 9 -62q-4 -100 -5 -147q-25 -139 -90 -213q-66 -68 -114 -72v-8l4 -19 q-8 0 -8 -8q8 0 8 -6v-12l-4 -8q8 0 8 -7h-4l4 -8v-8q0 -16 -19 -37h-18l-8 4v-8h-8l-11 8q0 -8 -8 -8q-18 10 -18 14q-20 20 -21 35h4q0 57 -30 58q-61 0 -127 53q-115 135 -115 207v8q0 8 4 16q-4 6 -4 15q12 90 61 90q0 4 15 4q35 0 35 -53l-5 -7q4 -8 5 -16l-5 -6 q4 -8 5 -12l-5 -9q4 -6 5 -10l-5 -8q8 -18 9 -27h-4q0 -4 22 -36h-4q14 -39 72 -97q29 -27 61 -26q0 4 -4 4l4 45v12q0 8 -4 14q0 4 4 5l-4 18q0 4 4 12q-4 6 -4 15h4l-4 8v84q0 8 -4 14l4 8l-4 8q0 2 4 2l-4 27v21q0 4 4 4q0 2 -4 2q0 4 4 22l-4 35l4 19q0 4 -4 4l4 26v23 q0 8 -4 16l4 6l-4 21q0 2 4 2q-6 51 -8 61q4 6 4 15q-4 8 -4 12h4l-4 8v19q0 4 4 4q-4 6 -4 10l4 26q0 4 -4 5l4 26v23q0 8 -4 16l4 6l-4 23q0 4 4 4l-4 20v29q-33 51 -90 102q0 8 -39 70q-45 121 -45 152q4 6 4 14q-4 0 -4 4q6 0 12 14q-8 0 -8 9h4l-4 8l8 10q-4 8 -4 12 l6 4q0 -4 4 -4v4l-4 7q10 0 21 43q-4 6 -5 10l9 -4q0 4 2 12q-2 6 -2 10l6 -2l4 6q-8 0 -8 8q37 70 106 107q0 4 8 4v19l-8 10q8 12 8 24v41l-8 11q6 0 19 24q6 0 16 6zM178 1223q0 -4 4 -4l-4 -27v-8q8 -12 23 -86q4 0 45 -88h4q0 27 4 30q-4 23 -8 23l4 18v23q0 8 -8 8 q0 4 4 12q-4 66 -4 105h4l-4 8v8q0 4 4 4q-6 4 -10 86q4 0 4 4h-4q-31 -32 -58 -116zM356 741v-67q0 -10 4 -17l-4 -8q0 -10 9 -71h-5l5 -7l-5 -8l5 -16q0 -2 -5 -2q0 -10 5 -17q-4 -63 -5 -98v-72q0 -14 5 -34l-5 -7l5 -8q0 -4 -5 -4q0 -6 7 -31l-7 -59q4 -6 5 -20v-2 q0 -4 -5 -5l5 -8l-5 -22q4 -37 5 -68h2q37 0 84 117q18 102 22 102q0 4 -4 4l12 82l-4 8l4 17q-8 59 -14 67q0 4 2 5q-14 78 -27 90q8 0 9 8q-4 0 -54 102q-37 41 -37 49h-4z" />
<glyph unicode="%" horiz-adv-x="856" d="M453 569l2 -8q0 -25 32 -33q35 0 45 31q0 2 -2 2q0 20 -26 37v0h-8h-11q-26 0 -32 -29zM571 1425q4 0 4 -4l9 4h10l24 -16q0 8 7 8q27 -27 26 -31v-14l-30 -53q4 0 4 -4q-12 -6 -56 -121l-176 -375v-16l4 -6q-10 0 -32 -80l-17 -27l4 -8q-37 -78 -76 -178 q-10 -20 -49 -137q-37 -84 -61 -166l-6 -4l4 -7q-39 -98 -47 -129l4 -8q0 -18 -23 -41q-14 -12 -30 -12q-4 0 -5 4l-6 -4q-57 20 -57 53v4l72 201q68 166 147 383q6 8 53 121q-4 0 -4 4q6 0 70 174q70 129 174 367q27 55 45 106q6 0 14 12zM94 909l8 -4l23 4q61 -20 61 -49 q4 0 7 -45q0 -39 -76 -92q-6 0 -6 -2q-45 2 -84 45q-18 23 -19 59v17q0 36 86 67zM469 655h39q68 -45 67 -98q-23 -84 -81 -84h-13q-57 18 -75 62q0 16 -13 36l8 4l-4 9q6 57 39 57q17 14 33 14zM68 825l2 -8q0 -25 32 -33q35 0 45 31q0 2 -2 2q0 20 -26 37v0h-8h-11 q-26 0 -32 -29z" />
<glyph unicode="&#x26;" horiz-adv-x="806" d="M291 1409q92 0 164 -195q8 0 12 -112q0 -117 -119 -281q-57 -84 -57 -90q61 -231 102 -299q49 -84 49 -88h4q16 53 17 62v22q12 27 22 27v2h-8v8l41 16q51 -25 51 -69q2 0 2 -4q-18 -82 -53 -179q27 -59 141 -147q35 -39 35 -68q0 -14 -20 -22q-45 4 -131 76l-74 71 l-94 -121q-80 -80 -135 -79q-100 0 -199 94l-23 49q-18 33 -18 115v90q8 188 186 485q-61 238 -61 250q-14 0 -27 121v12q0 4 4 4q-8 12 -8 23v22q0 8 4 15q0 4 -4 4q4 29 12 45l-4 8q23 82 76 106q54 23 113 27zM193 1200q4 -8 4 -10l-4 -8l4 -8l-4 -9q4 -6 4 -10h-4 q8 -68 61 -276q94 129 113 260l-2 8v18q0 4 2 4q-25 137 -72 138h-6q-76 0 -88 -66q-2 -41 -8 -41zM219 612q-84 -182 -104 -256q-12 -76 -13 -137h-4l4 -8l-4 -6l4 -8q0 -4 -4 -4q18 -143 80 -144q0 -8 53 -8q94 72 152 156q12 18 23 45q-129 170 -166 333q-12 16 -13 37 h-8z" />
<glyph unicode="'" horiz-adv-x="239" d="M10 1536v6q0 8 43 14v3q41 0 49 -21q0 -2 4 -2l-4 -14v-43q0 -2 -4 -2l4 -4v-17q0 -4 -4 -8q4 -4 4 -8q0 -2 -4 -6q0 -4 4 -4l-4 -11l4 -10q-4 -4 -4 -6l4 -10q0 -4 -4 -4l4 -25v-10q0 -20 -4 -56q4 -4 4 -10q-4 -4 -4 -6l4 -4q0 -2 -4 -2l8 -41q-12 -41 -36 -41 q-18 0 -41 25q-12 0 -13 4l4 6q0 2 -4 2q0 2 4 6q-6 53 -6 98l2 13q-2 4 -2 6t2 2l-2 10v47q0 2 2 2l-2 4v21l2 12q-2 4 -2 10v2q0 6 2 11l-2 4l2 4q0 2 -2 2l2 8q-2 20 -2 25h2q-6 8 -6 18z" />
<glyph unicode="(" horiz-adv-x="403" d="M299 1427l-2 -8q2 0 2 -2v-4q-12 -37 -29 -55q-84 -117 -123 -215q-18 -74 -28 -105l4 -16q-8 0 -19 -80q2 0 2 -4q-2 -4 -2 -12v-35l-4 -6h4l-4 -27v-37q0 -8 -4 -14q4 -6 4 -16v-66l-4 -8q4 0 4 -2v-35l-4 -6q4 0 4 -4v-15l-4 -18q6 0 8 -19v-12l-4 -8h4l-4 -14l4 -19 q-4 0 -4 -4q2 0 11 -24h-7q12 -88 25 -134l-2 -8q14 -43 14 -96q55 -170 70 -170q31 -80 47 -86l-2 -16v-4q6 0 6 6l8 -2q0 -8 -12 -9q0 -4 4 -4q-4 -45 -14 -45h-4q-6 0 -6 8q-4 0 -5 -4q-8 0 -16 4l-6 -4l-6 4l-21 -4q-6 16 -10 17q-16 0 -27 43q-55 113 -69 155 q-41 123 -74 410q2 0 2 4q-2 6 -2 16v66l-4 18q4 0 4 5l-4 22l4 6q-4 0 -4 4v15q0 98 10 184q-4 0 -4 4l25 141q29 164 162 326q37 47 73 55q27 0 33 -37z" />
<glyph unicode=")" horiz-adv-x="438" d="M33 1464q37 -8 73 -55q133 -162 164 -326l23 -141q0 -4 -4 -4q10 -86 10 -184v-15q0 -4 -2 -4l2 -6l-2 -22q0 -4 2 -5l-2 -18v-66q0 -10 -4 -16q0 -4 4 -4q-35 -287 -76 -410q-12 -43 -69 -155q-10 -43 -25 -43q-4 0 -12 -17l-19 4l-8 -4l-6 4q-6 -4 -14 -4q0 4 -5 4 q0 -8 -8 -8h-4q-8 0 -14 45q4 0 4 4q-10 0 -10 9l6 2q2 -6 6 -6v4l-2 16q16 6 47 86q14 0 72 170q0 53 14 96l-4 8q14 45 27 134h-9q8 25 13 24q0 4 -4 4l4 19l-4 14h4l-4 8v12q0 18 8 19l-4 18v15q0 4 4 4l-4 6v35q0 2 4 2l-4 8v66q0 10 4 16q-4 6 -4 14v37l-4 27h4l-4 6 v35q0 8 -4 12q0 4 4 4q-12 80 -19 80l2 16q-10 31 -28 105q-37 98 -121 215q-18 18 -31 55v4q0 2 4 2l-4 8q6 37 33 37z" />
<glyph unicode="*" horiz-adv-x="573" d="M180 1583h4q45 -31 45 -78h-4l4 -8v-43q2 -6 9 -6q88 84 110 84h4q20 -31 29 -31v-10q0 -4 -4 -4l4 -6q-10 -43 -119 -127v-4q68 -68 123 -133q-18 -57 -31 -60q-6 -4 -10 -4q-49 0 -106 86h-9v-2q8 -55 9 -57l-17 -11l4 -8v-4q-20 -23 -47 -24q0 4 -31 14q-6 23 -24 41 l6 10v49q-33 -25 -47 -49q4 0 4 -4l-8 -2h-37q-35 16 -35 29q4 8 4 12q-6 4 -10 4q0 31 74 84l41 37q0 8 -72 55q-43 35 -43 45v27q25 47 43 47t86 -55q0 20 4 20l-4 8v19q0 4 4 4l-4 8q10 25 39 41q0 -4 2 -4q0 6 10 10z" />
<glyph unicode="+" horiz-adv-x="700" d="M260 932q31 0 57 -39q0 -6 -8 -6l8 -17l-8 -4l4 -18v-4q0 -8 -4 -15l4 -8q-4 -27 -4 -41v-18q8 0 8 -4l9 4q4 0 4 -4l6 4h4q4 0 4 -4l8 4l15 -4l18 4l21 -4q41 4 75 4h6l19 2q35 -16 35 -23q16 -20 18 -45q-10 -35 -37 -34h-4l-8 4l-4 -7q-6 0 -6 3q-63 -2 -94 -3h-52 q-8 0 -14 3l-35 -11v-4l4 -18h-4q0 -4 4 -4l-4 -19q0 -8 4 -16l-4 -6q4 -8 4 -13h-4l4 -8v-6q0 -4 -4 -4l4 -8l-4 -27l4 -37q-20 -35 -30 -35l-7 5l-18 -5q-51 18 -51 41q0 86 -2 97l2 6l-2 8l2 8q-2 6 -2 10h2l-2 9v4l2 8q-14 6 -15 10q-4 0 -4 -4q-4 0 -10 4l-35 -4 q-74 0 -143 49l4 8l-12 15q6 0 22 22q8 0 23 17q6 4 16 4q63 -12 129 -13q4 0 29 13l-4 18v41l-2 23q0 68 37 75q16 17 22 17z" />
<glyph unicode="," horiz-adv-x="360" d="M92 121q78 -41 78 -117v-16q0 -4 -2 -4q0 -4 2 -4q-23 -106 -55 -127q0 -23 -33 -25q0 -8 -8 -8q-27 10 -27 14l4 8q-23 0 -24 33q-4 0 -4 4q10 31 28 60l4 18q-27 8 -51 47h-4q0 4 4 4q0 4 -4 12q0 68 59 97l9 -4z" />
<glyph unicode="-" horiz-adv-x="669" d="M549 643v-4q-8 0 -41 4l-16 -4q0 4 -5 4l-6 -4l-8 4q-6 -4 -14 -4h-4q-12 0 -19 4l-22 -4h-33l-6 4q0 -4 -4 -4h-78l-19 4q0 -4 -4 -4t-12 4q-18 -4 -20 -4q-74 0 -168 8q-6 -4 -11 -4q0 4 -4 4l-8 -4q-6 0 -6 10q-41 25 -41 41q0 27 68 37l69 -6q0 4 4 4l6 -4q4 0 13 4 q8 0 14 -4q61 4 96 4h15l45 -4q0 4 8 4l14 -4q2 0 10 4l19 -4l18 4q0 -4 4 -4q6 4 11 4q10 0 14 -4q8 4 16 4h25l8 -4q0 4 4 4h74l27 2q0 -2 4 -2q33 -8 32 -49h-4q-12 -43 -26 -43h-10q-17 0 -29 6z" />
<glyph unicode="." horiz-adv-x="290" d="M94 141q43 0 64 -61v-31q-18 -35 -60 -59l-18 4h-27q-47 31 -47 65q8 78 74 78q0 4 14 4z" />
<glyph unicode="/" horiz-adv-x="479" d="M322 1452q53 -20 53 -57q-23 -76 -53 -213h-5l5 -6q-27 -92 -46 -213q-23 -82 -49 -213h-4q0 -4 4 -5q-45 -219 -49 -256h-4q4 -8 4 -12l-4 -8l4 -6q-8 -10 -12 -57l4 -9q-23 -82 -37 -223q4 -6 4 -10q-8 -2 -8 -8v-19q0 -10 4 -16l-12 -23v-4q0 -8 4 -14 q-35 -76 -62 -76v-4q-63 12 -63 35v4h4q-4 6 -4 10q8 18 27 129l-4 8q39 188 67 408l16 57l-4 8q117 535 174 762q26 31 46 31z" />
<glyph unicode="0" horiz-adv-x="743" d="M240 1434v-2l6 2h4q4 0 4 -2q4 0 4 2q53 -8 53 -29q4 0 11 2q59 0 92 -25q84 -55 125 -168q23 -117 32 -196l-2 -8l2 -6q0 -4 -2 -5l6 -79h-10v-5q10 0 10 -26v-35q0 -2 -4 -2l4 -8v-35q0 -8 5 -14l-5 -9q0 -4 5 -4l-5 -26v-11q0 -57 -4 -151h-2l2 -8v-15 q-12 -115 -22 -114q0 -4 4 -4q-31 -180 -68 -269q-41 -98 -114 -164q-31 -29 -103 -40q-92 0 -162 94q-88 233 -88 346q-4 0 -4 6h4q-2 8 -10 84h4l-4 8v27q0 18 -4 63q4 0 4 4l-8 4l4 15l-4 22h4l-4 9v14q0 4 4 4l-4 8q2 8 8 8l-4 6l4 9q0 4 -4 4q14 250 41 401q-4 8 -4 12 q6 0 27 113q33 113 79 143q64 50 93 50zM125 999q0 -4 4 -4q-4 -35 -8 -34q0 -4 4 -5q-16 -154 -23 -174q0 -4 4 -4l-4 -18v-10q0 -12 4 -13l-4 -18v-107q0 -4 -4 -4q8 -18 8 -26h-4q0 -4 4 -4l-4 -37q14 -178 31 -213h-4q57 -268 137 -269h6q92 61 93 86q74 119 112 347 q0 4 -4 4q0 6 8 28q0 4 -4 4l8 76q0 4 -4 4q8 102 15 103l-7 4q0 8 5 8l-5 37v45q0 8 -4 16q4 6 4 15v30l5 8q-8 0 -9 7q8 25 9 26q-8 0 -9 8q0 8 9 9q-4 8 -9 32l4 9q-8 12 -8 18q8 4 13 4v4q-16 0 -21 80q0 4 4 4l-18 99q4 6 4 10q-10 0 -23 53q-61 102 -125 102 q-12 0 -12 4q-4 0 -4 -4l-18 4h-5l-18 -4v4q-59 -33 -84 -102q-22 -86 -49 -242z" />
<glyph unicode="1" horiz-adv-x="479" d="M209 1417l6 -4l8 4q57 -14 58 -57q8 -45 10 -57l-2 -7q2 -43 2 -71v-8q0 -8 -2 -17q0 -2 2 -2l-2 -20q0 -6 6 -29l-6 -4q0 -4 2 -4l-2 -39v-60q0 -4 -4 -4l4 -8v-33q0 -16 2 -30q-2 -16 -2 -27l2 -27q-2 -8 -2 -12q2 -14 2 -27l-2 -6l2 -8q0 -4 -2 -4q2 -27 6 -35 q-4 -6 -4 -14q0 -4 4 -10l-4 -25v-6q0 -8 4 -16q-4 -6 -4 -15q0 -8 4 -8l-4 -18v-84q0 -4 -2 -4l6 -41q0 -4 -4 -5q0 -4 4 -10l-4 -47l4 -6q0 -4 -4 -4l4 -19v-8q0 -12 -4 -18q8 -53 8 -92h-4l8 -23q-4 -14 -4 -26q4 -6 4 -11h-4l4 -8q0 -4 -4 -4q0 -4 4 -4l-4 -19v-18 l4 -27h-4q4 -8 4 -12q0 -16 -4 -22q4 -25 4 -41v-27l-4 -23q4 -8 4 -12h-4q8 -14 8 -41q-25 -53 -57 -53h-4q-37 12 -37 18q-8 70 -12 76l8 4l-4 8v31q0 18 4 56l-8 4q4 8 4 12q0 10 -4 27q4 41 8 40q-4 6 -8 50q4 20 4 30l-4 9q0 2 4 2q-4 41 -8 51l4 14q-4 41 -4 72h4 l-4 8v113l-3 20h3q0 2 -3 2l3 21v63l-3 23q2 6 3 18l-3 8q2 8 3 13q-6 0 -7 6q4 12 7 12q-6 39 -11 182q4 23 4 54q-4 33 -4 40h4q0 4 -4 5l4 18v18h-4l-49 -124q0 -18 -8 -19l4 -8q-31 -68 -80 -68q-49 6 -49 62q6 8 72 170l53 143q45 133 84 133z" />
<glyph unicode="2" horiz-adv-x="704" d="M416 1438q47 -8 47 -15l8 4q102 -59 123 -133q10 0 12 -129q-6 -59 -10 -65l4 -6q-27 -125 -37 -125q0 -4 2 -4q-4 -23 -16 -52l4 -8q-74 -182 -133 -297q0 -6 -31 -47q-35 -94 -88 -172q-152 -283 -151 -287q-6 0 -13 -14q4 0 10 4q4 0 25 -6q74 2 92 8q8 -4 10 -4 q63 8 189 12q43 -4 43 -8l10 2q41 -23 39 -67q-12 -23 -29 -31q-4 0 -32 4q-127 2 -127 -6q-4 0 -5 4q-47 -10 -67 -10l-8 2q-4 0 -4 4q-8 -8 -68 -10l-20 6q-6 -4 -11 -4v4l-32 -6l-19 4q-4 0 -12 -4q-4 0 -12 4q-27 -2 -43 -2l-11 2q-43 0 -63 49v18q35 43 153 269l-2 8 q41 55 95 162q25 29 81 153q8 8 68 133q59 131 102 308q2 23 11 36q0 2 -4 2q4 29 8 41q-2 6 -2 15v16q0 2 4 2q-2 10 -6 45h4l-6 17l4 8q0 18 -39 53l-8 -4q-20 10 -21 12q-47 -6 -47 -12l-8 4q-86 -45 -86 -70q-23 0 -47 -92q-8 -20 -29 -18h-2q-70 16 -65 72v2l4 20 q-8 0 -9 8l39 66q100 125 222 121q0 4 10 4z" />
<glyph unicode="3" horiz-adv-x="665" d="M186 1419h19q100 0 196 -137q23 -51 35 -104q-8 -16 -8 -43v-23q0 -4 -4 -4l4 -6q0 -35 -35 -129q-12 -47 -59 -111v-8q76 -43 108 -129q43 -106 43 -113q-4 0 -4 -4q8 0 23 -143q-8 -66 -10 -72l2 -8q-20 -98 -29 -102l2 -9q-41 -129 -113 -231q-35 -63 -170 -63h-4 q-53 0 -147 53q-4 0 -35 35q0 33 35 45q0 6 6 6q20 0 80 -37q18 -12 69 -12h7q68 0 84 39q29 29 94 188q0 20 8 31q0 4 -4 4q23 78 22 121v30q0 207 -106 295q-45 16 -76 17q-43 -8 -59 -9h-13q0 6 -26 19q-12 12 -19 53q41 39 103 39q61 25 76 68q4 0 34 71l-4 8q6 8 6 15 q-2 8 -2 12q10 0 19 37l-4 8q8 18 8 27l-4 8q0 4 4 10q-4 27 -4 43v23q0 27 -68 82q-4 0 -30 8h-17q-25 0 -53 -8v4q-39 -16 -76 -45h-14q-33 0 -49 49v18q61 84 159 84z" />
<glyph unicode="4" horiz-adv-x="569" d="M299 1430q57 -16 55 -33v-15q0 -4 -4 -4l4 -8v-14q-2 -8 -8 -8l2 -9q-2 -174 4 -206h-4l2 -9v-30l2 -19h-4q4 -8 4 -12q-2 -41 6 -98h-2q14 -102 9 -248h14l18 4v-4q4 0 4 4q41 -2 52 -64q-31 -29 -66 -28l-18 6v-4q-2 -33 -2 -103l-5 -8q2 -14 9 -14l-11 -45l5 -8 q-6 -20 -7 -31q0 -27 4 -72h-2l2 -8v-4q0 -4 -4 -2q4 -8 7 -47h-5l5 -6l-3 -31q0 -14 3 -35q-4 -6 -5 -14q4 -8 5 -13h-5q0 -4 5 -4l-7 -18q0 -35 -6 -98q2 -20 2 -37q-27 -37 -59 -37q-41 25 -41 37q-2 20 -2 37l4 69q0 2 4 2q0 4 -4 4l4 19q0 4 -4 4l6 20l-4 23q4 6 4 14 l-2 8q0 8 4 7l-4 102h4l-4 8l4 58q0 8 -4 14l4 8q0 4 -4 4q6 29 10 37q-4 8 -4 12h4q0 4 -4 4q0 4 4 11q0 84 -2 118q4 0 4 2l-8 3q-31 0 -49 -7q-4 0 -4 4q-35 -6 -45 -6l-27 4l-18 -2l-19 4l-20 -2q-55 14 -78 41q2 6 -6 17v6q12 12 47 121l31 100q94 262 96 285 q45 129 100 241l9 -4q12 7 18 7zM258 1143q-2 -23 -88 -262q0 -8 -57 -183h4q4 0 4 4l14 -6q33 0 133 11l4 75l-10 301l4 -2q-4 8 -6 39l4 8q-4 6 -4 15h-2z" />
<glyph unicode="5" horiz-adv-x="737" d="M469 1468l4 -8l8 4l8 -4l7 4q39 -25 39 -57q-6 -2 -17 -2l4 -8q0 -4 -28 -19h-25l-37 -4v4l-8 -4q-41 4 -72 4q-4 0 -4 4l-6 -4h-25q-20 0 -71 -12v4q-70 -18 -80 -18q8 -35 8 -92v-5l-8 -10q8 0 8 -12q0 -16 -8 -174q0 -4 -2 -10q0 -4 2 -5q-6 -72 -6 -94q4 0 4 -4l18 4 h49q8 0 15 2q154 -25 200 -71q111 -109 111 -197q8 0 14 -63q-2 -8 -2 -17q6 0 15 -158q-16 -219 -49 -258q-16 -78 -111 -163q-55 -45 -109 -45h-8q-4 0 -4 4q-8 -4 -12 -4q-129 23 -166 63l-62 66q-6 8 -14 8v2l4 8q-12 0 -22 45q-12 0 -19 39q-6 0 -12 10v62q6 0 31 18 l26 -4q6 4 11 4q47 -55 47 -68h-4q20 -51 41 -90q39 -55 94 -69l8 4q14 -8 31 -8h14q55 0 121 110q47 80 47 111q29 119 29 188q0 8 -2 17q0 2 2 2q-8 141 -29 221q-39 72 -76 106q-76 37 -155 37l-21 -4v4l-6 -4l-19 4q-6 0 -43 -8q0 4 -4 4q0 -6 -26 -10q-53 35 -54 76h5 q-4 8 -7 32q2 16 2 27l-2 8q6 41 15 129q0 4 -4 4l12 107q-4 41 -4 98v10q-12 49 -12 54q2 8 8 8l-4 6v4q137 53 284 53h4q4 0 5 -4q2 0 2 4l20 -4h10l21 4v-4q4 4 51 8z" />
<glyph unicode="6" horiz-adv-x="698" d="M387 1460q90 -6 90 -59v-12q-14 -23 -37 -23q-4 0 -4 4q-78 0 -137 -72q-37 -31 -76 -88q-8 -8 -22 -53q-16 -37 -23 -45q4 0 4 -4q-12 0 -49 -162q-6 -27 -18 -57q0 -4 2 -4q-14 -68 -27 -162q-2 0 -2 -4q6 -2 6 -8q0 -8 -4 -9l4 -26v-33q0 -8 4 -16q-4 -6 -4 -15v-8 l4 -18q-8 -2 -8 -8l4 -27q39 45 66 49q53 47 102 47l4 -8l15 4q35 0 129 -45q117 -92 116 -244h-4q8 -16 8 -49v-18q0 -121 -84 -244l-55 -33q0 -25 -80 -30q-14 0 -35 4q-6 -4 -18 -4v4l-8 -4q-143 39 -144 75q-41 45 -71 148v8h4l-4 8v2l4 8q-10 0 -16 66v33 q-10 14 -11 26v8q0 4 2 5q-6 23 -6 30l4 6q-4 6 -4 17v2l4 8q-8 0 -8 8v90q0 25 -4 50q4 14 4 43v4q0 2 4 2l-4 8v65q0 8 4 15q-4 6 -4 14v35q0 4 4 4l-4 8q12 92 27 152q-4 6 -4 10q8 0 8 8l-4 6q25 78 57 209q37 96 64 137q111 129 186 156q6 -4 10 -4l4 8q8 -4 13 -4 q12 6 22 6zM106 346q4 -6 5 -10h-5q18 -162 54 -209q27 -72 98 -72q10 0 27 -4q41 0 102 72q53 106 53 174q0 135 -22 164q0 49 -103 94q-31 12 -39 12q-125 -55 -124 -88q-41 -72 -41 -129q-5 0 -5 -4z" />
<glyph unicode="7" horiz-adv-x="632" d="M27 1442q4 0 41 -8l8 4l8 -4l6 4q16 -2 16 -6l9 2h2q4 0 4 -2l8 2h4q4 0 4 -2q2 0 2 2l17 -2q176 0 258 10v-4q6 4 10 4q49 -27 49 -64q-2 -66 -6 -65q2 -6 2 -10l-49 -271v-22l-6 -11v-26q-16 -92 -27 -137l4 -9q-8 -23 -39 -237q-72 -371 -98 -477l4 -9q-8 -31 -8 -63 v-21q0 -35 -53 -40q-45 0 -54 57q10 0 23 147l31 111q0 2 -4 2q10 51 20 65q0 4 -4 5q59 313 80 469h2l-2 8l10 57q-4 6 -4 10q10 0 39 217q10 66 26 125q-4 6 -4 11q10 0 11 61v4l4 6q-14 8 -23 8q-4 0 -4 -4l-27 4h-14q-8 0 -14 -4l-8 4q-20 -4 -31 -4q-4 0 -10 4 q-8 -4 -13 -4l-8 4q-6 -4 -10 -4v4l-8 -4h-4q-8 0 -15 4q-6 -4 -16 -4h-2q-10 0 -17 4l-8 -4l-55 9q-8 -4 -12 -5q0 6 -37 15q-35 35 -35 49l4 8q-4 0 -4 4q19 23 27 23z" />
<glyph unicode="8" horiz-adv-x="679" d="M246 1464q145 0 209 -121q35 -41 34 -112q0 -94 -61 -270l-18 -31q4 0 4 -2q-12 0 -43 -80q-6 -4 -37 -80v-4l67 -80q68 -113 68 -133q-2 0 -2 -2q25 -18 49 -115l-4 -8q6 -12 6 -29q0 -78 -10 -100l4 -6q-18 -33 -43 -115q-76 -121 -147 -143q-25 -33 -125 -49 q-12 -4 -15 -4v4q-4 0 -4 -4q-100 0 -133 67q-33 68 -45 191q4 6 4 14l-4 8q10 72 14 72q0 4 -2 4q0 43 29 129q31 96 98 201q49 61 70 110q-23 0 -98 125q-35 74 -48 90h5q-41 74 -41 160h4q0 4 -4 4q8 82 45 166q27 70 75 111q50 26 99 32zM236 1374q-72 -43 -89 -106 q-18 -59 -32 -144q8 -106 127 -270l16 -14q10 33 49 106q31 61 64 156q0 2 -4 2q27 104 26 123l-2 6q0 4 2 4q0 78 -59 121q-20 16 -62 16h-14l-18 -4q0 4 -4 4zM281 696q-94 -133 -129 -204q-53 -129 -54 -254q0 -25 8 -54h-4q29 -121 54 -121l8 5h26q117 35 181 135l22 57 q-2 0 -2 4q29 49 29 94l-2 45q2 8 2 13q-53 188 -139 280z" />
<glyph unicode="9" horiz-adv-x="679" d="M367 1450q80 0 110 -57l31 -37q0 -8 10 -21q0 -4 -2 -4q2 -6 2 -10l-14 -72q4 -33 4 -57v-12q0 -2 -4 -2q0 -4 4 -4l-4 -39v-15q0 -4 -4 -4q4 -8 4 -12q-4 -10 -8 -10q0 -4 4 -4q-6 -49 -11 -50l5 -8q-10 -16 -21 -147q0 -4 4 -4l-8 -82q4 -35 4 -88l-4 -9q4 -6 4 -14 v-39l-4 -22q4 -6 4 -11q0 -4 -4 -4l4 -18q0 -27 -6 -53q6 -43 6 -72l-4 -16q4 -4 8 -45q0 -10 -8 -31q0 -6 8 -27q-4 -6 -4 -10l4 -8q0 -4 -4 -4q8 -33 8 -58q-4 -18 -4 -22q4 -6 4 -10h-4l4 -9v-26q0 -18 4 -37l-4 -16q14 -137 15 -144q-25 -25 -41 -26q-8 4 -13 4 q-6 -4 -10 -4q0 8 -8 8q0 -4 -4 -4q0 4 -29 14q-8 12 -12 76l4 8q-4 6 -4 14h4l-4 8v46q0 8 -4 16q0 4 4 4l-4 25v92q0 4 4 4q-4 23 -8 22l4 15q0 8 -4 43q0 6 4 6q-8 70 -8 174q0 4 4 12l-4 23v49q0 4 4 4l-4 8v78q0 14 -2 35l2 8q-2 6 -2 23q-39 -18 -89 -31 q-176 0 -237 147q-10 20 -39 111l8 4q-8 14 -8 31v28q0 72 31 150q16 70 133 158q94 61 203 61zM307 1339q-4 0 -4 4q-59 -10 -151 -98q-53 -104 -54 -186q25 -162 45 -162q16 -35 70 -53q2 0 23 -4q57 0 112 71q16 25 31 88l-4 7q8 135 18 182q-2 6 -2 16q23 145 23 154 q-20 0 -21 4l-6 -4q-4 0 -12 4q-68 -7 -68 -23z" />
<glyph unicode=":" horiz-adv-x="276" d="M78 795l6 -4q6 4 14 4q59 -49 60 -86v-15q-18 -59 -47 -59q0 -8 -33 -8v4l-8 -4q-31 0 -60 67v15q0 41 51 82q9 0 17 4zM104 141q43 0 64 -61v-31q-18 -35 -59 -59l-19 4h-27q-47 31 -47 65q8 78 74 78q0 4 14 4z" />
<glyph unicode=";" horiz-adv-x="317" d="M127 782q51 -33 51 -59q6 0 6 -18v-9q-25 -66 -57 -65q0 -8 -8 -8h-4q-61 0 -84 53v33q0 59 96 73zM92 121q78 -41 78 -117v-16q0 -4 -2 -4q0 -4 2 -4q-23 -106 -55 -127q0 -23 -33 -25q0 -8 -8 -8q-27 10 -27 14l4 8q-23 0 -24 33q-4 0 -4 4q10 31 28 60l4 18 q-27 8 -51 47h-4q0 4 4 4q0 4 -4 12q0 68 59 97l9 -4z" />
<glyph unicode="&#x3c;" horiz-adv-x="608" d="M311 934q4 0 4 -4l19 4h24q33 -18 33 -60q-23 -29 -147 -104q-37 -39 -111 -88v-4q76 -33 303 -119q23 -23 23 -29l-4 -8q4 -6 4 -14v-4q-33 -35 -41 -37q-23 0 -162 55q-217 78 -252 115q-4 0 -4 4v23q0 4 4 4l-4 6v4q0 31 51 59q4 0 137 121q8 0 123 76z" />
<glyph unicode="=" horiz-adv-x="720" d="M104 838l2 -9l9 5h12q2 0 2 -5l8 5q8 0 15 -5l8 5q8 0 47 -9l8 4q6 -4 10 -4t4 4l19 -4h14l23 4q6 -4 18 -4q8 4 12 4v-4q4 4 60 9l37 -5q6 4 14 5v-5l6 5h27q8 0 14 4q6 -4 14 -4h27l18 4v-4l9 4q14 -10 41 -15v-12q-10 -74 -37 -74l-8 4q-8 -4 -13 -4q-12 8 -20 8h-23 l-37 -4v4l-8 -4h-14q-4 0 -4 4l-6 -4h-95q-2 0 -2 4q-14 -8 -30 -8v4l-6 -4h-13q-10 0 -10 4l-18 -4h-31q-2 0 -2 4l-8 -4h-19q-8 0 -14 4q-8 -4 -12 -4q-10 0 -29 4l-72 -8q-41 25 -41 31h-4q0 47 45 55q10 0 27 15l8 -5q10 9 18 9zM463 645q37 -2 37 -6l8 2h29q4 0 4 -2 l8 2h12q39 0 49 -41q-4 -10 -8 -10q8 -12 8 -19q-41 -25 -41 -30q-39 4 -61 12q-8 -4 -12 -4v4l-9 -4q-25 0 -24 6l-8 -2h-19q-57 0 -78 -8q-4 0 -4 4q-6 0 -6 -4q-37 4 -55 4h-37q-33 0 -209 -14q0 6 -37 20q-10 14 -10 27v4q0 8 10 8l-4 6q0 8 41 31q0 4 4 4l8 -4q0 8 9 8 h14q4 0 4 -4q6 4 10 4l15 -4q4 0 4 4q4 0 12 -4q45 4 51 6l6 -2l9 2q6 -2 14 -2l8 2q6 -2 10 -2q8 2 13 2v-2l6 2h14q8 0 16 -2l7 2l8 -2l14 2l19 -2l8 2l8 -2l16 2v-2l8 2h15q4 0 4 -2l8 2q19 0 74 4z" />
<glyph unicode="&#x3e;" horiz-adv-x="573" d="M68 897q80 -25 294 -111l29 -10q0 2 4 2q0 -4 78 -37q0 -8 12 -16l-4 -8q8 0 11 -35q-186 -152 -359 -240q0 -6 -27 -18q-35 6 -55 31q0 4 -4 10l4 6l-4 8q0 33 80 68q117 68 190 125l23 22q-2 0 -2 4l-8 -4q-16 0 -189 82q-35 4 -35 10q-2 0 -2 -4q-104 16 -104 64v8 q0 2 4 2l-4 8q15 33 68 33z" />
<glyph unicode="?" horiz-adv-x="602" d="M197 1466q4 0 4 -4l18 4h8q4 0 4 -4q4 0 5 4q88 -20 161 -94l39 -84q0 -4 -4 -4l14 -53q0 -4 -4 -4l9 -37q-4 -25 -5 -49v-17q-6 -8 -14 -55q-12 -59 -72 -178q4 0 5 -4q-63 -104 -74 -170q-12 -43 -19 -53q0 -4 4 -5q-41 -143 -40 -280l4 -8q-4 -6 -4 -11q4 -49 6 -53 q-2 -8 -2 -12q6 -23 6 -29h-4l4 -8v-12q0 -4 -4 -4l8 -15l-4 -8q4 -6 4 -10q-4 -31 -60 -53h-12q-31 10 -39 34v3q0 4 4 4l-4 8v22q0 8 4 15q-10 33 -10 118v7l-4 24q4 6 4 19l-4 26h4l-4 6q2 25 8 25l-4 6v4q0 4 4 4l-4 8v11l6 12v31q53 274 150 438q29 76 49 143l-4 9 q10 29 10 43q0 84 -49 165q-66 45 -90 45q-41 0 -53 -40q-6 0 -23 -43q-23 -25 -23 -103q0 -2 5 -2l-9 -16q14 -57 15 -60q-8 -35 -37 -49q-8 0 -8 6q-6 -4 -11 -4q-57 10 -57 31q-4 63 -4 98q0 92 68 205q25 35 75 45q6 4 43 8q0 -4 4 -4q1 8 7 8zM215 102q39 0 47 -61 q0 -31 -80 -41q-37 0 -43 45q27 57 76 57z" />
<glyph unicode="@" horiz-adv-x="901" d="M381 991q6 -2 14 -2q4 0 4 2q119 -10 129 -28l9 4h4q102 -68 147 -156q53 -94 78 -248h-4l4 -8v-57q-20 -172 -43 -172q-8 -33 -68 -88q-16 -8 -59 -9h-4q-45 0 -92 78q-47 -94 -109 -94q-80 0 -106 131q-8 76 -15 100l4 23l-4 45q12 117 41 160q39 51 74 51h4 q111 0 160 -100q16 0 43 -123q0 -18 4 -33q-4 -6 -4 -10l4 -37h-4l-6 4v-8l2 -8q-6 0 -6 -11l4 -8l-4 -6q16 -57 24 -57q41 0 68 108q2 47 8 47l-4 8v25q0 33 -49 223l-6 -4l-37 68q-74 106 -187 106q-8 0 -14 4q-6 -4 -14 -4h-9q-4 0 -4 4l-6 -4h-22q-57 -6 -123 -55 q-96 -127 -115 -322q0 -4 4 -4l-10 -77l2 -9q-2 -31 -2 -47q0 -4 2 -10q-2 -8 -2 -16l2 -37h-2q2 -6 2 -11l-2 -8q2 -6 2 -14q0 -4 -2 -4l2 -6v-49q0 -8 4 -15q0 -4 -4 -4q4 -33 16 -82q-4 -6 -4 -10q6 0 19 -74q41 -125 82 -184q66 -90 202 -90q6 4 11 4v-4q135 31 155 69 q70 57 70 195q12 16 35 16q41 0 55 -32v-15q-6 -8 -18 -86q-6 0 -15 -41q-47 -86 -78 -114q-47 -49 -155 -70q-49 -6 -49 -10l-6 4l-9 -4l-8 4l-16 -4q-145 0 -242 110q0 8 -18 33q0 8 -27 37q-8 35 -18 45l4 6q-6 0 -23 41l4 8q-33 96 -32 109h8v6q0 18 -13 18l9 13v6 l-9 -4q-4 8 -4 10l4 27q-6 0 -12 12v10h8v35h-8l4 16v17l-6 10v27h6v20h-6v23h6v16q-10 0 -10 37v6q0 4 4 4q0 4 -4 4q2 47 6 47l-2 9v4q0 8 6 8q0 -4 4 -4q0 31 4 32q-8 4 -12 5v6h12v8h-8v41q2 6 8 6q0 -2 5 -2l-5 18v2h13v13l-8 -4h-5v4q37 195 119 284q16 12 41 48 q113 73 203 73zM344 522q0 -4 4 -4l-4 -24q0 -145 45 -187q43 29 70 117q12 49 18 65l-4 9q4 10 8 10l-4 6q6 20 15 31q0 35 -60 90l-6 -4l-12 6h-15q-23 0 -47 -82q-4 -33 -8 -33zM14 535q4 -8 4 -13h5v13h-9zM4 473h6v-10h-6v10zM18 96h9v-10h-9v10z" />
<glyph unicode="A" horiz-adv-x="708" d="M254 1432q53 -18 53 -66q4 0 41 -98l92 -340q14 -123 23 -123q0 -4 -4 -4q84 -530 110 -625h-4l33 -129q4 0 4 -4v-37l-8 4q0 -10 -41 -22q0 -8 -8 -8q-43 0 -64 143q-31 98 -90 520h-43l-37 -4v4l-8 -4q-4 0 -4 4l-8 -4h-6q-4 0 -4 4q-4 0 -5 -4q-18 4 -83 8 q-2 -106 -11 -106q0 -4 4 -4q-4 -35 -8 -35l4 -6q-25 -137 -30 -150l4 -6q-18 -63 -35 -178h-4l4 -8v-4q0 -4 -4 -5l4 -6l-15 -57q0 -4 5 -4l-5 -19v-8l5 -18q-14 -8 -31 -39q-4 0 -41 -6q-4 0 -4 4l-8 -4h-4q-6 0 -23 26q0 4 4 4l-4 7v4l8 12q0 2 -4 2q4 41 19 96 q-4 6 -5 11h5l-5 8q8 16 17 67q-4 0 -4 4q8 0 8 9l-4 18q12 0 55 295h4q0 4 -4 4q4 27 8 27q0 4 -4 4q8 82 21 151l-4 8q4 18 6 19q0 4 -2 4q0 18 41 330q0 4 -4 4q23 186 45 309q39 10 39 16l6 -4zM262 1206q-16 -115 -20 -116l4 -9q-2 -33 -6 -32q0 -4 2 -5 q-2 -51 -29 -178q0 -4 2 -4q-6 -47 -6 -98h-4l4 -8l-4 -23v-4h37q4 0 4 -4q4 0 4 4l18 -4h27q8 0 16 4q6 -4 15 -4h30l19 4q-45 287 -99 422q-8 55 -14 55z" />
<glyph unicode="B" horiz-adv-x="581" d="M35 1475q70 0 211 -72q31 -16 92 -84q-4 0 -4 -4q33 -51 63 -187q-4 -23 -10 -22q0 -4 4 -4q0 -113 -76 -254q-63 -55 -92 -55v-13q39 0 142 -186q33 -111 41 -152q4 0 4 -2h-4l4 -8v-14q0 -20 10 -62h-2l2 -8q0 -4 -2 -4l2 -6v-23q0 -57 -6 -57q0 -4 4 -4 q-35 -147 -70 -148q-41 -49 -90 -65q-23 -14 -31 -14q0 4 -4 4q-43 -27 -112 -27q0 -4 -5 -4q-66 8 -65 23q-33 12 -41 40v9q2 8 8 8l-8 45l4 8q0 4 -4 4l4 19q0 4 -4 10q0 4 4 4l-4 20l4 25q-4 8 -4 12t4 4q0 4 -4 11q4 41 4 65q0 4 -4 10l4 25v45q0 4 4 4l-4 6v54q0 4 4 4 q0 4 -4 4l4 18l-4 35l8 4l-4 6v8q0 12 4 13l-4 18v23q0 4 4 4l-4 6q0 4 4 4l-8 27q4 27 8 26q-4 49 -8 49l4 21v90q0 8 -4 14q4 8 4 17v63q0 4 4 4l-8 45q4 6 4 17q0 8 -4 14q0 4 4 4l-4 19v16q0 2 4 2l-4 8v53q0 4 4 5l-4 8v14q0 31 4 72l-4 8q4 6 4 14t-4 9q4 33 8 40 q-4 6 -4 17q0 12 4 18l-4 27q4 51 4 63q-4 8 -4 13h4l-4 8v2q0 8 6 8q0 4 -2 4q7 58 23 58zM106 1376q0 -4 -4 -4l4 -8v-14q0 -23 -4 -62q4 -8 4 -12h-4l4 -6v-8l-4 -23q0 -4 4 -4l-4 -18v-39q0 -2 -4 -2l4 -9v-4q0 -4 -4 -4q0 -4 4 -4l-4 -27v-28q0 -16 4 -43q-4 -6 -4 -15 q4 -6 4 -16h-4l4 -6l-4 -47l4 -23q-4 -35 -4 -67v-35q0 -27 13 -29q10 18 86 60q53 33 69 88q23 57 25 120q4 0 8 19q-8 25 -8 31h4q-14 96 -49 151q-37 39 -125 88l-6 -4zM102 739q-4 -8 -4 -12q8 -41 8 -45l-4 -18l9 -50h-5l5 -8q-4 -14 -9 -14q2 -8 9 -43q-4 -23 -9 -23 l4 -8v-14q0 -4 -4 -4q0 -4 4 -4l-8 -90q4 -4 8 -54h-4q4 -8 4 -10l-4 -8l9 -23l-5 -8l5 -8q-4 -18 -9 -19l9 -34q-8 -18 -9 -29l4 -23h-4l4 -8v-12q0 -8 -4 -14q4 -8 13 -58h-4q4 -14 22 -14q31 18 94 33q76 61 76 110q6 0 14 58v32q2 8 9 9q-8 27 -23 120h4l-39 119 q-2 0 -2 4v2q0 4 2 4q-78 156 -157 156q-1 8 -9 8z" />
<glyph unicode="C" horiz-adv-x="636" d="M250 1466h18q158 0 174 -80h-2l2 -8q0 -8 -32 -22v4l-9 -4q-68 23 -94 22l-18 -2v2l-8 -2q-4 0 -5 2q-94 -37 -129 -121q-12 -16 -36 -112l4 -8q-8 -31 -13 -90q0 -4 4 -13l-8 -116l4 -9l-4 -8q0 -12 4 -18q-4 -49 -4 -80v-76q0 -8 4 -14q-4 -6 -4 -17v-14q0 -31 4 -80 l-4 -8l17 -82h-4q6 -20 14 -80l-4 -8q8 -14 8 -23h-4q10 -68 14 -84l-2 -6q23 -123 76 -194q35 -37 53 -37q96 0 180 86q20 4 23 4q49 -6 49 -45q4 0 4 -4v-10l-80 -70q-8 0 -22 -14q-82 -27 -139 -27h-27q-4 0 -4 4l-8 -4q-92 0 -174 201l-27 106q0 4 4 4l-14 64h4l-4 8v8 q0 2 4 2q-4 6 -8 43h4q-4 10 -8 45h4q-14 68 -15 84h2l-6 19q0 4 4 4q-8 39 -8 53h4q0 4 -4 4l4 19v6l-4 20h4l-4 6v39q0 4 4 4l-4 6q0 4 4 5l-8 38q4 33 8 33l-4 8v72q0 4 4 4q-4 8 -4 13l4 6q-4 8 -4 16q0 4 4 4l-4 6q0 279 86 402q29 51 92 84q0 12 68 30z" />
<glyph unicode="D" horiz-adv-x="647" d="M61 1460v-2q2 0 2 2q4 0 13 -2q4 0 30 2q88 0 170 -49q78 -59 111 -174l37 -182q-4 -6 -4 -11l8 -4l-4 -8q12 -90 18 -112l-2 -17q2 -39 11 -59q0 -4 -5 -4q12 -133 17 -133l-4 -27v-68q0 -115 -8 -143l4 -8q-12 -41 -13 -49v-27q0 -4 -2 -4q0 -4 2 -4q-25 -160 -51 -215 q-20 -70 -65 -111q-37 -29 -37 -33q-51 -25 -88 -24v4l-64 -18q-43 8 -43 12l-6 -4h-4q-39 14 -39 49l-4 18l4 15q-4 20 -4 34h4l-4 9v94l-2 45h2q-2 8 -2 12t2 4l-2 19v37q0 14 -4 34q0 4 4 4q-4 8 -8 111h4q-4 18 -8 19l4 18v12q0 8 -4 15q0 4 4 4l-4 18v4q0 10 4 10 q-6 51 -8 62q4 8 4 12l-4 19q4 0 4 4l-9 4l5 14q0 20 -9 80h4q0 4 -4 4q-2 80 -2 121v35l-4 24h4l-4 9v22q0 20 4 35q-4 20 -4 37v43q0 8 -4 14q4 8 4 12l-4 15l4 8q0 4 -4 4l4 18v45l4 23q-4 6 -4 18v5l4 22l-4 8q4 6 4 17q-4 10 -8 10l4 26l-4 23q4 6 4 16q-8 25 -8 33v8 q14 37 61 37zM115 1356q0 -10 2 -17l-2 -26q6 -39 6 -41q-4 0 -4 -4q4 0 4 -4l-6 -4l6 -37q-6 -14 -6 -43v-181q0 -16 -4 -30q4 -14 4 -31v-14q0 -84 6 -123h-4l4 -6q0 -12 -4 -19l8 -76h-4l4 -8v-26l4 -23q0 -4 -4 -4q8 -43 8 -57h-4l4 -9v-86q0 -49 6 -67q-2 -8 -2 -12 q2 -8 2 -11h-2l2 -8v-61l4 -45h-4l4 -9v-41q0 -8 4 -14q-4 -8 -4 -16v-41l4 -19h-4l4 -8q0 -4 -4 -4l9 -53q8 0 26 8q4 0 4 -4q82 0 117 129q35 72 53 330q4 4 4 80v32q0 88 -8 129h4l-22 160h4q-4 29 -12 37l4 20q-39 242 -84 314q-37 49 -105 49q-22 -2 -22 -6z" />
<glyph unicode="E" horiz-adv-x="614" d="M164 1403l2 -8q4 0 4 4l20 -4h78q14 0 35 -4q6 4 14 4l9 -4q8 4 12 4l6 -4q8 4 16 4q18 -8 33 -35q-8 -49 -90 -49l-14 4q-92 4 -119 4v4l-6 -4h-66v-19q0 -4 -4 -4l4 -8v-18q0 -18 -8 -19q8 -20 8 -26h-4q0 -4 4 -4q0 -4 -4 -13q0 -2 4 -22l-4 -35q4 -18 4 -37h-4 q0 -4 4 -4q0 -8 -4 -14q4 -53 4 -92v-23l4 -23q-4 -6 -4 -18q0 -25 8 -53h-4l4 -8q0 -4 -4 -5l4 -6l-4 -26l4 -39h-4q8 -14 9 -31v-10h26q10 0 10 4l19 -4h16q20 0 54 4l6 -4q20 4 34 4q27 0 39 -35q0 -35 -53 -53l-26 4h-58l-26 -4v4l-31 -8q0 8 -6 8l-4 -8v-15 q0 -12 4 -12l-4 -18v-35q0 -8 4 -14q0 -4 -4 -5l4 -14q-4 -98 -4 -133l4 -8l-4 -6l4 -21l-4 -6q4 -20 6 -20l-2 -19v-133q0 -8 2 -14q-2 -6 -2 -15v-39l2 -22v-14q51 -8 151 -9h4q8 0 17 4q6 -4 14 -4h35q12 0 33 4q4 0 4 -4l39 4h49q31 -18 31 -45q-29 -43 -52 -43 q0 -4 -24 -6l-8 2l-17 -2l-22 2q-4 0 -4 -2l-19 2h-4l-22 -2q-6 2 -11 2l-16 -2q-20 2 -29 2l-8 -2q-8 2 -12 2l-33 -2v2l-8 -2h-12q-8 0 -15 2q-6 -2 -14 -2l-17 2q-6 -2 -18 -2v2q-4 0 -4 -2l-19 2h-12q-23 -2 -22 -10l-19 4l-14 -8q-8 4 -21 4v4q0 4 5 4q-8 12 -9 29v129 q0 4 4 4l-4 8v15q0 4 4 4l-4 8v6q0 4 4 4l-4 8v201q0 8 4 14l-4 9q4 6 4 16q0 2 -4 2l4 20v56l-4 39h4l-4 8v6q0 4 4 4l-4 8v160q0 8 -2 14l2 9q0 6 -6 26q0 8 4 15q-8 80 -8 192v39l-4 18h4q0 4 -4 4q0 8 4 9q-4 76 -4 112v76q0 4 4 4l-4 8q0 16 4 37q-4 16 -4 27 q39 39 76 39v-4q8 4 12 4l6 -4q6 4 17 4l14 -4q19 8 39 8z" />
<glyph unicode="F" horiz-adv-x="620" d="M39 1427q12 0 29 -10h38l37 4v-4l9 4h18q27 0 84 4v-4l8 4q207 -6 207 -22q12 -10 16 -25q-4 -6 -4 -10l4 -8q-4 -31 -30 -31v4l-9 -4h-18l-22 4l-9 -4q-33 4 -49 12l-6 -4l-16 4q-20 -4 -31 -4v4l-6 -4h-43q-4 0 -4 -4l-6 4q-35 -4 -43 -4v4l-7 -4q-4 0 -4 4l-39 -8v4 l-14 -6q-8 2 -12 2q-6 -2 -11 -2q0 2 -4 2q-6 -43 -12 -63q4 -8 4 -13q-4 0 -4 -2l8 -4l-4 -8v-31l4 -18h-4l4 -8v-54q0 -8 4 -14q-4 -31 -8 -31q0 -4 4 -10q4 -152 4 -227h4q59 6 68 10l8 -4l15 8q4 0 12 -4l63 8v-4l31 8l8 -4q39 4 60 4q39 -18 39 -47q0 -2 -4 -2l4 -8v-4 q0 -25 -72 -31v4l-8 -4l-27 4q-156 -18 -166 -30l-8 4l-8 -4q-6 4 -10 4v-4l6 -181h-2q6 -16 6 -26h-4l4 -8v-35l4 -19h-4q0 -4 4 -4q0 -4 -4 -10q4 -39 4 -61l-4 -9q4 -6 4 -14q0 -18 -4 -45q4 -20 4 -35q-4 -8 -4 -12l4 -6l-4 -9l4 -14q0 -4 -4 -4l4 -27v-155q0 -8 4 -15 q-4 -8 -4 -12l4 -8q-4 -6 -4 -14q4 -8 4 -13l-27 -14q-18 4 -18 12q-4 0 -4 -4q-39 0 -53 41l4 14q-4 8 -4 13h4l-4 8v49q0 8 -4 14q2 8 8 50q-4 25 -4 49v16q0 4 4 4l-4 6v27q0 12 -4 12l4 19v129l-4 18h4q-4 8 -4 12q0 6 4 7l-4 26v43q0 18 -5 64h5l-9 18l4 8q-4 6 -4 15 q0 4 4 4l-4 20v37q0 86 -6 107q0 4 4 4l-4 18v12q0 25 4 46q-4 18 -4 45v14q0 8 -4 16l4 6q-4 74 -8 74l4 19v49q0 4 4 4l-4 6v8q0 4 4 4l-4 8v11q0 4 4 4l-8 39q0 2 4 2l-4 20v27q0 31 4 72q-4 6 -4 10h4l-4 8q0 63 39 63z" />
<glyph unicode="G" horiz-adv-x="647" d="M309 1436q76 -2 152 -43q0 -6 28 -31q0 -16 5 -23q-12 -27 -39 -24h-17q-10 0 -47 26l-8 -4l-57 15l-7 -4q-4 0 -4 4q-47 0 -108 -66l-35 -59q4 0 4 -4q-8 0 -20 -62q-12 -2 -13 -28q4 0 4 -5q-10 0 -20 -61h-4l2 -18l-4 -15q8 -2 8 -8q-8 0 -8 -10q-2 -92 -12 -92 q2 -6 2 -11l-5 -16q0 -4 5 -4l-5 -19l-4 -151l9 -27h-5l5 -6v-4q-2 -4 -5 -4l3 -8l-5 -8q4 -6 5 -15h-5l5 -8v-37l-5 -8q6 -2 7 -8v-6q0 -4 -5 -4l5 -9v-41q4 -31 12 -106h-4q6 -18 10 -62h-4l4 -8q0 -2 -4 -2q12 -59 12 -78l-4 2q49 -199 133 -200q61 -2 84 47q20 45 31 51 q2 33 14 84q0 4 -4 4l8 45q-6 33 -4 90l4 236h-32q-14 2 -97 -12q-53 8 -63 20q0 -4 -4 -4q0 8 -6 8l4 17l-4 18q10 0 12 18q4 0 4 -4q27 6 82 13v-2q2 10 168 14q0 -4 4 -4q0 4 4 4q29 -25 29 -47q0 -6 -8 -29q4 -8 4 -12h-4l4 -8l-2 -7q0 -4 -2 -4l2 -8q0 -4 -5 -4 q8 -12 9 -22l-2 -35q0 -37 -9 -37l5 -8q0 -4 -5 -4q8 -12 9 -23l-2 -31q0 -45 -9 -45l4 -6q0 -4 -4 -4q10 -18 9 -96q0 -10 -9 -51q0 -4 4 -5q-2 -61 -45 -151q-70 -86 -172 -82q-141 2 -217 190l-12 58q4 0 4 4q-8 0 -8 6q0 4 4 4q-4 10 -10 49q4 0 4 4q-8 0 -8 9v8 q-20 270 -19 317v21q0 8 -2 14q0 4 2 4q-2 72 -8 94q4 6 4 17q0 2 -4 22h4q0 2 -4 4l6 19q0 8 6 98h2q0 4 -2 4q8 55 13 55q0 4 -4 5l4 18l2 53q0 8 4 17l-4 6q39 180 100 252q61 86 180 84z" />
<glyph unicode="H" horiz-adv-x="632" d="M383 1462q0 -6 53 -14q18 -20 19 -70h-4l4 -6v-4q0 -4 -4 -4l4 -8v-49q0 -20 -4 -60l4 -8q-8 -51 -9 -98h-4l4 -8l-4 -37q0 -8 4 -9l-4 -26v-19q0 -43 -2 -110q0 -4 2 -4l-2 -19v-71q0 -8 2 -17q0 -2 -2 -2q4 -88 6 -110q-4 -8 -4 -13l4 -6l-4 -8q0 -4 4 -4l-4 -19v-12 q0 -25 9 -72h-5l5 -6v-39q0 -4 -5 -4q4 -8 9 -41h-4l8 -39q-4 -6 -4 -10t4 -4l-4 -18q0 -14 4 -21l-4 -18q4 -20 4 -31h-4l8 -18l-4 -19q4 -43 8 -49q0 -4 -4 -4l4 -18v-27q0 -4 -4 -4l4 -8v-41q0 -8 2 -17q0 -2 -2 -2l2 -16q0 -8 -2 -41l2 -19q-2 -8 -2 -12q2 -8 2 -10 q-4 0 -18 -25l-9 4l-24 -4q-53 10 -53 54q2 8 2 16l-2 18h2l-2 9v32q0 12 -5 13l5 18v23q0 25 -5 75h5q-4 8 -5 13q0 45 -8 86q4 14 4 30v9q0 8 -4 14q0 4 4 4l-4 18v43q0 4 4 5l-4 6q-4 98 -8 98q0 4 4 4l-6 72h2l-2 8q0 16 6 31q-57 -4 -82 -4h-8l-18 -4v4l-66 -13l-8 4 q-6 -4 -14 -4q-4 0 -13 4l-22 -4h-15l4 -45q0 -4 -4 -4l4 -6v-66q0 -8 5 -14q-4 -8 -5 -12q4 -98 9 -98q-4 -14 -4 -27q0 -51 6 -90h-2l2 -8q0 -8 -2 -15q6 -121 14 -164q0 -4 -4 -4l12 -120q0 -10 -22 -23l-9 4l-26 -4q-31 8 -49 41v27q0 4 4 4q-8 31 -12 92q4 18 4 45 q0 4 -4 10q4 8 4 12q-4 6 -4 11h4l-4 8v18q0 10 4 17q-4 6 -4 14h4q-4 8 -4 12q0 18 -5 64q0 4 5 31q-8 33 -9 36q4 8 4 13q-6 14 -6 30q0 4 2 4q0 4 -2 5l2 14q0 16 -2 86q0 4 2 24l-6 60h4l-4 8v14q0 8 4 17q-4 8 -8 55q8 182 8 252l-4 14q4 10 6 11l-2 26v62q0 4 2 4 l-2 8q0 25 2 45l-6 59q6 0 6 13q-2 6 -2 10h2l-2 8v27q0 18 -8 18l4 21q0 4 -4 10l4 16q-4 39 -8 45q4 18 8 19l-4 8v4q10 0 27 2q76 0 75 -72q0 -14 5 -30h-5l5 -6v-5q0 -4 -5 -4l5 -8q-4 -27 -5 -29l5 -8l-5 -8q4 -6 5 -14q-4 0 -5 -4q10 0 11 -9q0 -4 -11 -10l5 -8 q0 -4 -5 -12q2 -29 9 -29l-4 -20v-78q0 -10 -5 -17q8 -23 9 -30l-9 -4q4 -33 9 -41q-4 -8 -9 -35l5 -6l-5 -9l5 -8l-5 -22q0 -4 5 -4l-5 -19v-31q0 -2 -4 -2l4 -8v-4q0 -4 -4 -4q0 -4 4 -4l-4 -33q0 -39 23 -39q8 4 12 4v-4q31 8 90 17q6 -4 15 -4q8 4 12 4v-4l8 4h33 q49 0 49 18l-2 6v97q0 8 2 14q0 4 -2 4l2 18v23l-2 20h2l-2 7v8q0 14 2 35q0 2 -2 2l2 20v18q0 8 -2 15q2 35 6 35l-4 8q0 2 4 22q0 8 -4 9q8 59 8 147q0 8 -4 29q4 14 4 34v19q0 4 4 4l-4 8q0 27 31 45z" />
<glyph unicode="I" horiz-adv-x="262" d="M61 1409h2q53 -14 54 -45v-12q-6 0 -6 -6q6 -2 6 -9q0 -4 -2 -4q2 -20 2 -30l-2 -27q2 -6 2 -10h-2l2 -9v-4q0 -2 -2 -2l2 -8v-8q0 -12 -2 -18l6 -41h-4q4 -8 4 -13q-6 -12 -6 -18l2 -21h-2q0 -2 2 -2l-2 -20q0 -2 2 -2l-2 -21v-71q0 -4 -4 -4l4 -7q0 -14 6 -133h-4l4 -8 q0 -10 -4 -31q4 -18 4 -22q-4 -27 -4 -45l4 -8q-4 -8 -6 -33l2 -8q0 -4 -2 -4l2 -19v-80q0 -4 -2 -4l2 -8v-10q0 -4 -2 -4l2 -9q0 -2 -2 -2q2 -47 6 -47l-4 -18v-53q-10 -47 -11 -160q0 -4 -4 -10l4 -23v-22q0 -8 -4 -17q4 -4 9 -67l-5 -9q4 -6 5 -14h-5q8 -10 11 -49h-2 l2 -8q0 -4 -2 -4q2 -25 6 -33q-33 -35 -41 -35h-12q-45 14 -45 18q-10 27 -11 43h2q-6 16 -6 60q0 4 4 4q-8 14 -8 31v34q0 2 4 3l-4 8v45q0 12 -4 20q18 193 18 228v28q0 12 -4 21l4 22v53q0 8 -4 15l4 8l-4 37l4 39q-4 14 -4 33h4q0 4 -4 4l4 18v27q0 25 5 57 q-8 41 -11 125q2 6 2 16q-6 18 -6 27h4l-4 6q0 4 4 4q0 4 -4 4l10 162q-4 14 -6 133l2 8q0 4 -2 5q0 53 15 53q14 10 34 10z" />
<glyph unicode="J" horiz-adv-x="653" d="M406 1458q0 -4 40 -31q0 -4 5 -10l-5 -8l5 -23h-5l5 -8q0 -2 -5 -2l5 -16q0 -23 -5 -60q0 -20 9 -73l-4 -6q4 -55 12 -80q-4 -20 -4 -31l4 -27q0 -4 -4 -4l4 -18v-23q0 -4 -4 -4q6 -12 10 -35q-2 -6 -2 -14q0 -6 6 -18l-4 -9q4 -8 4 -10l-6 -4l2 -8v-12q0 -2 -2 -2 q2 -8 2 -13q0 -43 -2 -110q2 -33 2 -41l-2 -27q0 -12 6 -63q-6 -2 -6 -9q6 -2 6 -8q0 -4 -4 -4l4 -6v-20q0 -31 4 -50q-4 -63 -8 -71l4 -15q-4 -43 -4 -75q0 -4 -2 -4l2 -9q0 -4 -2 -4l2 -6v-12q0 -8 -6 -8l4 -7v-8q0 -4 -4 -4l4 -6q-20 -115 -47 -141q-37 -100 -98 -166 q-55 -35 -80 -35v4q-6 -4 -11 -4q-53 10 -92 39q-66 47 -100 170q-23 45 -31 129q4 0 4 4l-8 2q0 4 4 4l-8 66l4 6l-4 8l8 27l-4 8q0 23 49 41q43 -10 62 -31l-4 -18q0 -4 4 -4l-4 -19l4 -22l-4 -9l4 -18l-4 -27q4 -8 4 -12h-4q29 -133 63 -188q0 -23 57 -68q63 49 117 197 q0 43 17 71v4q0 10 -5 11q8 88 11 88l-4 8q4 25 4 41q0 4 -4 4l4 18v72q0 4 4 4q0 4 -4 4l4 23q0 39 -8 76q8 0 8 8q0 6 -8 28l4 25l-4 14l4 9q0 4 -4 4l4 18v27q0 12 -4 18q8 47 8 62q0 12 -8 77h4l-4 9q0 4 4 4l-4 26v41q0 86 -7 107l5 8l-5 14l5 9q-6 6 -9 36h4 q-4 8 -4 13q0 12 4 26l-12 129q18 33 35 33q3 0 23 4z" />
<glyph unicode="K" horiz-adv-x="632" d="M35 1436h20q4 0 4 -4l7 4q55 -20 55 -54q-4 -43 -8 -43l4 -8q0 -4 -4 -4l4 -8l-4 -16q4 -6 4 -11h-4q0 -4 4 -4l-4 -20v-4l4 -19h-4q0 -4 4 -4l-4 -18l4 -41h-4l4 -6v-21q0 -8 -4 -14q4 -8 4 -13h-4l4 -8l-4 -8l4 -22h-4q0 -4 4 -5q-2 -25 -8 -24q4 -31 8 -31l-4 -18v-56 q0 -12 4 -18l-4 -25v-30l4 -21h-4q0 -2 4 -2q0 -4 -4 -12q4 -47 4 -70q-4 0 -4 -4l8 -4q61 131 61 143q29 59 43 125q16 49 78 203q43 111 43 121q18 33 39 47h8q53 0 64 -25q4 -20 4 -30q-18 -68 -60 -164q4 0 5 -4q-25 -23 -25 -49q-41 -98 -105 -275q-27 -66 -26 -69 q-29 -31 -29 -52q-31 -63 -31 -88l5 -20q-4 0 -5 -4q6 -4 52 -105q86 -184 86 -190q-4 0 -4 -4q27 -49 65 -164q0 -8 51 -129q-4 0 -4 -4q12 0 17 -31q-14 -31 -56 -43q-37 0 -61 39v8q4 0 4 4q-8 2 -64 144q4 8 5 12q-12 16 -91 211l5 6q-18 16 -70 133h-4q0 -18 -4 -39 q4 -8 4 -12h-4l4 -6v-8q0 -4 -4 -5q4 -8 4 -12q0 -27 4 -86l-4 -14q4 -23 4 -33q-4 -39 -4 -45q8 -31 8 -47l-4 -25q8 -76 8 -164q-12 -14 -39 -30h-4q-20 0 -20 8l-9 -4q-27 8 -38 43v4q0 49 -3 121l3 8q-2 6 -3 14h3q-2 8 -7 47l4 25q0 6 -8 27l4 8q0 4 -4 4l4 27v77 q0 20 -4 60h4q-4 10 -8 45l4 8l-4 8q0 8 4 17q-4 33 -4 53l4 24q-4 6 -4 15q0 4 4 4l-4 20v23q0 8 4 16q-4 6 -4 15v16q0 4 4 4l-4 8l4 23q-4 41 -4 63q0 4 4 10q-4 8 -4 17v39l-4 8q8 0 8 6q-4 49 -4 60l4 20q-6 43 -8 53l8 94q-4 8 -4 13h4l-4 6v33l4 18q-8 0 -8 8l8 4 q-8 37 -8 47q0 6 4 7l-4 39v63q0 8 -4 16q0 34 35 54z" />
<glyph unicode="L" horiz-adv-x="542" d="M45 1405l8 -4q4 0 10 4q43 0 58 -43q0 -8 4 -14l-8 -152q4 -6 4 -16l-4 -6l8 -23l-4 -8l4 -8q-8 -14 -8 -31q0 -2 4 -2l-4 -21v-37q0 -16 -6 -49l4 -8l-4 -22q4 -8 4 -13h-4l4 -6v-35q0 -18 -9 -18l5 -19v-34q0 -4 -5 -4l5 -9q0 -8 -5 -55q0 -18 5 -49q-4 -43 -5 -80 l5 -45q-4 -16 -5 -27q8 -59 9 -102l2 -20h-2l6 -41l-6 -27q2 -20 2 -35v-24q0 -10 4 -17q0 -4 -4 -4l4 -18v-4q0 -8 -6 -9q6 -8 10 -98h-4l4 -6v-53l4 -45l264 18l31 -23q0 -16 4 -16q0 -53 -129 -53l-102 -10l-7 4q-39 -8 -65 -8q-74 0 -98 34q0 4 4 11l-13 71h5q0 4 -5 4 q4 45 5 66v6q0 10 -5 16l5 7q-4 20 -9 20l4 18v68q0 8 -6 8l2 8v41q0 41 -6 72q4 20 4 39v6q0 8 -8 39h4l-4 8v23q0 4 4 4q-4 6 -4 10t4 12q-8 29 -8 64v22q0 4 4 5l-4 8l4 6q0 4 -4 4q0 4 4 12l-4 45l4 35l-4 6q8 61 14 387q0 2 4 23l-4 8q0 4 4 10q-4 33 -4 54v4 q0 14 4 34q-4 6 -4 15h4l-6 18q0 51 33 74z" />
<glyph unicode="M" horiz-adv-x="866" d="M598 1462q27 -8 27 -30q8 0 8 -7h-4q8 -16 8 -22h-4l4 -8v-39l10 -27l-2 -18l14 -125h-4l4 -8v-41l-4 -9h4l-8 -28l8 -4l-4 -9v-4l4 -18l-8 -4q8 -18 8 -88v-37q0 -4 -4 -4q0 -4 4 -4l-4 -19v-18l4 -19h-4l4 -8v-102q0 -4 -4 -4l4 -8v-7l-4 -8l9 -4l-5 -26q0 -2 5 -23 q-4 -6 -5 -14q4 -8 5 -13q0 -4 -5 -4l5 -26v-37q0 -4 -5 -4q0 -4 5 -4q-4 -27 -9 -27l4 -8q0 -2 -4 -2l4 -21v-33l5 -26h-5l5 -8v-62q0 -2 -5 -2q2 -10 9 -49h-4l4 -8q2 -70 2 -119v-2l4 -8l-6 -4l2 -8v-105q0 -16 4 -43q0 -23 -33 -33q0 -12 -43 -12h-10q-27 12 -27 57v4 q0 2 4 2l-8 35q8 25 8 72q0 12 -4 72h4l-4 8v80q0 8 -4 14q4 8 4 16v7q0 10 -4 16q4 6 4 14q-4 8 -4 13h4l-4 8q0 2 4 2l-4 8q0 4 4 4q-4 6 -8 35h4q0 2 -4 2l4 39v4q0 6 -8 6l4 21q0 2 -4 22h4q0 4 -4 4l4 19v57q0 8 4 14q0 4 -4 4l4 19v12q0 12 -4 33l4 8q-4 27 -4 41v31 q0 12 -4 12l4 19v110q0 8 -4 14l4 9l-4 22h4l-4 8v7q0 4 4 4l-4 8v8q0 8 4 14q-8 12 -8 23v8q0 4 4 4l-4 6q0 4 4 4l-4 9v59q0 4 4 4l-4 8v37l-2 21h2l-2 6v4q0 4 2 4q-2 6 -2 18h-8q0 -10 -58 -102q-57 -88 -76 -147q-23 -6 -34 -15h-11q-4 0 -4 4l-8 -4h-6q-47 14 -47 35 q-16 16 -144 193q-6 0 -18 30h-4v-4q8 -172 14 -239h-2l2 -7l-2 -8q2 -6 2 -16q0 -2 -2 -2q0 -4 2 -4q-2 -51 -2 -76v-62q0 -4 -4 -4q4 -6 4 -10l-4 -8q4 -6 4 -14v-5q0 -4 -4 -4q0 -4 4 -4q-8 -25 -12 -80q4 -41 8 -49q0 -4 -4 -4q0 -4 4 -10q0 -20 -4 -107q4 -102 8 -120 q-8 -18 -8 -35q4 -6 4 -10h-4q0 -4 4 -5l-4 -16q0 -6 4 -6q-4 -20 -4 -23q0 -51 8 -84q-4 -8 -4 -12l10 -166q0 -23 -32 -35q-4 -10 -31 -10h-12q-33 4 -33 33h4l-4 8v27q0 8 -4 14q4 8 4 16l-4 9q4 6 4 10t-4 31l4 14q-8 8 -12 115h4q-4 6 -4 10q0 6 4 39q0 4 -4 4l4 18v90 q0 8 -4 17q4 6 4 14l-4 17l8 2q-4 8 -8 34l4 9l-4 22h4l-4 8q4 6 4 11q-4 8 -4 12h4l-4 6v12q0 4 4 4l-4 7v47q0 10 4 10l-4 18q0 98 8 195l-4 22q4 6 4 11q-4 8 -4 12t4 4l-4 18v66l-4 18h4q-4 6 -4 11q0 27 -9 84h4q-6 16 -6 61v29q0 10 -4 16q4 6 4 14l-8 13l8 10 q-8 0 -8 8q0 4 4 4l-4 8v3l8 12l-8 4q0 4 4 4l-8 63q20 61 57 62q0 4 11 4h16q35 0 53 -70q10 0 15 -18q8 -2 8 -8q-4 0 -4 -4q31 -31 133 -166q23 -31 45 -58l-4 -6h14q0 20 96 154q92 166 103 176q32 10 55 10z" />
<glyph unicode="N" horiz-adv-x="794" d="M90 1444q242 -231 406 -432q16 -14 16 -23h6l-2 8q0 4 2 4l-2 7v4q0 4 2 4l-2 8v23l-4 22q4 8 4 12l-4 6l4 9l-4 18l4 16q0 4 -4 5l4 24v39q0 8 -4 14q0 4 4 5q-8 59 -16 69q0 2 4 10l-4 19q4 8 4 12l-4 8q4 6 4 15l-8 12q29 68 49 68v-5q14 8 30 9q8 -2 9 -9l8 5 q18 -16 18 -35h-4q8 -18 8 -27l-8 -4l4 -18v-5q0 -8 -4 -14q4 -23 8 -22l-4 -19q0 -10 4 -31q0 -4 -4 -12q4 -39 4 -59v-17q0 -10 4 -10l-4 -20v-82q0 -10 4 -17l-4 -6q4 -8 4 -16l-8 -4q4 -2 8 -64l-4 -16q0 -2 4 -2l-4 -39v-31q0 -4 -4 -4l8 -45q-4 -6 -4 -14v-27 q0 -4 -4 -4q0 -4 4 -4l-4 -19v-4q0 -8 4 -14q-4 -8 -4 -12t4 -4l-4 -15q4 -117 4 -147q-2 -43 -8 -43l4 -6v-66q0 -4 -4 -4l4 -6q4 -84 4 -111h-4l4 -8l-4 -18q4 -20 4 -31h-4l4 -6v-31l4 -22q-4 -8 -4 -13q4 -6 4 -10h-4l4 -8v-4q0 -12 -4 -19l7 -67q-6 -16 -7 -43l4 -8h-4 l4 -7q0 -35 -57 -57q-45 6 -45 18q2 0 2 5q-10 0 -10 8h4l-4 8q8 12 8 29v92l-4 22l4 9q0 2 -4 2l4 20q0 4 -4 10q4 6 4 17l-4 6q0 4 4 4l-4 18q0 12 4 13q-6 137 -12 137l8 72q-4 6 -4 10l8 16q-4 25 -4 41h4l-4 8q0 4 4 4l-4 7v8q0 4 4 4q0 4 -4 4q0 4 4 10q0 29 -8 98 l8 5l-4 8v14l4 8l-8 4q8 18 8 45l-4 27q0 4 4 4q-4 72 -20 72q4 0 4 4l-174 205q-119 139 -144 155l-67 64h-4q0 -18 -5 -45l15 -221h-4l4 -7v-18q0 -4 -4 -4q4 -8 8 -57h-4l4 -9v-4q0 -2 -4 -2q4 -16 8 -16l-4 -19v-34q0 -18 4 -58h-4l4 -6v-53q0 -8 4 -16l-4 -7 q4 -6 4 -16h-4l4 -6v-39q0 -8 4 -14q0 -4 -4 -5l4 -18v-43q0 -14 -4 -41q4 -4 4 -27h-4l4 -8v-41q0 -20 2 -63h-2l2 -8v-50q0 -18 -2 -38q4 -51 6 -60l-4 -8q4 -27 8 -35q0 -4 -4 -4q12 -78 13 -108q0 -61 -31 -76q-4 0 -4 4q-12 -8 -19 -8v4l-8 -4q-41 10 -41 45v12 q0 4 4 4q-4 6 -8 45h4q-14 53 -14 72l2 8q-2 6 -2 10l2 8q-2 6 -2 11l2 8q0 4 -2 4l2 14q-6 35 -6 39h4l-4 8q0 2 4 2l-4 9v8q0 18 4 37l-4 20q0 4 4 10l-8 58q8 0 8 8q-8 0 -8 6q8 12 8 21l-4 14q0 4 4 4l-4 27v59l-4 27h4l-4 8v37l-4 20h4l-4 6q4 8 4 13q0 4 -4 4 q2 31 8 30l-8 23l4 6q-4 8 -4 12l4 9q-8 18 -8 26l4 6q-4 8 -4 17q0 4 4 4l-4 6v31q0 20 -5 65l9 2q-2 8 -9 54h5l-5 8q0 4 5 4l-5 8v45q0 8 -4 14q0 4 4 5q-6 47 -6 94h2q-2 10 -6 45h4l-8 43q2 14 8 14q-4 4 -8 57h4l-4 9q0 10 -4 71q4 31 39 58h2l8 -4q12 6 41 10z" />
<glyph unicode="O" horiz-adv-x="757" d="M289 1432h45q12 -18 112 -35q72 -43 80 -103q12 0 27 -45q27 -35 41 -194h-2l2 -6q0 -4 -2 -5l2 -8l-2 -8q6 0 6 -6q0 -4 -4 -4l4 -19v-30q0 -4 -4 -4l4 -9v-28q0 -35 8 -66q0 -4 -4 -4l4 -18v-41q0 -10 4 -17l-4 -6q0 -4 4 -4l-4 -27v-124q0 -10 4 -17q-4 -27 -8 -26 l4 -19q0 -27 -8 -41q4 -8 4 -16v-4q0 -2 -4 -2q0 -4 4 -4q-2 -45 -8 -46l4 -8q-10 -47 -27 -147h-2q0 -4 2 -4q0 -43 -36 -117q-8 0 -13 -25q-33 -61 -86 -98q-27 -14 -26 -22q-63 -45 -121 -45q-115 18 -115 40q-74 70 -98 142q-35 92 -58 291h5l-19 204h4l-4 9v26 q0 8 -4 15l4 8q0 4 -4 4l4 18v4q0 27 -4 84h4l-4 6q4 8 4 13q-4 6 -4 10h4q0 4 -4 4l8 76l-4 16q0 51 37 215v9q10 0 27 57q45 80 69 117q68 72 131 79zM137 1130l2 -6q-10 0 -37 -168q0 -4 4 -4l-4 -18v-60q0 -43 -4 -110q4 -8 4 -12h-4l4 -7v-57q2 -27 9 -26l-5 -19v-53 q0 -8 5 -17l-5 -6l5 -18h-5q8 -20 9 -27l-4 -8l10 -84h-4q23 -162 35 -182h-5q18 -72 54 -131q47 -57 80 -58q47 0 90 54q35 0 92 147h4q0 4 -4 4q27 164 37 174l-4 8q16 76 16 91v196q0 31 4 72q-4 8 -4 12q4 14 4 27q-4 6 -4 10h4q-4 10 -8 49l4 27q0 20 -12 61h4l-4 8v29 q0 4 4 4l-4 8q0 4 4 13q0 115 -80 256q0 23 -125 34q-61 -20 -98 -88l-35 -63q-6 -1 -29 -62z" />
<glyph unicode="P" horiz-adv-x="557" d="M57 1454h6q12 0 13 -14q4 0 4 4l18 -4q8 0 17 4q96 -14 157 -49q94 -57 129 -178q31 -131 31 -193h-4l4 -8v-31q0 -12 4 -18q-4 -45 -8 -45q0 -4 4 -4q-4 -41 -8 -50q0 -4 4 -4q-8 -49 -14 -49q4 -8 4 -12q-4 -57 -92 -162q-6 0 -37 -35q-12 -2 -58 -37q-49 -16 -92 -16 h-14l-8 4v-4q0 -4 4 -4l-4 -27v-10q0 -8 4 -16q-4 -10 -10 -78q4 -27 4 -43v-76l2 -18h-2l2 -9v-30q0 -2 -2 -2q2 -12 6 -13q-4 -53 -10 -90q0 -4 4 -4q-4 -31 -9 -31l5 -8v-33l4 -26q-23 -29 -62 -35q0 4 -39 18q0 14 -10 31h4q-4 18 -8 19q4 41 8 49q0 4 -4 4l8 69l-4 7 l6 34q-2 6 -2 15h2l-2 8l2 14q0 4 -2 4l2 19v47l-2 22q2 6 2 19v8q0 10 -2 10l6 72q-4 8 -4 12h4q0 4 -4 4q8 35 9 45q-4 8 -5 13h5l-5 6v65q0 18 5 56l-9 4l9 20q0 2 -5 2l5 21v6q0 14 -5 35l5 8l-5 22v5q0 4 5 4q0 2 -5 2l5 16q-4 27 -5 31l5 18h-5q4 6 5 10q0 18 -5 89h5 l-5 8v18q0 4 5 4l-5 6q0 4 5 5q0 4 -5 4q4 70 5 102v66q0 8 -5 14q4 6 5 10q-4 23 -5 31q4 0 5 4q-8 0 -9 8q0 43 -6 109h4l-4 8v4q0 4 4 4l-4 8v29q0 47 31 47h2l8 -4q2 6 8 6zM102 1360l4 -19v-14q0 -12 -4 -12q12 -96 13 -174v-183q0 -31 2 -71q-2 -6 -2 -19l2 -20l-2 -6 q0 -4 2 -4l-2 -27v-12l2 -27h-2l2 -6v-8q0 -4 -2 -4l2 -9v-18q0 -4 -2 -4l2 -6v-80l-2 -8q2 0 2 -4q76 18 76 30q137 78 137 289v37l4 23q-2 6 -8 71h4q-8 25 -8 31h4q-8 12 -9 22h5q-45 199 -91 199q-20 18 -98 33l-27 -4q0 4 -4 4z" />
<glyph unicode="Q" d="M272 1430v-5l9 5h34q2 0 2 -5l9 5q41 -6 61 -35q49 -4 94 -52q63 -123 64 -227q0 -43 4 -76h-4q4 -8 4 -12q0 -12 4 -72l-4 -8q4 -6 4 -14v-16q0 -2 -4 -3l4 -8v-43q0 -8 4 -14q0 -4 -4 -4l4 -19v-4q0 -4 -4 -4q0 -4 4 -4q0 -8 -4 -14q4 -49 4 -80v-14q0 -31 -4 -80 q4 -8 4 -13h-4l4 -6v-20q0 -2 -4 -2l4 -8q-4 -68 -4 -84l4 -9q-4 -6 -4 -14t4 -14l-4 -8q0 -4 4 -5q-8 -111 -14 -143q0 -4 2 -4q-10 -92 -41 -152q-20 -41 -27 -41q76 -162 117 -235l-2 -8q6 0 6 -6v-5q-23 -35 -27 -34h-18q-63 0 -76 61l-80 152q-6 -4 -10 -4v-5h6v-8 l-18 4q-25 -27 -99 -26h-8q-2 0 -2 4q-4 0 -4 -4q-78 0 -164 141q-53 135 -71 223q0 10 -9 31l5 6q-4 18 -11 19q2 16 6 16q-6 14 -6 23h2l-2 8q-8 141 -12 155q0 2 4 2q-4 39 -4 58v49q0 4 4 4l-4 8q0 31 8 135l-4 9q4 18 8 18q0 4 -4 4q10 84 10 115l5 6q-4 0 -5 4 q10 0 27 133q37 147 121 232q61 33 106 41zM98 766q0 -2 4 -2l-4 -21v-59q0 -4 -4 -4l4 -8v-54l-4 -6q8 0 8 -12q0 -80 9 -139q0 -4 -5 -4q33 -217 103 -330q25 -41 67 -57h15q41 0 74 41q-86 147 -97 174q4 47 43 47l4 6q47 -12 56 -33q12 -10 12 -12h-4q20 -35 41 -86h8 q31 143 31 151l-4 7q2 39 8 38l-4 7v53q0 4 4 4l-4 8v8q0 2 4 2q0 4 -4 4l4 21v18q0 8 -4 15l4 8q-4 6 -4 10l4 8q0 4 -4 4l4 19q4 92 4 102q-4 8 -4 13q4 6 4 10l-4 26q0 12 4 27q-4 43 -4 76v35q0 4 4 4l-4 6q-8 127 -8 182q0 4 4 12q-4 8 -8 41h4l-4 9v4q0 4 4 4 q-8 14 -9 22h5q-8 14 -9 23q4 0 4 4q-6 6 -45 113q0 12 -63 22q-27 14 -27 19v4q-43 -12 -80 -41q-68 -80 -88 -187q-29 -120 -45 -356z" />
<glyph unicode="R" horiz-adv-x="686" d="M45 1458q106 0 205 -53v-2l8 2q12 -18 64 -55q70 -104 69 -123q27 -25 55 -201q-4 -6 -4 -10l9 -4q0 -4 -5 -4q4 -37 5 -58v-6q0 -178 -113 -244q0 4 -4 5q0 -12 -84 -50q0 -8 -45 -18v4q-12 -4 -12 -8q92 -115 163 -242q78 -98 193 -289q0 -10 20 -45v-8q0 -4 -4 -4 l4 -6q-10 -25 -61 -25h-4q-35 0 -72 101q-6 0 -45 71q-55 68 -217 326q-39 45 -41 45l-4 -8q4 -25 4 -41q0 -4 -4 -12l4 -23v-41q0 -8 -4 -14l4 -8l-4 -9q4 -6 4 -14q0 -4 -4 -4l4 -8v-10q0 -4 -4 -5q0 -4 4 -4l-4 -18q-4 -127 -4 -186l4 -19q0 -4 -4 -4l12 -88 q-6 -20 -18 -29h-21q0 -12 -6 -12q0 10 -16 12l-9 -4q-29 0 -32 55l4 9q-4 8 -4 12t4 4l-8 41q0 4 4 4l-4 45v58q0 4 4 4l-4 6v4q0 4 4 4l-4 8v10q0 4 4 4q0 4 -4 5l4 26v53l4 23q-4 6 -4 18q0 16 4 17l-4 24v93q0 20 4 53q-4 6 -4 10l4 8l-4 8l4 7q-4 8 -4 12h4l-4 8v102 q0 2 4 2l-4 9l4 8q-4 6 -4 10h4l-4 8v4q0 4 4 4l-4 9v100q0 10 -4 16l4 9q-4 47 -8 51q4 8 4 16l-4 19h4l-9 34l5 7q-4 57 -9 61l4 8q0 4 -4 4q0 4 4 11q-4 57 -6 61l2 6q-4 63 -6 70q4 6 4 10l-8 39h4q-4 6 -4 10l4 8q-4 6 -8 35h4l-4 6v43q10 27 41 37h4zM111 1364 q0 -8 -5 -8l5 -6v-13q0 -4 -5 -4l5 -6v-4q0 -4 -5 -4l5 -8v-37q0 -10 4 -17q-4 -6 -4 -14l4 -22q0 -4 -4 -4l4 -19v-43l2 -18h-2l2 -9q0 -4 -2 -4l2 -6q0 -4 -2 -4l2 -18q0 -76 8 -195q0 -4 -4 -4l4 -18v-45q0 -20 4 -54q-4 -6 -4 -18l4 -8l-4 -9q0 -4 4 -10l-4 -22v-8 q45 0 137 57q55 27 86 102q-4 0 -4 4q12 0 12 68v27q0 27 -8 41l4 8q-35 193 -61 192q-31 96 -117 142z" />
<glyph unicode="S" horiz-adv-x="704" d="M330 1456q4 0 12 -4q6 4 14 4q55 -8 117 -65q31 -33 84 -189q0 -57 -63 -61l-43 30q-10 49 -50 140q-25 61 -90 61q-102 0 -137 -110q-16 -63 -22 -64q0 -4 4 -4l-4 -27v-8l26 -82q39 -78 88 -141q201 -188 201 -205q78 -92 104 -264q0 -14 9 -35q-4 -121 -5 -158 q-6 -43 -10 -43l4 -6q-8 -80 -100 -194q-102 -72 -188 -72v4l-9 -4h-26q-70 12 -113 41q-129 133 -129 225v6q0 4 4 5l-8 26q4 0 23 62q25 27 53 26q35 0 35 -57h-5q4 -8 5 -12l-5 -15q4 -8 5 -12l-5 -6q10 -84 103 -174q20 -27 82 -27h4q4 0 4 -4q59 0 125 72q45 94 45 170 l8 8l-4 8q0 2 4 10l-4 23q0 8 4 16l-4 6q4 16 4 27l-4 8q4 6 4 10q-8 63 -14 70q0 4 4 4q-12 55 -27 86q2 8 2 12l-49 82q0 18 -207 236q-100 98 -106 168q-10 0 -27 94h4l-4 6q0 8 8 25q-8 0 -8 6v16q0 4 4 4l-4 7q0 6 10 12l-2 6q10 51 19 51q0 -4 4 -4q0 8 10 27 q-6 0 -6 6v4q4 0 37 57q76 80 205 80z" />
<glyph unicode="T" horiz-adv-x="847" d="M571 1438q10 0 50 -6q8 2 16 2l33 -37v-23q-10 -35 -60 -35q-8 4 -49 9q-37 -8 -115 -17l-6 4q-8 -4 -12 -4v4l-8 -4h-2l-25 4q-14 -4 -14 -10q6 -29 12 -80l-4 -8q4 -27 4 -45l-4 -8l6 -19q0 -4 -2 -4l2 -18v-19q0 -4 -2 -4q6 -23 6 -49h-4q8 -16 8 -61q0 -8 -4 -15 q4 -6 9 -53q0 -4 -5 -4l5 -27v-34q0 -2 -5 -3l5 -8v-12l-5 -23l5 -6q-4 -20 -5 -34v-15q0 -10 5 -16q-4 -6 -5 -15v-4l5 -18h-5l5 -8v-13q0 -12 -5 -18l5 -22v-19q0 -4 -5 -4q0 -4 5 -4l-9 -90l4 -8q-2 -8 -8 -41l4 -35q0 -2 -4 -49l4 -19l-4 -20l4 -6q-4 -8 -4 -13 q4 -6 4 -10h-4l4 -8v-39q0 -2 -4 -2l4 -8l-4 -8q4 -6 4 -15h-4q0 -4 4 -4l-4 -18q4 -47 4 -49l-4 -9l8 -53q-4 -6 -4 -14q4 -8 4 -13h-4l4 -8v-28q0 -4 -4 -5l4 -8v-12q0 -2 -4 -2l4 -8v-15q-16 -33 -36 -38l-9 4q-8 -4 -12 -4q0 8 -29 12q0 6 -12 18q4 0 4 4q-8 0 -8 6v35 q0 8 -4 15q4 8 4 12t-4 12l4 19q-4 47 -8 53q4 20 4 33v34q0 4 4 5l-4 8v45q0 4 4 4l-4 6v31q0 8 -4 14q4 8 4 16q0 16 -4 41q4 20 4 35q-4 6 -4 11l4 8q0 4 -4 12q4 20 4 29q0 12 -4 26q4 27 4 49v25q2 6 8 6q-4 8 -4 12q0 31 4 80q-4 20 -4 33l4 8q-2 8 -8 41q4 16 4 31 q0 4 -4 12q4 29 8 37q-4 27 -8 27l4 18v35q0 8 -4 14l4 9q-4 8 -4 12l4 14q-4 12 -8 12l4 19q0 45 -6 86l2 8l-6 49h4l-17 107l4 8q-6 35 -14 45q4 6 4 10l-8 4h-12q-12 0 -19 -4q-14 4 -26 4l-19 -4v4l-8 -4h-41q-8 0 -16 -2q-33 4 -49 10l-7 -4q-23 0 -61 43v15 q16 41 63 41h13l4 -7l8 5q27 -8 33 -9q2 8 8 9l10 -9h21q8 0 14 4q4 0 4 -4l19 4q8 0 8 -4l18 4h8q16 0 41 -4l9 4q6 -4 10 -4t4 4l20 -4q10 0 27 9q12 -8 29 -9h20z" />
<glyph unicode="U" horiz-adv-x="698" d="M41 1450q70 0 70 -57v-15l-5 -8q6 -8 11 -57q-6 0 -6 -6q4 -8 4 -13l-4 -8q4 -6 4 -10h-4l4 -8q-4 -27 -9 -27q8 -23 9 -31l-4 -6l10 -30l-4 -9l4 -8l-4 -6q8 -41 8 -43q0 -4 -4 -4q4 -35 8 -45l-4 -23v-14l4 -23l-4 -8l4 -8l-4 -27q0 -4 4 -4l-8 -67q4 -33 4 -58v-49 q0 -12 4 -33q-4 -8 -4 -16l4 -45l-4 -8q4 -6 8 -37q0 -4 -4 -12l8 -45l-4 -9q6 -14 6 -41v-4q0 -4 -2 -4l2 -6q0 -4 -2 -4l2 -18v-13q0 -8 -2 -14q6 -14 10 -57h-4l4 -9q0 -4 -4 -4l4 -6l-4 -26l9 -39l-5 -6l9 -31h-4q8 -16 8 -23h-4q2 -12 14 -53q-4 -8 -4 -16q6 0 24 -56 q10 -33 76 -73h37q78 0 117 198l-2 6q6 14 6 31v17q0 8 -4 14q4 6 4 14v4q0 16 -4 31q0 4 4 12q-4 31 -4 52v24q0 12 4 33q-4 6 -4 16l4 6q-4 6 -4 17l4 6q-4 8 -4 12t4 4l-4 19l4 22q-4 14 -4 31v8q0 2 4 2l-4 8v13q0 4 4 4l-4 6v49q0 16 4 43l-4 6q4 8 4 13q0 4 -4 4l4 18 v31l4 8q-8 0 -8 6q0 4 4 4l-4 19v57q0 4 4 4l-4 8v37q0 4 4 4q-4 8 -4 13q0 12 4 18q-4 20 -4 33v4q0 8 4 16l-4 6q4 43 4 74q0 2 -4 10q4 6 4 15q0 6 -4 47q4 6 4 10q-6 12 -6 23v49q0 16 2 43q-2 6 -2 18q27 41 55 41q53 -16 53 -59q-8 -10 -8 -17q0 -12 4 -18l-4 -27 q0 -10 4 -30q-4 -25 -4 -41q0 -2 4 -23q-4 -8 -4 -12q0 -8 4 -15l-6 -98q2 -14 2 -35h-2q2 -6 2 -10q0 -14 -2 -80l2 -8q-2 -14 -2 -27l2 -22q0 -2 -2 -15q2 -33 2 -53h-2l2 -8v-41q0 -4 -2 -4q0 -4 2 -4q0 -2 -2 -14q0 -4 2 -13q-2 -37 -6 -37l6 -24l-2 -6l2 -21h-2l2 -6 v-57q0 -14 -2 -35q2 -6 2 -14q-2 -39 -2 -45l2 -19q0 -4 -2 -12q6 -88 6 -107h-4l4 -8q0 -2 -4 -2l4 -8q0 -66 -14 -111l4 -6l-16 -47q4 0 4 -2q-4 0 -15 -31q-16 -49 -94 -129q-59 -18 -110 -30q-45 10 -45 12l-9 -4q-6 0 -12 10l-6 -4q-94 53 -111 102q-27 66 -41 150l4 6 q-8 27 -16 98h4l-4 8v31q0 8 -4 14q0 4 4 5l-18 241h4l-4 8q0 4 4 13q-4 39 -8 45q0 4 4 4l-9 102h5l-5 6v25l-4 22q4 4 4 23l-4 6l4 8l-4 9q0 2 4 22l-4 27h4q0 4 -4 4l4 18v41q0 4 5 4l-5 8v35q0 47 -6 68q0 4 2 4l-6 37q4 8 4 12l-12 41l8 4l-8 41l4 21l-4 24l4 27 q-4 35 -4 57q29 33 41 35z" />
<glyph unicode="V" horiz-adv-x="737" d="M61 1423q43 0 72 -71l-8 -13v-4q14 -16 14 -26q0 -2 -2 -2q0 -57 64 -355h-4l12 -51h-4l45 -190h4q0 -4 -4 -11q4 -35 12 -51l-4 -6q8 -18 31 -160q10 -29 33 -110l-5 -6q4 -8 5 -17q0 -4 -5 -4q27 -102 27 -104q-2 0 -2 -4l6 -5h8q0 14 4 15q0 4 -4 4q4 43 11 43l-2 6 l6 57l-4 9q8 23 8 30q-4 6 -4 11q4 14 8 14q0 4 -4 4q6 47 12 47q0 2 -4 2q8 92 10 92q0 4 -2 4q14 115 19 129l-4 7q8 14 14 92q0 2 -2 2q6 43 10 43q0 4 -4 4q4 45 8 45q0 4 -4 4q4 33 8 33q0 4 -4 4q10 104 23 160q-8 0 -9 8q8 0 13 33q0 4 -4 4q4 68 12 67l-4 8 q6 8 10 41q0 4 -4 5q4 39 8 38l-4 9v6q0 4 4 4l-4 8q12 68 35 68h8q66 0 76 -58q-8 0 -8 -6l8 -4q0 -20 -21 -80q4 -8 4 -12q-6 -33 -10 -33q0 -4 4 -4q-8 -31 -8 -72v-12q0 -4 -4 -4l4 -6v-4q-8 -8 -18 -99q2 -8 2 -12l-2 -8l2 -6l-64 -551q0 -2 4 -2q-4 -55 -22 -129 q0 -4 4 -4q-10 -121 -16 -121l4 -8q-8 -12 -9 -23l5 -8q-8 -12 -15 -84q-8 -4 -71 -63l-21 4q-6 -4 -10 -4q-43 0 -58 98h5q-35 109 -76 303h4q-49 186 -66 326l-32 163q-8 53 -23 103h2q-10 35 -10 41h8q-10 10 -16 53q-8 0 -9 18h5l-29 134h-4q4 8 4 12q-8 18 -27 108 q-4 0 -8 13l4 18q-8 0 -8 8v19q16 0 23 14q-4 0 -5 4q6 4 43 8zM348 229v-8q4 -6 4 -14h4v8q-4 6 -4 14h-4z" />
<glyph unicode="W" horiz-adv-x="841" d="M47 1442q55 -2 68 -37q16 0 18 -37q4 0 4 -4l-8 -4q6 -41 6 -94l6 -4l-4 -9q2 -84 10 -116h-4l7 -31q0 -4 -5 -4q6 -100 5 -191l4 -6q0 -4 -4 -4l6 -57h-4q4 -8 4 -10q-2 -84 4 -115l-4 -8q6 -6 10 -86h-4l4 -9l-2 -12q0 -2 -2 -2q2 -8 6 -39q-4 0 -4 -4l8 -4q0 -4 -4 -4 q2 -82 12 -131l-4 -17q2 -43 8 -63l-4 -16q8 -35 6 -72h4l74 244l31 125q4 0 10 14l8 -4h9q0 16 8 16q68 -2 92 -100q12 -18 39 -105q10 -12 61 -153q35 -70 35 -84h8q-4 20 -8 20l4 19l4 121q0 4 4 4q-8 12 -8 18l8 14l-4 9q10 47 10 53q-4 14 -8 14l4 21v26q0 2 4 2l-2 9 v34q0 4 5 4l-5 7q0 4 5 4l-5 26v4q2 27 9 27l-2 8q0 4 4 10q-4 27 -4 41q0 4 4 5l-4 8l6 35l-4 6q0 4 4 4l-4 26l4 27q-2 8 -2 12t4 11l-6 57l4 8q-4 20 -4 33v4q0 4 4 4l-4 8q-2 63 -2 99l2 14q0 4 4 4l-4 8v27q0 4 4 4l-4 6l4 8l-2 19h2l-2 8q-2 86 -6 94q0 4 4 4 q-4 29 -7 39q4 6 5 14q-8 43 -7 62h2q-6 12 -6 18q0 8 9 27q-4 0 -5 4q20 12 21 14l6 -4l12 8l9 -4l6 2q14 0 35 -26q-4 0 -5 -4q4 0 11 -11h-4l4 -8v-35l2 -22q0 -4 -4 -4l6 -64h-4q8 -20 6 -69v-33q0 -8 4 -17q0 -4 -4 -2l2 -26v-43q0 -4 -4 -4l4 -6l-2 -107q-2 -45 6 -61 q0 -4 -4 -4l4 -95q-4 -6 -4 -10q4 -8 4 -16h-4q0 -4 4 -4l-4 -19l-4 -162q0 -4 -4 -4l4 -8l-2 -67q0 -4 -4 -5q0 -4 4 -4l-4 -37l-2 -26q0 -4 -2 -4q0 -4 2 -4q0 -4 -5 -13q2 -82 7 -108l-4 -39v-125h-5l5 -8q-8 -12 -9 -29v-22q-2 -23 2 -62q0 -14 -34 -33q-80 14 -80 52 q-31 31 -187 436h-4q0 -35 -86 -287l4 -8q-41 -113 -41 -135q0 -23 -47 -41q0 6 -37 16q-33 20 -32 57q-4 0 -5 13q0 4 5 4l-17 94q0 4 4 4q0 8 -16 148h4q-2 10 -6 47h4l-8 18q0 4 4 4q-2 59 -14 152l4 8l-11 121h4l-2 8v10q0 51 -10 119q2 2 4 2l-6 66h4l-4 8l2 72l-2 18 h4l-4 8v33l-2 24q0 2 2 3l-6 49q0 4 4 4q-6 72 -4 114l-8 5l4 6l-4 20h4q-2 4 -6 53h4q-8 14 -6 23h2q-10 31 -10 37h4q-10 37 -11 47l21 29z" />
<glyph unicode="X" horiz-adv-x="763" d="M494 1434l45 -27v-2h-9v-4q12 0 13 -19v-16q-29 -61 -58 -170q-6 -2 -26 -84q-49 -152 -99 -321q14 -51 60 -166q49 -182 65 -183q0 -4 -4 -4q31 -127 111 -321l41 -111q-16 -16 -41 -26v4q-4 0 -4 -4q-70 0 -80 83q0 12 -27 76q0 6 -35 86q-68 193 -67 201 q-20 35 -35 98q-27 59 -27 84h-6q0 -47 -114 -477q-12 -51 -23 -63l4 -9q-16 -51 -41 -65l-35 -2q-35 0 -53 33v18l31 80l-4 8q18 39 88 291q33 104 55 240q10 0 23 83q10 31 16 31q-20 41 -43 127q-12 25 -78 201q-43 80 -74 149h-2q0 2 2 2q-63 129 -63 142q8 23 14 22 q8 -4 17 -4q0 8 8 8t14 -4l8 4q45 0 105 -174q72 -127 125 -276q8 -20 8 -27h4l68 228q0 4 12 10l-4 8l76 223l18 17l12 -9z" />
<glyph unicode="Y" horiz-adv-x="724" d="M494 1448l45 -27v-4h-9v-4q12 0 13 -18v-17q-31 -61 -76 -229q-57 -164 -107 -361v-18q0 -10 5 -16q-4 -18 -9 -19l4 -8l-4 -6q4 -8 4 -12t-4 -4q8 -47 9 -99h-5l5 -8v-14q0 -4 -5 -4l5 -9q0 -2 -5 -2q6 -37 7 -102v-16q-6 -37 -7 -41v-129q0 -4 -4 -5l9 -30l-5 -6 q8 -127 15 -129l-4 -9l8 -34h-4l8 -33q-27 -35 -57 -35q0 6 -41 14q-12 25 -13 47h4l-14 95v37q0 10 -4 16q4 6 4 14v8q0 8 -4 15l4 8q-4 12 -8 12l4 19v32q0 57 8 58q0 4 -4 4q4 14 6 94q-2 27 -2 43h2l-2 6q0 4 2 4l-2 19v39q0 33 -8 49q4 8 4 12l-4 19l4 18q-4 20 -4 23 q0 4 4 4l-4 26v62q-16 25 -49 135q-57 156 -141 325q0 8 -7 9q0 4 2 4q-63 127 -63 139q8 23 14 23q8 -4 17 -5q0 8 8 9q8 0 14 -4l8 4q45 0 105 -174q72 -125 125 -277q8 -18 8 -27h4l68 228q0 6 12 12l-4 6l76 223l18 17l12 -8z" />
<glyph unicode="Z" horiz-adv-x="757" d="M147 1446l23 -8q6 4 16 4h4q2 0 3 -4q4 0 4 4q49 -8 120 -8l21 4l6 -4q4 0 4 4q4 0 12 -4l72 8q6 -4 23 -4q4 0 12 4l22 -4h37q16 0 31 -45q0 -41 -57 -215q-14 -27 -27 -76q-8 -10 -55 -168q-14 -14 -31 -103q-25 -61 -31 -63l4 -8q-92 -268 -145 -459v-6q-8 0 -14 -39 q4 0 4 -4q-6 0 -12 -19l4 -8q-10 -18 -23 -53v-6l4 -8q-10 0 -18 -41q4 0 4 -4q-8 -2 -8 -9v-4l4 -6l6 2h53q8 0 17 -2q4 0 4 2l18 -2h4l37 2v-2l8 2q4 0 4 -2l6 2h9q4 0 4 -2l8 2h6q12 0 12 -2l19 2h35q4 0 4 -2l6 2h4q4 0 4 -2l8 2q4 0 4 -2l6 2q4 0 5 -2l8 2h10q4 0 4 -2 l8 2l15 -2l22 2l8 -2l9 2q45 -6 45 -53l-5 -6l5 -8q0 -18 -31 -35v-2q-33 2 -41 6l-8 -4q-6 4 -11 4q-14 -4 -16 -4q-4 0 -4 4l-59 -6l-9 2l-110 -6v4l-6 -4h-54q-8 0 -16 -4q-6 4 -14 4q-12 -4 -15 -4v4l-8 -4h-31l-26 -4v4l-6 -4q-10 0 -17 4l-8 -4q-76 0 -90 40v23 q0 31 27 61l61 129q0 12 78 263q141 406 141 438q10 10 37 106q-2 0 -2 4q10 0 59 162q39 106 39 129h-12l-18 -4v4l-31 -6l-8 2q-6 -2 -11 -2l-8 2l-8 -2q-20 2 -29 2q-41 -6 -53 -6h-31q-4 0 -4 4q-4 0 -4 -4l-18 4q-14 0 -35 -4q-59 10 -59 59q-4 0 -5 5q6 37 31 53 q4 0 10 4z" />
<glyph unicode="[" horiz-adv-x="628" d="M348 1495q39 0 55 -37l-4 -8q18 0 19 -10v-15l-2 -8l-68 -22h-10l-19 4q0 -4 -4 -4l-8 4q-8 0 -14 -4q-16 6 -35 12q0 -4 -16 -8q-27 4 -41 4h-41q-23 0 -56 -8l-8 4l4 -19v-32l4 -27q-4 0 -4 -2q0 -10 4 -16l-4 -15l4 -18l-4 -8q4 0 4 -5q0 -8 -4 -14l4 -6q0 -4 -4 -12 h4q0 -8 -4 -56q0 -8 4 -14q-4 -6 -4 -14v-37q0 -20 -4 -53q4 -8 8 -37q-4 0 -4 -4l4 -6l-4 -9q0 -6 6 -18l-2 -19l15 -274q-4 -6 -4 -10l4 -8q0 -4 -4 -11l4 -26q0 -8 -4 -15q4 -6 4 -14v-8l-4 -6q4 0 4 -4v-27q0 -18 -13 -18v-25h5v14h8v-53l4 -18q-4 0 -4 -11v-12h-13v-6 h13v-10l4 -21q-6 -2 -17 -2v-8l9 4h4q0 -8 4 -14l-4 -8q4 -20 4 -33v-35l-4 -6q4 0 4 -4v-23h-8v-8h8v-2h-8v-37l-4 -26q16 -4 16 -23q0 -2 -4 -10q4 0 4 -4v-11h-8v11h-8q0 -18 12 -19v-4h-8v-14q4 0 4 4q6 0 8 -8q0 -6 -8 -6v6h-4v-4q6 -10 12 -11q0 -8 -4 -14l4 -8l-4 -6 q4 -8 4 -13l-4 -18q4 0 10 -4q4 0 10 4l9 -4l8 4q6 0 8 -6l25 2q6 0 8 -6l24 6l23 -2h14l19 2q0 -2 4 -2q47 2 49 2l-51 -2l6 2q8 0 16 -2q39 2 47 6l4 -6q6 0 6 6q18 0 19 -6q37 -6 37 -25l-2 -6l6 -4q-12 -45 -117 -63l-8 4q-20 -4 37 -4h-35q-8 0 -14 -3q-6 2 -15 3h-18 q-20 0 -64 -3q0 2 -4 3v-3q-18 0 -55 3q-6 0 -6 -7q-8 0 -31 7v-3q-27 2 -29 3q-16 0 -49 61q6 6 13 29q-4 0 -9 10l9 4q0 4 -4 4l4 27v84l-4 18q4 0 4 8q0 12 -4 33l4 6l-4 8q0 4 4 13l-9 170q4 6 5 14q-4 6 -5 10l5 8q-4 0 -5 5v14l5 6h-5q0 4 5 12q-4 6 -5 15v67l-4 19 q4 0 4 10v14l-4 23q4 8 4 10l-4 39l4 24q0 6 -8 41l4 21q-4 31 -4 53v8l4 9q-4 0 -8 24q4 8 4 12l-4 7l4 8q-4 6 -4 14v4l4 8h-4q0 45 -6 93q4 0 4 4q-4 6 -4 14v70l4 26q-4 0 -4 15v14l4 8h-4l4 19v147l-4 27q4 0 4 4h-4q0 4 4 10l-4 22v89q20 27 51 26h49l19 4q0 -4 4 -4 q0 4 4 4h16l9 -4q0 4 4 4h65l8 -4q0 4 4 4h29l8 -4v4q45 -8 78 -8zM106 504v-15h5v15h-5zM123 221q0 -2 4 -2l-4 -18h-4v24h8q0 -4 -4 -4zM111 182q4 -8 4 -18h4v18h-8z" />
<glyph unicode="\" horiz-adv-x="569" d="M45 1458h12q4 0 4 -4l7 4q43 0 57 -69h-4q16 -25 26 -129q23 -70 54 -261q84 -393 143 -610l62 -201l67 -170q-6 0 -18 -26q-6 0 -15 -8q-4 0 -4 4l-8 -4h-4l-6 4q0 -8 -4 -8l-8 4l-9 -4q-33 0 -55 102q-41 76 -70 209q-37 102 -106 379h4q0 4 -86 366q0 4 -4 23q4 0 4 4 q-8 0 -8 8v4q0 4 4 4q-12 35 -41 201q-8 4 -31 109q-8 0 -8 18h4l-4 8q16 39 41 39q0 -4 4 -4v8z" />
<glyph unicode="]" horiz-adv-x="593" d="M154 1503v-4l8 4h28q4 0 5 -4l8 4h67q2 0 2 -4l9 4h18q4 0 4 -4q4 0 4 4l17 -4h49q31 0 51 -26v-89l-4 -22q4 -6 4 -10h-4q0 -4 4 -4l-4 -27v-147l4 -19h-4l4 -8v-14q0 -14 -4 -15l4 -26v-70q0 -8 -4 -14q0 -4 4 -4q-6 -47 -6 -93h-4l4 -8v-4q0 -8 -4 -14l4 -8l-4 -7 q0 -4 4 -12q-4 -25 -8 -24l4 -9v-8q0 -23 -4 -53l4 -21q-8 -35 -8 -41l4 -24l-4 -39q0 -2 4 -10l-4 -23v-14q0 -10 4 -10l-4 -19v-67q0 -8 -5 -15q4 -8 5 -12h-5l5 -6v-14q0 -4 -5 -5l5 -8q0 -4 -5 -10q0 -8 5 -14l-7 -170q2 -8 2 -13l-2 -8l2 -6q-2 -20 -2 -33q0 -8 2 -8 l-2 -18v-84l2 -27q-2 0 -2 -4l7 -4q-4 -10 -7 -10q4 -23 11 -29q-33 -61 -50 -61q-2 0 -28 -3v3q-23 -6 -29 -7q0 6 -8 7q-37 -2 -55 -3v3q-4 0 -4 -3q-43 2 -62 3h-20q-8 0 -15 -3q-6 2 54 3h-33q-14 0 -33 4l-8 -4q-106 18 -119 63l6 4l-2 6q0 18 37 25q0 6 18 6 q0 -6 9 -6l2 6q10 -4 49 -6q6 2 14 2l8 -2l19 2q2 0 -21 -2q4 0 4 2l19 -2h14l23 2l26 -6q0 6 6 6l27 -2q2 6 8 6l6 -4l9 4q6 -4 10 -4q8 4 12 4l-4 18q0 4 4 13l-4 6l4 8q-4 6 -4 14q6 0 10 11v4h-2v-6q-8 0 -8 6q0 8 8 8q0 -4 2 -4v14h-6v4q10 0 10 19h-6v-11h-8v11 q0 4 4 4q-4 8 -4 10q0 18 14 23l-4 26v37h-6v2h6v8h-6v23q0 4 4 4l-4 6v35q0 12 4 33l-4 8q4 6 4 14h2l8 -4v8q-8 0 -14 2l4 21v10h10v6h-10v12q0 10 -4 11l4 18v53h6v-14h4v25q-10 0 -10 18v27q0 4 2 4l-2 6v8q0 8 2 14q-2 6 -2 15l2 26q-2 6 -2 11l2 8q0 4 -2 10l15 274 l-5 19q6 12 7 18l-2 9l2 6q0 4 -2 4q2 29 6 37q-4 33 -4 53v37q0 8 -2 14q2 6 2 14q-2 47 -2 56h2q-2 8 -2 12l2 6q-2 6 -2 14q0 4 2 5l-2 8l2 18l-2 15q2 6 2 16q0 2 -2 2l2 27v32l4 19l-6 -4q-35 8 -56 8h-41q-16 0 -41 -4q-18 4 -18 8q-18 -6 -37 -12q-6 4 -14 4l-9 -4 q-2 0 -2 4l-18 -4h-12l-68 22l-2 8v15q0 10 19 10l-5 8q16 37 56 37q33 0 80 8zM313 504v-15h4v15h-4zM299 225h8v-24h-4l-4 18q4 0 4 2q-4 0 -4 4zM307 182v-18h2q0 10 4 18h-6z" />
<glyph unicode="^" horiz-adv-x="559" d="M147 1524h5q4 0 4 -2l8 2q63 -39 139 -144q51 -70 51 -77q0 -10 8 -19v-27q-16 -20 -32 -28q-4 0 -4 4l-9 -4h-6q-4 0 -4 4l-8 -4q-2 0 -2 4l-8 -4q-10 0 -10 18l-9 -4q-47 86 -110 148q-12 -16 -49 -134q-16 -31 -37 -47l-6 2l-13 -6q-55 6 -55 56v14q31 55 74 174 q10 0 30 59q25 15 43 15z" />
<glyph unicode="_" horiz-adv-x="1067" d="M385 -96h-86l-25 2q0 -2 -8 -2q-4 0 -10 2v-2l-86 6q0 -4 -2 -4q-12 4 -53 8q0 -4 -11 -4l-8 4v-4q-4 0 -10 4q-10 0 -31 -4q-33 23 -32 27q-23 4 -23 40q25 33 68 33q0 -4 2 -4l8 4q8 0 8 -8l6 4q25 0 51 -8l9 4l41 -6q2 0 14 2q51 -2 55 -6v4q4 0 12 -4l33 4l23 -4 q0 4 4 4q6 -4 14 -4h4l19 4q0 -4 4 -4l16 4q45 -4 64 -4q4 0 12 -4q0 4 2 4h63l19 -4q0 4 4 4l6 -4q0 4 25 8q6 -4 12 -4h20q8 0 15 4q6 -4 14 -4h12l25 4q0 -4 4 -4q0 4 14 6l9 -2l8 2q6 -2 14 -2h27l6 -4q0 4 10 6l37 -6q0 4 4 4h45l8 -4q0 4 2 4h46q16 0 28 -8q0 4 21 8 q4 0 10 -4l27 4q14 0 36 -12q0 -4 -4 -4l4 -7q2 0 2 4q20 -12 21 -34q-6 0 -8 -6q0 -31 -37 -37l-86 6q-12 -2 -33 -2h-10l-19 2q0 -2 -4 -2l-18 6q0 -4 -4 -4h-74l-18 4q0 -4 -27 -6l-6 2q-8 -2 -17 -2h-24l-8 2v-2q-8 0 -15 2q-29 -6 -32 -6q-4 0 -13 4l-8 -4l-24 4 q-12 0 -64 -4q-33 4 -41 4q-6 -4 -10 -4l-8 4l-23 -4h-4l-16 4q0 -4 -4 -4z" />
<glyph unicode="`" horiz-adv-x="403" d="M47 1487h27q84 -86 233 -207q14 -29 15 -33q0 -39 -52 -49q0 4 -4 4q0 -8 -8 -8h-6q-23 0 -35 27q-6 0 -98 77q-82 57 -119 119v4q0 29 43 64q0 2 4 2z" />
<glyph unicode="a" horiz-adv-x="708" d="M254 1432q53 -18 53 -66q4 0 41 -98l92 -340q14 -123 23 -123q0 -4 -4 -4q84 -530 110 -625h-4l33 -129q4 0 4 -4v-37l-8 4q0 -10 -41 -22q0 -8 -8 -8q-43 0 -64 143q-31 98 -90 520h-43l-37 -4v4l-8 -4q-4 0 -4 4l-8 -4h-6q-4 0 -4 4q-4 0 -5 -4q-18 4 -83 8 q-2 -106 -11 -106q0 -4 4 -4q-4 -35 -8 -35l4 -6q-25 -137 -30 -150l4 -6q-18 -63 -35 -178h-4l4 -8v-4q0 -4 -4 -5l4 -6l-15 -57q0 -4 5 -4l-5 -19v-8l5 -18q-14 -8 -31 -39q-4 0 -41 -6q-4 0 -4 4l-8 -4h-4q-6 0 -23 26q0 4 4 4l-4 7v4l8 12q0 2 -4 2q4 41 19 96 q-4 6 -5 11h5l-5 8q8 16 17 67q-4 0 -4 4q8 0 8 9l-4 18q12 0 55 295h4q0 4 -4 4q4 27 8 27q0 4 -4 4q8 82 21 151l-4 8q4 18 6 19q0 4 -2 4q0 18 41 330q0 4 -4 4q23 186 45 309q39 10 39 16l6 -4zM262 1206q-16 -115 -20 -116l4 -9q-2 -33 -6 -32q0 -4 2 -5 q-2 -51 -29 -178q0 -4 2 -4q-6 -47 -6 -98h-4l4 -8l-4 -23v-4h37q4 0 4 -4q4 0 4 4l18 -4h27q8 0 16 4q6 -4 15 -4h30l19 4q-45 287 -99 422q-8 55 -14 55z" />
<glyph unicode="b" horiz-adv-x="581" d="M35 1475q70 0 211 -72q31 -16 92 -84q-4 0 -4 -4q33 -51 63 -187q-4 -23 -10 -22q0 -4 4 -4q0 -113 -76 -254q-63 -55 -92 -55v-13q39 0 142 -186q33 -111 41 -152q4 0 4 -2h-4l4 -8v-14q0 -20 10 -62h-2l2 -8q0 -4 -2 -4l2 -6v-23q0 -57 -6 -57q0 -4 4 -4 q-35 -147 -70 -148q-41 -49 -90 -65q-23 -14 -31 -14q0 4 -4 4q-43 -27 -112 -27q0 -4 -5 -4q-66 8 -65 23q-33 12 -41 40v9q2 8 8 8l-8 45l4 8q0 4 -4 4l4 19q0 4 -4 10q0 4 4 4l-4 20l4 25q-4 8 -4 12t4 4q0 4 -4 11q4 41 4 65q0 4 -4 10l4 25v45q0 4 4 4l-4 6v54q0 4 4 4 q0 4 -4 4l4 18l-4 35l8 4l-4 6v8q0 12 4 13l-4 18v23q0 4 4 4l-4 6q0 4 4 4l-8 27q4 27 8 26q-4 49 -8 49l4 21v90q0 8 -4 14q4 8 4 17v63q0 4 4 4l-8 45q4 6 4 17q0 8 -4 14q0 4 4 4l-4 19v16q0 2 4 2l-4 8v53q0 4 4 5l-4 8v14q0 31 4 72l-4 8q4 6 4 14t-4 9q4 33 8 40 q-4 6 -4 17q0 12 4 18l-4 27q4 51 4 63q-4 8 -4 13h4l-4 8v2q0 8 6 8q0 4 -2 4q7 58 23 58zM106 1376q0 -4 -4 -4l4 -8v-14q0 -23 -4 -62q4 -8 4 -12h-4l4 -6v-8l-4 -23q0 -4 4 -4l-4 -18v-39q0 -2 -4 -2l4 -9v-4q0 -4 -4 -4q0 -4 4 -4l-4 -27v-28q0 -16 4 -43q-4 -6 -4 -15 q4 -6 4 -16h-4l4 -6l-4 -47l4 -23q-4 -35 -4 -67v-35q0 -27 13 -29q10 18 86 60q53 33 69 88q23 57 25 120q4 0 8 19q-8 25 -8 31h4q-14 96 -49 151q-37 39 -125 88l-6 -4zM102 739q-4 -8 -4 -12q8 -41 8 -45l-4 -18l9 -50h-5l5 -8q-4 -14 -9 -14q2 -8 9 -43q-4 -23 -9 -23 l4 -8v-14q0 -4 -4 -4q0 -4 4 -4l-8 -90q4 -4 8 -54h-4q4 -8 4 -10l-4 -8l9 -23l-5 -8l5 -8q-4 -18 -9 -19l9 -34q-8 -18 -9 -29l4 -23h-4l4 -8v-12q0 -8 -4 -14q4 -8 13 -58h-4q4 -14 22 -14q31 18 94 33q76 61 76 110q6 0 14 58v32q2 8 9 9q-8 27 -23 120h4l-39 119 q-2 0 -2 4v2q0 4 2 4q-78 156 -157 156q-1 8 -9 8z" />
<glyph unicode="c" horiz-adv-x="632" d="M250 1466h18q158 0 174 -80h-2l2 -8q0 -8 -32 -22v4l-9 -4q-68 23 -94 22l-18 -2v2l-8 -2q-4 0 -5 2q-94 -37 -129 -121q-12 -16 -36 -112l4 -8q-8 -31 -13 -90q0 -4 4 -13l-8 -116l4 -9l-4 -8q0 -12 4 -18q-4 -49 -4 -80v-76q0 -8 4 -14q-4 -6 -4 -17v-14q0 -31 4 -80 l-4 -8l17 -82h-4q6 -20 14 -80l-4 -8q8 -14 8 -23h-4q10 -68 14 -84l-2 -6q23 -123 76 -194q35 -37 53 -37q96 0 180 86q20 4 23 4q49 -6 49 -45q4 0 4 -4v-10l-80 -70q-8 0 -22 -14q-82 -27 -139 -27h-27q-4 0 -4 4l-8 -4q-92 0 -174 201l-27 106q0 4 4 4l-14 64h4l-4 8v8 q0 2 4 2q-4 6 -8 43h4q-4 10 -8 45h4q-14 68 -15 84h2l-6 19q0 4 4 4q-8 39 -8 53h4q0 4 -4 4l4 19v6l-4 20h4l-4 6v39q0 4 4 4l-4 6q0 4 4 5l-8 38q4 33 8 33l-4 8v72q0 4 4 4q-4 8 -4 13l4 6q-4 8 -4 16q0 4 4 4l-4 6q0 279 86 402q29 51 92 84q0 12 68 30z" />
<glyph unicode="d" horiz-adv-x="647" d="M61 1460v-2q2 0 2 2q4 0 13 -2q4 0 30 2q88 0 170 -49q78 -59 111 -174l37 -182q-4 -6 -4 -11l8 -4l-4 -8q12 -90 18 -112l-2 -17q2 -39 11 -59q0 -4 -5 -4q12 -133 17 -133l-4 -27v-68q0 -115 -8 -143l4 -8q-12 -41 -13 -49v-27q0 -4 -2 -4q0 -4 2 -4q-25 -160 -51 -215 q-20 -70 -65 -111q-37 -29 -37 -33q-51 -25 -88 -24v4l-64 -18q-43 8 -43 12l-6 -4h-4q-39 14 -39 49l-4 18l4 15q-4 20 -4 34h4l-4 9v94l-2 45h2q-2 8 -2 12t2 4l-2 19v37q0 14 -4 34q0 4 4 4q-4 8 -8 111h4q-4 18 -8 19l4 18v12q0 8 -4 15q0 4 4 4l-4 18v4q0 10 4 10 q-6 51 -8 62q4 8 4 12l-4 19q4 0 4 4l-9 4l5 14q0 20 -9 80h4q0 4 -4 4q-2 80 -2 121v35l-4 24h4l-4 9v22q0 20 4 35q-4 20 -4 37v43q0 8 -4 14q4 8 4 12l-4 15l4 8q0 4 -4 4l4 18v45l4 23q-4 6 -4 18v5l4 22l-4 8q4 6 4 17q-4 10 -8 10l4 26l-4 23q4 6 4 16q-8 25 -8 33v8 q14 37 61 37zM115 1356q0 -10 2 -17l-2 -26q6 -39 6 -41q-4 0 -4 -4q4 0 4 -4l-6 -4l6 -37q-6 -14 -6 -43v-181q0 -16 -4 -30q4 -14 4 -31v-14q0 -84 6 -123h-4l4 -6q0 -12 -4 -19l8 -76h-4l4 -8v-26l4 -23q0 -4 -4 -4q8 -43 8 -57h-4l4 -9v-86q0 -49 6 -67q-2 -8 -2 -12 q2 -8 2 -11h-2l2 -8v-61l4 -45h-4l4 -9v-41q0 -8 4 -14q-4 -8 -4 -16v-41l4 -19h-4l4 -8q0 -4 -4 -4l9 -53q8 0 26 8q4 0 4 -4q82 0 117 129q35 72 53 330q4 4 4 80v32q0 88 -8 129h4l-22 160h4q-4 29 -12 37l4 20q-39 242 -84 314q-37 49 -105 49q-22 -2 -22 -6z" />
<glyph unicode="e" horiz-adv-x="614" d="M164 1403l2 -8q4 0 4 4l20 -4h78q14 0 35 -4q6 4 14 4l9 -4q8 4 12 4l6 -4q8 4 16 4q18 -8 33 -35q-8 -49 -90 -49l-14 4q-92 4 -119 4v4l-6 -4h-66v-19q0 -4 -4 -4l4 -8v-18q0 -18 -8 -19q8 -20 8 -26h-4q0 -4 4 -4q0 -4 -4 -13q0 -2 4 -22l-4 -35q4 -18 4 -37h-4 q0 -4 4 -4q0 -8 -4 -14q4 -53 4 -92v-23l4 -23q-4 -6 -4 -18q0 -25 8 -53h-4l4 -8q0 -4 -4 -5l4 -6l-4 -26l4 -39h-4q8 -14 9 -31v-10h26q10 0 10 4l19 -4h16q20 0 54 4l6 -4q20 4 34 4q27 0 39 -35q0 -35 -53 -53l-26 4h-58l-26 -4v4l-31 -8q0 8 -6 8l-4 -8v-15 q0 -12 4 -12l-4 -18v-35q0 -8 4 -14q0 -4 -4 -5l4 -14q-4 -98 -4 -133l4 -8l-4 -6l4 -21l-4 -6q4 -20 6 -20l-2 -19v-133q0 -8 2 -14q-2 -6 -2 -15v-39l2 -22v-14q51 -8 151 -9h4q8 0 17 4q6 -4 14 -4h35q12 0 33 4q4 0 4 -4l39 4h49q31 -18 31 -45q-29 -43 -52 -43 q0 -4 -24 -6l-8 2l-17 -2l-22 2q-4 0 -4 -2l-19 2h-4l-22 -2q-6 2 -11 2l-16 -2q-20 2 -29 2l-8 -2q-8 2 -12 2l-33 -2v2l-8 -2h-12q-8 0 -15 2q-6 -2 -14 -2l-17 2q-6 -2 -18 -2v2q-4 0 -4 -2l-19 2h-12q-23 -2 -22 -10l-19 4l-14 -8q-8 4 -21 4v4q0 4 5 4q-8 12 -9 29v129 q0 4 4 4l-4 8v15q0 4 4 4l-4 8v6q0 4 4 4l-4 8v201q0 8 4 14l-4 9q4 6 4 16q0 2 -4 2l4 20v56l-4 39h4l-4 8v6q0 4 4 4l-4 8v160q0 8 -2 14l2 9q0 6 -6 26q0 8 4 15q-8 80 -8 192v39l-4 18h4q0 4 -4 4q0 8 4 9q-4 76 -4 112v76q0 4 4 4l-4 8q0 16 4 37q-4 16 -4 27 q39 39 76 39v-4q8 4 12 4l6 -4q6 4 17 4l14 -4q19 8 39 8z" />
<glyph unicode="f" horiz-adv-x="620" d="M39 1427q12 0 29 -10h38l37 4v-4l9 4h18q27 0 84 4v-4l8 4q207 -6 207 -22q12 -10 16 -25q-4 -6 -4 -10l4 -8q-4 -31 -30 -31v4l-9 -4h-18l-22 4l-9 -4q-33 4 -49 12l-6 -4l-16 4q-20 -4 -31 -4v4l-6 -4h-43q-4 0 -4 -4l-6 4q-35 -4 -43 -4v4l-7 -4q-4 0 -4 4l-39 -8v4 l-14 -6q-8 2 -12 2q-6 -2 -11 -2q0 2 -4 2q-6 -43 -12 -63q4 -8 4 -13q-4 0 -4 -2l8 -4l-4 -8v-31l4 -18h-4l4 -8v-54q0 -8 4 -14q-4 -31 -8 -31q0 -4 4 -10q4 -152 4 -227h4q59 6 68 10l8 -4l15 8q4 0 12 -4l63 8v-4l31 8l8 -4q39 4 60 4q39 -18 39 -47q0 -2 -4 -2l4 -8v-4 q0 -25 -72 -31v4l-8 -4l-27 4q-156 -18 -166 -30l-8 4l-8 -4q-6 4 -10 4v-4l6 -181h-2q6 -16 6 -26h-4l4 -8v-35l4 -19h-4q0 -4 4 -4q0 -4 -4 -10q4 -39 4 -61l-4 -9q4 -6 4 -14q0 -18 -4 -45q4 -20 4 -35q-4 -8 -4 -12l4 -6l-4 -9l4 -14q0 -4 -4 -4l4 -27v-155q0 -8 4 -15 q-4 -8 -4 -12l4 -8q-4 -6 -4 -14q4 -8 4 -13l-27 -14q-18 4 -18 12q-4 0 -4 -4q-39 0 -53 41l4 14q-4 8 -4 13h4l-4 8v49q0 8 -4 14q2 8 8 50q-4 25 -4 49v16q0 4 4 4l-4 6v27q0 12 -4 12l4 19v129l-4 18h4q-4 8 -4 12q0 6 4 7l-4 26v43q0 18 -5 64h5l-9 18l4 8q-4 6 -4 15 q0 4 4 4l-4 20v37q0 86 -6 107q0 4 4 4l-4 18v12q0 25 4 46q-4 18 -4 45v14q0 8 -4 16l4 6q-4 74 -8 74l4 19v49q0 4 4 4l-4 6v8q0 4 4 4l-4 8v11q0 4 4 4l-8 39q0 2 4 2l-4 20v27q0 31 4 72q-4 6 -4 10h4l-4 8q0 63 39 63z" />
<glyph unicode="g" horiz-adv-x="647" d="M309 1436q76 -2 152 -43q0 -6 28 -31q0 -16 5 -23q-12 -27 -39 -24h-17q-10 0 -47 26l-8 -4l-57 15l-7 -4q-4 0 -4 4q-47 0 -108 -66l-35 -59q4 0 4 -4q-8 0 -20 -62q-12 -2 -13 -28q4 0 4 -5q-10 0 -20 -61h-4l2 -18l-4 -15q8 -2 8 -8q-8 0 -8 -10q-2 -92 -12 -92 q2 -6 2 -11l-5 -16q0 -4 5 -4l-5 -19l-4 -151l9 -27h-5l5 -6v-4q-2 -4 -5 -4l3 -8l-5 -8q4 -6 5 -15h-5l5 -8v-37l-5 -8q6 -2 7 -8v-6q0 -4 -5 -4l5 -9v-41q4 -31 12 -106h-4q6 -18 10 -62h-4l4 -8q0 -2 -4 -2q12 -59 12 -78l-4 2q49 -199 133 -200q61 -2 84 47q20 45 31 51 q2 33 14 84q0 4 -4 4l8 45q-6 33 -4 90l4 236h-32q-14 2 -97 -12q-53 8 -63 20q0 -4 -4 -4q0 8 -6 8l4 17l-4 18q10 0 12 18q4 0 4 -4q27 6 82 13v-2q2 10 168 14q0 -4 4 -4q0 4 4 4q29 -25 29 -47q0 -6 -8 -29q4 -8 4 -12h-4l4 -8l-2 -7q0 -4 -2 -4l2 -8q0 -4 -5 -4 q8 -12 9 -22l-2 -35q0 -37 -9 -37l5 -8q0 -4 -5 -4q8 -12 9 -23l-2 -31q0 -45 -9 -45l4 -6q0 -4 -4 -4q10 -18 9 -96q0 -10 -9 -51q0 -4 4 -5q-2 -61 -45 -151q-70 -86 -172 -82q-141 2 -217 190l-12 58q4 0 4 4q-8 0 -8 6q0 4 4 4q-4 10 -10 49q4 0 4 4q-8 0 -8 9v8 q-20 270 -19 317v21q0 8 -2 14q0 4 2 4q-2 72 -8 94q4 6 4 17q0 2 -4 22h4q0 2 -4 4l6 19q0 8 6 98h2q0 4 -2 4q8 55 13 55q0 4 -4 5l4 18l2 53q0 8 4 17l-4 6q39 180 100 252q61 86 180 84z" />
<glyph unicode="h" horiz-adv-x="632" d="M383 1462q0 -6 53 -14q18 -20 19 -70h-4l4 -6v-4q0 -4 -4 -4l4 -8v-49q0 -20 -4 -60l4 -8q-8 -51 -9 -98h-4l4 -8l-4 -37q0 -8 4 -9l-4 -26v-19q0 -43 -2 -110q0 -4 2 -4l-2 -19v-71q0 -8 2 -17q0 -2 -2 -2q4 -88 6 -110q-4 -8 -4 -13l4 -6l-4 -8q0 -4 4 -4l-4 -19v-12 q0 -25 9 -72h-5l5 -6v-39q0 -4 -5 -4q4 -8 9 -41h-4l8 -39q-4 -6 -4 -10t4 -4l-4 -18q0 -14 4 -21l-4 -18q4 -20 4 -31h-4l8 -18l-4 -19q4 -43 8 -49q0 -4 -4 -4l4 -18v-27q0 -4 -4 -4l4 -8v-41q0 -8 2 -17q0 -2 -2 -2l2 -16q0 -8 -2 -41l2 -19q-2 -8 -2 -12q2 -8 2 -10 q-4 0 -18 -25l-9 4l-24 -4q-53 10 -53 54q2 8 2 16l-2 18h2l-2 9v32q0 12 -5 13l5 18v23q0 25 -5 75h5q-4 8 -5 13q0 45 -8 86q4 14 4 30v9q0 8 -4 14q0 4 4 4l-4 18v43q0 4 4 5l-4 6q-4 98 -8 98q0 4 4 4l-6 72h2l-2 8q0 16 6 31q-57 -4 -82 -4h-8l-18 -4v4l-66 -13l-8 4 q-6 -4 -14 -4q-4 0 -13 4l-22 -4h-15l4 -45q0 -4 -4 -4l4 -6v-66q0 -8 5 -14q-4 -8 -5 -12q4 -98 9 -98q-4 -14 -4 -27q0 -51 6 -90h-2l2 -8q0 -8 -2 -15q6 -121 14 -164q0 -4 -4 -4l12 -120q0 -10 -22 -23l-9 4l-26 -4q-31 8 -49 41v27q0 4 4 4q-8 31 -12 92q4 18 4 45 q0 4 -4 10q4 8 4 12q-4 6 -4 11h4l-4 8v18q0 10 4 17q-4 6 -4 14h4q-4 8 -4 12q0 18 -5 64q0 4 5 31q-8 33 -9 36q4 8 4 13q-6 14 -6 30q0 4 2 4q0 4 -2 5l2 14q0 16 -2 86q0 4 2 24l-6 60h4l-4 8v14q0 8 4 17q-4 8 -8 55q8 182 8 252l-4 14q4 10 6 11l-2 26v62q0 4 2 4 l-2 8q0 25 2 45l-6 59q6 0 6 13q-2 6 -2 10h2l-2 8v27q0 18 -8 18l4 21q0 4 -4 10l4 16q-4 39 -8 45q4 18 8 19l-4 8v4q10 0 27 2q76 0 75 -72q0 -14 5 -30h-5l5 -6v-5q0 -4 -5 -4l5 -8q-4 -27 -5 -29l5 -8l-5 -8q4 -6 5 -14q-4 0 -5 -4q10 0 11 -9q0 -4 -11 -10l5 -8 q0 -4 -5 -12q2 -29 9 -29l-4 -20v-78q0 -10 -5 -17q8 -23 9 -30l-9 -4q4 -33 9 -41q-4 -8 -9 -35l5 -6l-5 -9l5 -8l-5 -22q0 -4 5 -4l-5 -19v-31q0 -2 -4 -2l4 -8v-4q0 -4 -4 -4q0 -4 4 -4l-4 -33q0 -39 23 -39q8 4 12 4v-4q31 8 90 17q6 -4 15 -4q8 4 12 4v-4l8 4h33 q49 0 49 18l-2 6v97q0 8 2 14q0 4 -2 4l2 18v23l-2 20h2l-2 7v8q0 14 2 35q0 2 -2 2l2 20v18q0 8 -2 15q2 35 6 35l-4 8q0 2 4 22q0 8 -4 9q8 59 8 147q0 8 -4 29q4 14 4 34v19q0 4 4 4l-4 8q0 27 31 45z" />
<glyph unicode="i" horiz-adv-x="262" d="M61 1409h2q53 -14 54 -45v-12q-6 0 -6 -6q6 -2 6 -9q0 -4 -2 -4q2 -20 2 -30l-2 -27q2 -6 2 -10h-2l2 -9v-4q0 -2 -2 -2l2 -8v-8q0 -12 -2 -18l6 -41h-4q4 -8 4 -13q-6 -12 -6 -18l2 -21h-2q0 -2 2 -2l-2 -20q0 -2 2 -2l-2 -21v-71q0 -4 -4 -4l4 -7q0 -14 6 -133h-4l4 -8 q0 -10 -4 -31q4 -18 4 -22q-4 -27 -4 -45l4 -8q-4 -8 -6 -33l2 -8q0 -4 -2 -4l2 -19v-80q0 -4 -2 -4l2 -8v-10q0 -4 -2 -4l2 -9q0 -2 -2 -2q2 -47 6 -47l-4 -18v-53q-10 -47 -11 -160q0 -4 -4 -10l4 -23v-22q0 -8 -4 -17q4 -4 9 -67l-5 -9q4 -6 5 -14h-5q8 -10 11 -49h-2 l2 -8q0 -4 -2 -4q2 -25 6 -33q-33 -35 -41 -35h-12q-45 14 -45 18q-10 27 -11 43h2q-6 16 -6 60q0 4 4 4q-8 14 -8 31v34q0 2 4 3l-4 8v45q0 12 -4 20q18 193 18 228v28q0 12 -4 21l4 22v53q0 8 -4 15l4 8l-4 37l4 39q-4 14 -4 33h4q0 4 -4 4l4 18v27q0 25 5 57 q-8 41 -11 125q2 6 2 16q-6 18 -6 27h4l-4 6q0 4 4 4q0 4 -4 4l10 162q-4 14 -6 133l2 8q0 4 -2 5q0 53 15 53q14 10 34 10z" />
<glyph unicode="j" horiz-adv-x="653" d="M406 1458q0 -4 40 -31q0 -4 5 -10l-5 -8l5 -23h-5l5 -8q0 -2 -5 -2l5 -16q0 -23 -5 -60q0 -20 9 -73l-4 -6q4 -55 12 -80q-4 -20 -4 -31l4 -27q0 -4 -4 -4l4 -18v-23q0 -4 -4 -4q6 -12 10 -35q-2 -6 -2 -14q0 -6 6 -18l-4 -9q4 -8 4 -10l-6 -4l2 -8v-12q0 -2 -2 -2 q2 -8 2 -13q0 -43 -2 -110q2 -33 2 -41l-2 -27q0 -12 6 -63q-6 -2 -6 -9q6 -2 6 -8q0 -4 -4 -4l4 -6v-20q0 -31 4 -50q-4 -63 -8 -71l4 -15q-4 -43 -4 -75q0 -4 -2 -4l2 -9q0 -4 -2 -4l2 -6v-12q0 -8 -6 -8l4 -7v-8q0 -4 -4 -4l4 -6q-20 -115 -47 -141q-37 -100 -98 -166 q-55 -35 -80 -35v4q-6 -4 -11 -4q-53 10 -92 39q-66 47 -100 170q-23 45 -31 129q4 0 4 4l-8 2q0 4 4 4l-8 66l4 6l-4 8l8 27l-4 8q0 23 49 41q43 -10 62 -31l-4 -18q0 -4 4 -4l-4 -19l4 -22l-4 -9l4 -18l-4 -27q4 -8 4 -12h-4q29 -133 63 -188q0 -23 57 -68q63 49 117 197 q0 43 17 71v4q0 10 -5 11q8 88 11 88l-4 8q4 25 4 41q0 4 -4 4l4 18v72q0 4 4 4q0 4 -4 4l4 23q0 39 -8 76q8 0 8 8q0 6 -8 28l4 25l-4 14l4 9q0 4 -4 4l4 18v27q0 12 -4 18q8 47 8 62q0 12 -8 77h4l-4 9q0 4 4 4l-4 26v41q0 86 -7 107l5 8l-5 14l5 9q-6 6 -9 36h4 q-4 8 -4 13q0 12 4 26l-12 129q18 33 35 33q3 0 23 4z" />
<glyph unicode="k" horiz-adv-x="632" d="M35 1436h20q4 0 4 -4l7 4q55 -20 55 -54q-4 -43 -8 -43l4 -8q0 -4 -4 -4l4 -8l-4 -16q4 -6 4 -11h-4q0 -4 4 -4l-4 -20v-4l4 -19h-4q0 -4 4 -4l-4 -18l4 -41h-4l4 -6v-21q0 -8 -4 -14q4 -8 4 -13h-4l4 -8l-4 -8l4 -22h-4q0 -4 4 -5q-2 -25 -8 -24q4 -31 8 -31l-4 -18v-56 q0 -12 4 -18l-4 -25v-30l4 -21h-4q0 -2 4 -2q0 -4 -4 -12q4 -47 4 -70q-4 0 -4 -4l8 -4q61 131 61 143q29 59 43 125q16 49 78 203q43 111 43 121q18 33 39 47h8q53 0 64 -25q4 -20 4 -30q-18 -68 -60 -164q4 0 5 -4q-25 -23 -25 -49q-41 -98 -105 -275q-27 -66 -26 -69 q-29 -31 -29 -52q-31 -63 -31 -88l5 -20q-4 0 -5 -4q6 -4 52 -105q86 -184 86 -190q-4 0 -4 -4q27 -49 65 -164q0 -8 51 -129q-4 0 -4 -4q12 0 17 -31q-14 -31 -56 -43q-37 0 -61 39v8q4 0 4 4q-8 2 -64 144q4 8 5 12q-12 16 -91 211l5 6q-18 16 -70 133h-4q0 -18 -4 -39 q4 -8 4 -12h-4l4 -6v-8q0 -4 -4 -5q4 -8 4 -12q0 -27 4 -86l-4 -14q4 -23 4 -33q-4 -39 -4 -45q8 -31 8 -47l-4 -25q8 -76 8 -164q-12 -14 -39 -30h-4q-20 0 -20 8l-9 -4q-27 8 -38 43v4q0 49 -3 121l3 8q-2 6 -3 14h3q-2 8 -7 47l4 25q0 6 -8 27l4 8q0 4 -4 4l4 27v77 q0 20 -4 60h4q-4 10 -8 45l4 8l-4 8q0 8 4 17q-4 33 -4 53l4 24q-4 6 -4 15q0 4 4 4l-4 20v23q0 8 4 16q-4 6 -4 15v16q0 4 4 4l-4 8l4 23q-4 41 -4 63q0 4 4 10q-4 8 -4 17v39l-4 8q8 0 8 6q-4 49 -4 60l4 20q-6 43 -8 53l8 94q-4 8 -4 13h4l-4 6v33l4 18q-8 0 -8 8l8 4 q-8 37 -8 47q0 6 4 7l-4 39v63q0 8 -4 16q0 34 35 54z" />
<glyph unicode="l" horiz-adv-x="542" d="M45 1405l8 -4q4 0 10 4q43 0 58 -43q0 -8 4 -14l-8 -152q4 -6 4 -16l-4 -6l8 -23l-4 -8l4 -8q-8 -14 -8 -31q0 -2 4 -2l-4 -21v-37q0 -16 -6 -49l4 -8l-4 -22q4 -8 4 -13h-4l4 -6v-35q0 -18 -9 -18l5 -19v-34q0 -4 -5 -4l5 -9q0 -8 -5 -55q0 -18 5 -49q-4 -43 -5 -80 l5 -45q-4 -16 -5 -27q8 -59 9 -102l2 -20h-2l6 -41l-6 -27q2 -20 2 -35v-24q0 -10 4 -17q0 -4 -4 -4l4 -18v-4q0 -8 -6 -9q6 -8 10 -98h-4l4 -6v-53l4 -45l264 18l31 -23q0 -16 4 -16q0 -53 -129 -53l-102 -10l-7 4q-39 -8 -65 -8q-74 0 -98 34q0 4 4 11l-13 71h5q0 4 -5 4 q4 45 5 66v6q0 10 -5 16l5 7q-4 20 -9 20l4 18v68q0 8 -6 8l2 8v41q0 41 -6 72q4 20 4 39v6q0 8 -8 39h4l-4 8v23q0 4 4 4q-4 6 -4 10t4 12q-8 29 -8 64v22q0 4 4 5l-4 8l4 6q0 4 -4 4q0 4 4 12l-4 45l4 35l-4 6q8 61 14 387q0 2 4 23l-4 8q0 4 4 10q-4 33 -4 54v4 q0 14 4 34q-4 6 -4 15h4l-6 18q0 51 33 74z" />
<glyph unicode="m" horiz-adv-x="866" d="M598 1462q27 -8 27 -30q8 0 8 -7h-4q8 -16 8 -22h-4l4 -8v-39l10 -27l-2 -18l14 -125h-4l4 -8v-41l-4 -9h4l-8 -28l8 -4l-4 -9v-4l4 -18l-8 -4q8 -18 8 -88v-37q0 -4 -4 -4q0 -4 4 -4l-4 -19v-18l4 -19h-4l4 -8v-102q0 -4 -4 -4l4 -8v-7l-4 -8l9 -4l-5 -26q0 -2 5 -23 q-4 -6 -5 -14q4 -8 5 -13q0 -4 -5 -4l5 -26v-37q0 -4 -5 -4q0 -4 5 -4q-4 -27 -9 -27l4 -8q0 -2 -4 -2l4 -21v-33l5 -26h-5l5 -8v-62q0 -2 -5 -2q2 -10 9 -49h-4l4 -8q2 -70 2 -119v-2l4 -8l-6 -4l2 -8v-105q0 -16 4 -43q0 -23 -33 -33q0 -12 -43 -12h-10q-27 12 -27 57v4 q0 2 4 2l-8 35q8 25 8 72q0 12 -4 72h4l-4 8v80q0 8 -4 14q4 8 4 16v7q0 10 -4 16q4 6 4 14q-4 8 -4 13h4l-4 8q0 2 4 2l-4 8q0 4 4 4q-4 6 -8 35h4q0 2 -4 2l4 39v4q0 6 -8 6l4 21q0 2 -4 22h4q0 4 -4 4l4 19v57q0 8 4 14q0 4 -4 4l4 19v12q0 12 -4 33l4 8q-4 27 -4 41v31 q0 12 -4 12l4 19v110q0 8 -4 14l4 9l-4 22h4l-4 8v7q0 4 4 4l-4 8v8q0 8 4 14q-8 12 -8 23v8q0 4 4 4l-4 6q0 4 4 4l-4 9v59q0 4 4 4l-4 8v37l-2 21h2l-2 6v4q0 4 2 4q-2 6 -2 18h-8q0 -10 -58 -102q-57 -88 -76 -147q-23 -6 -34 -15h-11q-4 0 -4 4l-8 -4h-6q-47 14 -47 35 q-16 16 -144 193q-6 0 -18 30h-4v-4q8 -172 14 -239h-2l2 -7l-2 -8q2 -6 2 -16q0 -2 -2 -2q0 -4 2 -4q-2 -51 -2 -76v-62q0 -4 -4 -4q4 -6 4 -10l-4 -8q4 -6 4 -14v-5q0 -4 -4 -4q0 -4 4 -4q-8 -25 -12 -80q4 -41 8 -49q0 -4 -4 -4q0 -4 4 -10q0 -20 -4 -107q4 -102 8 -120 q-8 -18 -8 -35q4 -6 4 -10h-4q0 -4 4 -5l-4 -16q0 -6 4 -6q-4 -20 -4 -23q0 -51 8 -84q-4 -8 -4 -12l10 -166q0 -23 -32 -35q-4 -10 -31 -10h-12q-33 4 -33 33h4l-4 8v27q0 8 -4 14q4 8 4 16l-4 9q4 6 4 10t-4 31l4 14q-8 8 -12 115h4q-4 6 -4 10q0 6 4 39q0 4 -4 4l4 18v90 q0 8 -4 17q4 6 4 14l-4 17l8 2q-4 8 -8 34l4 9l-4 22h4l-4 8q4 6 4 11q-4 8 -4 12h4l-4 6v12q0 4 4 4l-4 7v47q0 10 4 10l-4 18q0 98 8 195l-4 22q4 6 4 11q-4 8 -4 12t4 4l-4 18v66l-4 18h4q-4 6 -4 11q0 27 -9 84h4q-6 16 -6 61v29q0 10 -4 16q4 6 4 14l-8 13l8 10 q-8 0 -8 8q0 4 4 4l-4 8v3l8 12l-8 4q0 4 4 4l-8 63q20 61 57 62q0 4 11 4h16q35 0 53 -70q10 0 15 -18q8 -2 8 -8q-4 0 -4 -4q31 -31 133 -166q23 -31 45 -58l-4 -6h14q0 20 96 154q92 166 103 176q32 10 55 10z" />
<glyph unicode="n" horiz-adv-x="794" d="M90 1444q242 -231 406 -432q16 -14 16 -23h6l-2 8q0 4 2 4l-2 7v4q0 4 2 4l-2 8v23l-4 22q4 8 4 12l-4 6l4 9l-4 18l4 16q0 4 -4 5l4 24v39q0 8 -4 14q0 4 4 5q-8 59 -16 69q0 2 4 10l-4 19q4 8 4 12l-4 8q4 6 4 15l-8 12q29 68 49 68v-5q14 8 30 9q8 -2 9 -9l8 5 q18 -16 18 -35h-4q8 -18 8 -27l-8 -4l4 -18v-5q0 -8 -4 -14q4 -23 8 -22l-4 -19q0 -10 4 -31q0 -4 -4 -12q4 -39 4 -59v-17q0 -10 4 -10l-4 -20v-82q0 -10 4 -17l-4 -6q4 -8 4 -16l-8 -4q4 -2 8 -64l-4 -16q0 -2 4 -2l-4 -39v-31q0 -4 -4 -4l8 -45q-4 -6 -4 -14v-27 q0 -4 -4 -4q0 -4 4 -4l-4 -19v-4q0 -8 4 -14q-4 -8 -4 -12t4 -4l-4 -15q4 -117 4 -147q-2 -43 -8 -43l4 -6v-66q0 -4 -4 -4l4 -6q4 -84 4 -111h-4l4 -8l-4 -18q4 -20 4 -31h-4l4 -6v-31l4 -22q-4 -8 -4 -13q4 -6 4 -10h-4l4 -8v-4q0 -12 -4 -19l7 -67q-6 -16 -7 -43l4 -8h-4 l4 -7q0 -35 -57 -57q-45 6 -45 18q2 0 2 5q-10 0 -10 8h4l-4 8q8 12 8 29v92l-4 22l4 9q0 2 -4 2l4 20q0 4 -4 10q4 6 4 17l-4 6q0 4 4 4l-4 18q0 12 4 13q-6 137 -12 137l8 72q-4 6 -4 10l8 16q-4 25 -4 41h4l-4 8q0 4 4 4l-4 7v8q0 4 4 4q0 4 -4 4q0 4 4 10q0 29 -8 98 l8 5l-4 8v14l4 8l-8 4q8 18 8 45l-4 27q0 4 4 4q-4 72 -20 72q4 0 4 4l-174 205q-119 139 -144 155l-67 64h-4q0 -18 -5 -45l15 -221h-4l4 -7v-18q0 -4 -4 -4q4 -8 8 -57h-4l4 -9v-4q0 -2 -4 -2q4 -16 8 -16l-4 -19v-34q0 -18 4 -58h-4l4 -6v-53q0 -8 4 -16l-4 -7 q4 -6 4 -16h-4l4 -6v-39q0 -8 4 -14q0 -4 -4 -5l4 -18v-43q0 -14 -4 -41q4 -4 4 -27h-4l4 -8v-41q0 -20 2 -63h-2l2 -8v-50q0 -18 -2 -38q4 -51 6 -60l-4 -8q4 -27 8 -35q0 -4 -4 -4q12 -78 13 -108q0 -61 -31 -76q-4 0 -4 4q-12 -8 -19 -8v4l-8 -4q-41 10 -41 45v12 q0 4 4 4q-4 6 -8 45h4q-14 53 -14 72l2 8q-2 6 -2 10l2 8q-2 6 -2 11l2 8q0 4 -2 4l2 14q-6 35 -6 39h4l-4 8q0 2 4 2l-4 9v8q0 18 4 37l-4 20q0 4 4 10l-8 58q8 0 8 8q-8 0 -8 6q8 12 8 21l-4 14q0 4 4 4l-4 27v59l-4 27h4l-4 8v37l-4 20h4l-4 6q4 8 4 13q0 4 -4 4 q2 31 8 30l-8 23l4 6q-4 8 -4 12l4 9q-8 18 -8 26l4 6q-4 8 -4 17q0 4 4 4l-4 6v31q0 20 -5 65l9 2q-2 8 -9 54h5l-5 8q0 4 5 4l-5 8v45q0 8 -4 14q0 4 4 5q-6 47 -6 94h2q-2 10 -6 45h4l-8 43q2 14 8 14q-4 4 -8 57h4l-4 9q0 10 -4 71q4 31 39 58h2l8 -4q12 6 41 10z" />
<glyph unicode="o" horiz-adv-x="757" d="M289 1432h45q12 -18 112 -35q72 -43 80 -103q12 0 27 -45q27 -35 41 -194h-2l2 -6q0 -4 -2 -5l2 -8l-2 -8q6 0 6 -6q0 -4 -4 -4l4 -19v-30q0 -4 -4 -4l4 -9v-28q0 -35 8 -66q0 -4 -4 -4l4 -18v-41q0 -10 4 -17l-4 -6q0 -4 4 -4l-4 -27v-124q0 -10 4 -17q-4 -27 -8 -26 l4 -19q0 -27 -8 -41q4 -8 4 -16v-4q0 -2 -4 -2q0 -4 4 -4q-2 -45 -8 -46l4 -8q-10 -47 -27 -147h-2q0 -4 2 -4q0 -43 -36 -117q-8 0 -13 -25q-33 -61 -86 -98q-27 -14 -26 -22q-63 -45 -121 -45q-115 18 -115 40q-74 70 -98 142q-35 92 -58 291h5l-19 204h4l-4 9v26 q0 8 -4 15l4 8q0 4 -4 4l4 18v4q0 27 -4 84h4l-4 6q4 8 4 13q-4 6 -4 10h4q0 4 -4 4l8 76l-4 16q0 51 37 215v9q10 0 27 57q45 80 69 117q68 72 131 79zM137 1130l2 -6q-10 0 -37 -168q0 -4 4 -4l-4 -18v-60q0 -43 -4 -110q4 -8 4 -12h-4l4 -7v-57q2 -27 9 -26l-5 -19v-53 q0 -8 5 -17l-5 -6l5 -18h-5q8 -20 9 -27l-4 -8l10 -84h-4q23 -162 35 -182h-5q18 -72 54 -131q47 -57 80 -58q47 0 90 54q35 0 92 147h4q0 4 -4 4q27 164 37 174l-4 8q16 76 16 91v196q0 31 4 72q-4 8 -4 12q4 14 4 27q-4 6 -4 10h4q-4 10 -8 49l4 27q0 20 -12 61h4l-4 8v29 q0 4 4 4l-4 8q0 4 4 13q0 115 -80 256q0 23 -125 34q-61 -20 -98 -88l-35 -63q-6 -1 -29 -62z" />
<glyph unicode="p" horiz-adv-x="557" d="M57 1454h6q12 0 13 -14q4 0 4 4l18 -4q8 0 17 4q96 -14 157 -49q94 -57 129 -178q31 -131 31 -193h-4l4 -8v-31q0 -12 4 -18q-4 -45 -8 -45q0 -4 4 -4q-4 -41 -8 -50q0 -4 4 -4q-8 -49 -14 -49q4 -8 4 -12q-4 -57 -92 -162q-6 0 -37 -35q-12 -2 -58 -37q-49 -16 -92 -16 h-14l-8 4v-4q0 -4 4 -4l-4 -27v-10q0 -8 4 -16q-4 -10 -10 -78q4 -27 4 -43v-76l2 -18h-2l2 -9v-30q0 -2 -2 -2q2 -12 6 -13q-4 -53 -10 -90q0 -4 4 -4q-4 -31 -9 -31l5 -8v-33l4 -26q-23 -29 -62 -35q0 4 -39 18q0 14 -10 31h4q-4 18 -8 19q4 41 8 49q0 4 -4 4l8 69l-4 7 l6 34q-2 6 -2 15h2l-2 8l2 14q0 4 -2 4l2 19v47l-2 22q2 6 2 19v8q0 10 -2 10l6 72q-4 8 -4 12h4q0 4 -4 4q8 35 9 45q-4 8 -5 13h5l-5 6v65q0 18 5 56l-9 4l9 20q0 2 -5 2l5 21v6q0 14 -5 35l5 8l-5 22v5q0 4 5 4q0 2 -5 2l5 16q-4 27 -5 31l5 18h-5q4 6 5 10q0 18 -5 89h5 l-5 8v18q0 4 5 4l-5 6q0 4 5 5q0 4 -5 4q4 70 5 102v66q0 8 -5 14q4 6 5 10q-4 23 -5 31q4 0 5 4q-8 0 -9 8q0 43 -6 109h4l-4 8v4q0 4 4 4l-4 8v29q0 47 31 47h2l8 -4q2 6 8 6zM102 1360l4 -19v-14q0 -12 -4 -12q12 -96 13 -174v-183q0 -31 2 -71q-2 -6 -2 -19l2 -20l-2 -6 q0 -4 2 -4l-2 -27v-12l2 -27h-2l2 -6v-8q0 -4 -2 -4l2 -9v-18q0 -4 -2 -4l2 -6v-80l-2 -8q2 0 2 -4q76 18 76 30q137 78 137 289v37l4 23q-2 6 -8 71h4q-8 25 -8 31h4q-8 12 -9 22h5q-45 199 -91 199q-20 18 -98 33l-27 -4q0 4 -4 4z" />
<glyph unicode="q" d="M272 1430v-5l9 5h34q2 0 2 -5l9 5q41 -6 61 -35q49 -4 94 -52q63 -123 64 -227q0 -43 4 -76h-4q4 -8 4 -12q0 -12 4 -72l-4 -8q4 -6 4 -14v-16q0 -2 -4 -3l4 -8v-43q0 -8 4 -14q0 -4 -4 -4l4 -19v-4q0 -4 -4 -4q0 -4 4 -4q0 -8 -4 -14q4 -49 4 -80v-14q0 -31 -4 -80 q4 -8 4 -13h-4l4 -6v-20q0 -2 -4 -2l4 -8q-4 -68 -4 -84l4 -9q-4 -6 -4 -14t4 -14l-4 -8q0 -4 4 -5q-8 -111 -14 -143q0 -4 2 -4q-10 -92 -41 -152q-20 -41 -27 -41q76 -162 117 -235l-2 -8q6 0 6 -6v-5q-23 -35 -27 -34h-18q-63 0 -76 61l-80 152q-6 -4 -10 -4v-5h6v-8 l-18 4q-25 -27 -99 -26h-8q-2 0 -2 4q-4 0 -4 -4q-78 0 -164 141q-53 135 -71 223q0 10 -9 31l5 6q-4 18 -11 19q2 16 6 16q-6 14 -6 23h2l-2 8q-8 141 -12 155q0 2 4 2q-4 39 -4 58v49q0 4 4 4l-4 8q0 31 8 135l-4 9q4 18 8 18q0 4 -4 4q10 84 10 115l5 6q-4 0 -5 4 q10 0 27 133q37 147 121 232q61 33 106 41zM98 766q0 -2 4 -2l-4 -21v-59q0 -4 -4 -4l4 -8v-54l-4 -6q8 0 8 -12q0 -80 9 -139q0 -4 -5 -4q33 -217 103 -330q25 -41 67 -57h15q41 0 74 41q-86 147 -97 174q4 47 43 47l4 6q47 -12 56 -33q12 -10 12 -12h-4q20 -35 41 -86h8 q31 143 31 151l-4 7q2 39 8 38l-4 7v53q0 4 4 4l-4 8v8q0 2 4 2q0 4 -4 4l4 21v18q0 8 -4 15l4 8q-4 6 -4 10l4 8q0 4 -4 4l4 19q4 92 4 102q-4 8 -4 13q4 6 4 10l-4 26q0 12 4 27q-4 43 -4 76v35q0 4 4 4l-4 6q-8 127 -8 182q0 4 4 12q-4 8 -8 41h4l-4 9v4q0 4 4 4 q-8 14 -9 22h5q-8 14 -9 23q4 0 4 4q-6 6 -45 113q0 12 -63 22q-27 14 -27 19v4q-43 -12 -80 -41q-68 -80 -88 -187q-29 -120 -45 -356z" />
<glyph unicode="r" horiz-adv-x="686" d="M45 1458q106 0 205 -53v-2l8 2q12 -18 64 -55q70 -104 69 -123q27 -25 55 -201q-4 -6 -4 -10l9 -4q0 -4 -5 -4q4 -37 5 -58v-6q0 -178 -113 -244q0 4 -4 5q0 -12 -84 -50q0 -8 -45 -18v4q-12 -4 -12 -8q92 -115 163 -242q78 -98 193 -289q0 -10 20 -45v-8q0 -4 -4 -4 l4 -6q-10 -25 -61 -25h-4q-35 0 -72 101q-6 0 -45 71q-55 68 -217 326q-39 45 -41 45l-4 -8q4 -25 4 -41q0 -4 -4 -12l4 -23v-41q0 -8 -4 -14l4 -8l-4 -9q4 -6 4 -14q0 -4 -4 -4l4 -8v-10q0 -4 -4 -5q0 -4 4 -4l-4 -18q-4 -127 -4 -186l4 -19q0 -4 -4 -4l12 -88 q-6 -20 -18 -29h-21q0 -12 -6 -12q0 10 -16 12l-9 -4q-29 0 -32 55l4 9q-4 8 -4 12t4 4l-8 41q0 4 4 4l-4 45v58q0 4 4 4l-4 6v4q0 4 4 4l-4 8v10q0 4 4 4q0 4 -4 5l4 26v53l4 23q-4 6 -4 18q0 16 4 17l-4 24v93q0 20 4 53q-4 6 -4 10l4 8l-4 8l4 7q-4 8 -4 12h4l-4 8v102 q0 2 4 2l-4 9l4 8q-4 6 -4 10h4l-4 8v4q0 4 4 4l-4 9v100q0 10 -4 16l4 9q-4 47 -8 51q4 8 4 16l-4 19h4l-9 34l5 7q-4 57 -9 61l4 8q0 4 -4 4q0 4 4 11q-4 57 -6 61l2 6q-4 63 -6 70q4 6 4 10l-8 39h4q-4 6 -4 10l4 8q-4 6 -8 35h4l-4 6v43q10 27 41 37h4zM111 1364 q0 -8 -5 -8l5 -6v-13q0 -4 -5 -4l5 -6v-4q0 -4 -5 -4l5 -8v-37q0 -10 4 -17q-4 -6 -4 -14l4 -22q0 -4 -4 -4l4 -19v-43l2 -18h-2l2 -9q0 -4 -2 -4l2 -6q0 -4 -2 -4l2 -18q0 -76 8 -195q0 -4 -4 -4l4 -18v-45q0 -20 4 -54q-4 -6 -4 -18l4 -8l-4 -9q0 -4 4 -10l-4 -22v-8 q45 0 137 57q55 27 86 102q-4 0 -4 4q12 0 12 68v27q0 27 -8 41l4 8q-35 193 -61 192q-31 96 -117 142z" />
<glyph unicode="s" horiz-adv-x="704" d="M330 1456q4 0 12 -4q6 4 14 4q55 -8 117 -65q31 -33 84 -189q0 -57 -63 -61l-43 30q-10 49 -50 140q-25 61 -90 61q-102 0 -137 -110q-16 -63 -22 -64q0 -4 4 -4l-4 -27v-8l26 -82q39 -78 88 -141q201 -188 201 -205q78 -92 104 -264q0 -14 9 -35q-4 -121 -5 -158 q-6 -43 -10 -43l4 -6q-8 -80 -100 -194q-102 -72 -188 -72v4l-9 -4h-26q-70 12 -113 41q-129 133 -129 225v6q0 4 4 5l-8 26q4 0 23 62q25 27 53 26q35 0 35 -57h-5q4 -8 5 -12l-5 -15q4 -8 5 -12l-5 -6q10 -84 103 -174q20 -27 82 -27h4q4 0 4 -4q59 0 125 72q45 94 45 170 l8 8l-4 8q0 2 4 10l-4 23q0 8 4 16l-4 6q4 16 4 27l-4 8q4 6 4 10q-8 63 -14 70q0 4 4 4q-12 55 -27 86q2 8 2 12l-49 82q0 18 -207 236q-100 98 -106 168q-10 0 -27 94h4l-4 6q0 8 8 25q-8 0 -8 6v16q0 4 4 4l-4 7q0 6 10 12l-2 6q10 51 19 51q0 -4 4 -4q0 8 10 27 q-6 0 -6 6v4q4 0 37 57q76 80 205 80z" />
<glyph unicode="t" horiz-adv-x="847" d="M571 1438q10 0 50 -6q8 2 16 2l33 -37v-23q-10 -35 -60 -35q-8 4 -49 9q-37 -8 -115 -17l-6 4q-8 -4 -12 -4v4l-8 -4h-2l-25 4q-14 -4 -14 -10q6 -29 12 -80l-4 -8q4 -27 4 -45l-4 -8l6 -19q0 -4 -2 -4l2 -18v-19q0 -4 -2 -4q6 -23 6 -49h-4q8 -16 8 -61q0 -8 -4 -15 q4 -6 9 -53q0 -4 -5 -4l5 -27v-34q0 -2 -5 -3l5 -8v-12l-5 -23l5 -6q-4 -20 -5 -34v-15q0 -10 5 -16q-4 -6 -5 -15v-4l5 -18h-5l5 -8v-13q0 -12 -5 -18l5 -22v-19q0 -4 -5 -4q0 -4 5 -4l-9 -90l4 -8q-2 -8 -8 -41l4 -35q0 -2 -4 -49l4 -19l-4 -20l4 -6q-4 -8 -4 -13 q4 -6 4 -10h-4l4 -8v-39q0 -2 -4 -2l4 -8l-4 -8q4 -6 4 -15h-4q0 -4 4 -4l-4 -18q4 -47 4 -49l-4 -9l8 -53q-4 -6 -4 -14q4 -8 4 -13h-4l4 -8v-28q0 -4 -4 -5l4 -8v-12q0 -2 -4 -2l4 -8v-15q-16 -33 -36 -38l-9 4q-8 -4 -12 -4q0 8 -29 12q0 6 -12 18q4 0 4 4q-8 0 -8 6v35 q0 8 -4 15q4 8 4 12t-4 12l4 19q-4 47 -8 53q4 20 4 33v34q0 4 4 5l-4 8v45q0 4 4 4l-4 6v31q0 8 -4 14q4 8 4 16q0 16 -4 41q4 20 4 35q-4 6 -4 11l4 8q0 4 -4 12q4 20 4 29q0 12 -4 26q4 27 4 49v25q2 6 8 6q-4 8 -4 12q0 31 4 80q-4 20 -4 33l4 8q-2 8 -8 41q4 16 4 31 q0 4 -4 12q4 29 8 37q-4 27 -8 27l4 18v35q0 8 -4 14l4 9q-4 8 -4 12l4 14q-4 12 -8 12l4 19q0 45 -6 86l2 8l-6 49h4l-17 107l4 8q-6 35 -14 45q4 6 4 10l-8 4h-12q-12 0 -19 -4q-14 4 -26 4l-19 -4v4l-8 -4h-41q-8 0 -16 -2q-33 4 -49 10l-7 -4q-23 0 -61 43v15 q16 41 63 41h13l4 -7l8 5q27 -8 33 -9q2 8 8 9l10 -9h21q8 0 14 4q4 0 4 -4l19 4q8 0 8 -4l18 4h8q16 0 41 -4l9 4q6 -4 10 -4t4 4l20 -4q10 0 27 9q12 -8 29 -9h20z" />
<glyph unicode="u" horiz-adv-x="698" d="M41 1450q70 0 70 -57v-15l-5 -8q6 -8 11 -57q-6 0 -6 -6q4 -8 4 -13l-4 -8q4 -6 4 -10h-4l4 -8q-4 -27 -9 -27q8 -23 9 -31l-4 -6l10 -30l-4 -9l4 -8l-4 -6q8 -41 8 -43q0 -4 -4 -4q4 -35 8 -45l-4 -23v-14l4 -23l-4 -8l4 -8l-4 -27q0 -4 4 -4l-8 -67q4 -33 4 -58v-49 q0 -12 4 -33q-4 -8 -4 -16l4 -45l-4 -8q4 -6 8 -37q0 -4 -4 -12l8 -45l-4 -9q6 -14 6 -41v-4q0 -4 -2 -4l2 -6q0 -4 -2 -4l2 -18v-13q0 -8 -2 -14q6 -14 10 -57h-4l4 -9q0 -4 -4 -4l4 -6l-4 -26l9 -39l-5 -6l9 -31h-4q8 -16 8 -23h-4q2 -12 14 -53q-4 -8 -4 -16q6 0 24 -56 q10 -33 76 -73h37q78 0 117 198l-2 6q6 14 6 31v17q0 8 -4 14q4 6 4 14v4q0 16 -4 31q0 4 4 12q-4 31 -4 52v24q0 12 4 33q-4 6 -4 16l4 6q-4 6 -4 17l4 6q-4 8 -4 12t4 4l-4 19l4 22q-4 14 -4 31v8q0 2 4 2l-4 8v13q0 4 4 4l-4 6v49q0 16 4 43l-4 6q4 8 4 13q0 4 -4 4l4 18 v31l4 8q-8 0 -8 6q0 4 4 4l-4 19v57q0 4 4 4l-4 8v37q0 4 4 4q-4 8 -4 13q0 12 4 18q-4 20 -4 33v4q0 8 4 16l-4 6q4 43 4 74q0 2 -4 10q4 6 4 15q0 6 -4 47q4 6 4 10q-6 12 -6 23v49q0 16 2 43q-2 6 -2 18q27 41 55 41q53 -16 53 -59q-8 -10 -8 -17q0 -12 4 -18l-4 -27 q0 -10 4 -30q-4 -25 -4 -41q0 -2 4 -23q-4 -8 -4 -12q0 -8 4 -15l-6 -98q2 -14 2 -35h-2q2 -6 2 -10q0 -14 -2 -80l2 -8q-2 -14 -2 -27l2 -22q0 -2 -2 -15q2 -33 2 -53h-2l2 -8v-41q0 -4 -2 -4q0 -4 2 -4q0 -2 -2 -14q0 -4 2 -13q-2 -37 -6 -37l6 -24l-2 -6l2 -21h-2l2 -6 v-57q0 -14 -2 -35q2 -6 2 -14q-2 -39 -2 -45l2 -19q0 -4 -2 -12q6 -88 6 -107h-4l4 -8q0 -2 -4 -2l4 -8q0 -66 -14 -111l4 -6l-16 -47q4 0 4 -2q-4 0 -15 -31q-16 -49 -94 -129q-59 -18 -110 -30q-45 10 -45 12l-9 -4q-6 0 -12 10l-6 -4q-94 53 -111 102q-27 66 -41 150l4 6 q-8 27 -16 98h4l-4 8v31q0 8 -4 14q0 4 4 5l-18 241h4l-4 8q0 4 4 13q-4 39 -8 45q0 4 4 4l-9 102h5l-5 6v25l-4 22q4 4 4 23l-4 6l4 8l-4 9q0 2 4 22l-4 27h4q0 4 -4 4l4 18v41q0 4 5 4l-5 8v35q0 47 -6 68q0 4 2 4l-6 37q4 8 4 12l-12 41l8 4l-8 41l4 21l-4 24l4 27 q-4 35 -4 57q29 33 41 35z" />
<glyph unicode="v" horiz-adv-x="737" d="M61 1423q43 0 72 -71l-8 -13v-4q14 -16 14 -26q0 -2 -2 -2q0 -57 64 -355h-4l12 -51h-4l45 -190h4q0 -4 -4 -11q4 -35 12 -51l-4 -6q8 -18 31 -160q10 -29 33 -110l-5 -6q4 -8 5 -17q0 -4 -5 -4q27 -102 27 -104q-2 0 -2 -4l6 -5h8q0 14 4 15q0 4 -4 4q4 43 11 43l-2 6 l6 57l-4 9q8 23 8 30q-4 6 -4 11q4 14 8 14q0 4 -4 4q6 47 12 47q0 2 -4 2q8 92 10 92q0 4 -2 4q14 115 19 129l-4 7q8 14 14 92q0 2 -2 2q6 43 10 43q0 4 -4 4q4 45 8 45q0 4 -4 4q4 33 8 33q0 4 -4 4q10 104 23 160q-8 0 -9 8q8 0 13 33q0 4 -4 4q4 68 12 67l-4 8 q6 8 10 41q0 4 -4 5q4 39 8 38l-4 9v6q0 4 4 4l-4 8q12 68 35 68h8q66 0 76 -58q-8 0 -8 -6l8 -4q0 -20 -21 -80q4 -8 4 -12q-6 -33 -10 -33q0 -4 4 -4q-8 -31 -8 -72v-12q0 -4 -4 -4l4 -6v-4q-8 -8 -18 -99q2 -8 2 -12l-2 -8l2 -6l-64 -551q0 -2 4 -2q-4 -55 -22 -129 q0 -4 4 -4q-10 -121 -16 -121l4 -8q-8 -12 -9 -23l5 -8q-8 -12 -15 -84q-8 -4 -71 -63l-21 4q-6 -4 -10 -4q-43 0 -58 98h5q-35 109 -76 303h4q-49 186 -66 326l-32 163q-8 53 -23 103h2q-10 35 -10 41h8q-10 10 -16 53q-8 0 -9 18h5l-29 134h-4q4 8 4 12q-8 18 -27 108 q-4 0 -8 13l4 18q-8 0 -8 8v19q16 0 23 14q-4 0 -5 4q6 4 43 8zM348 229v-8q4 -6 4 -14h4v8q-4 6 -4 14h-4z" />
<glyph unicode="w" horiz-adv-x="841" d="M47 1442q55 -2 68 -37q16 0 18 -37q4 0 4 -4l-8 -4q6 -41 6 -94l6 -4l-4 -9q2 -84 10 -116h-4l7 -31q0 -4 -5 -4q6 -100 5 -191l4 -6q0 -4 -4 -4l6 -57h-4q4 -8 4 -10q-2 -84 4 -115l-4 -8q6 -6 10 -86h-4l4 -9l-2 -12q0 -2 -2 -2q2 -8 6 -39q-4 0 -4 -4l8 -4q0 -4 -4 -4 q2 -82 12 -131l-4 -17q2 -43 8 -63l-4 -16q8 -35 6 -72h4l74 244l31 125q4 0 10 14l8 -4h9q0 16 8 16q68 -2 92 -100q12 -18 39 -105q10 -12 61 -153q35 -70 35 -84h8q-4 20 -8 20l4 19l4 121q0 4 4 4q-8 12 -8 18l8 14l-4 9q10 47 10 53q-4 14 -8 14l4 21v26q0 2 4 2l-2 9 v34q0 4 5 4l-5 7q0 4 5 4l-5 26v4q2 27 9 27l-2 8q0 4 4 10q-4 27 -4 41q0 4 4 5l-4 8l6 35l-4 6q0 4 4 4l-4 26l4 27q-2 8 -2 12t4 11l-6 57l4 8q-4 20 -4 33v4q0 4 4 4l-4 8q-2 63 -2 99l2 14q0 4 4 4l-4 8v27q0 4 4 4l-4 6l4 8l-2 19h2l-2 8q-2 86 -6 94q0 4 4 4 q-4 29 -7 39q4 6 5 14q-8 43 -7 62h2q-6 12 -6 18q0 8 9 27q-4 0 -5 4q20 12 21 14l6 -4l12 8l9 -4l6 2q14 0 35 -26q-4 0 -5 -4q4 0 11 -11h-4l4 -8v-35l2 -22q0 -4 -4 -4l6 -64h-4q8 -20 6 -69v-33q0 -8 4 -17q0 -4 -4 -2l2 -26v-43q0 -4 -4 -4l4 -6l-2 -107q-2 -45 6 -61 q0 -4 -4 -4l4 -95q-4 -6 -4 -10q4 -8 4 -16h-4q0 -4 4 -4l-4 -19l-4 -162q0 -4 -4 -4l4 -8l-2 -67q0 -4 -4 -5q0 -4 4 -4l-4 -37l-2 -26q0 -4 -2 -4q0 -4 2 -4q0 -4 -5 -13q2 -82 7 -108l-4 -39v-125h-5l5 -8q-8 -12 -9 -29v-22q-2 -23 2 -62q0 -14 -34 -33q-80 14 -80 52 q-31 31 -187 436h-4q0 -35 -86 -287l4 -8q-41 -113 -41 -135q0 -23 -47 -41q0 6 -37 16q-33 20 -32 57q-4 0 -5 13q0 4 5 4l-17 94q0 4 4 4q0 8 -16 148h4q-2 10 -6 47h4l-8 18q0 4 4 4q-2 59 -14 152l4 8l-11 121h4l-2 8v10q0 51 -10 119q2 2 4 2l-6 66h4l-4 8l2 72l-2 18 h4l-4 8v33l-2 24q0 2 2 3l-6 49q0 4 4 4q-6 72 -4 114l-8 5l4 6l-4 20h4q-2 4 -6 53h4q-8 14 -6 23h2q-10 31 -10 37h4q-10 37 -11 47l21 29z" />
<glyph unicode="x" horiz-adv-x="763" d="M494 1434l45 -27v-2h-9v-4q12 0 13 -19v-16q-29 -61 -58 -170q-6 -2 -26 -84q-49 -152 -99 -321q14 -51 60 -166q49 -182 65 -183q0 -4 -4 -4q31 -127 111 -321l41 -111q-16 -16 -41 -26v4q-4 0 -4 -4q-70 0 -80 83q0 12 -27 76q0 6 -35 86q-68 193 -67 201 q-20 35 -35 98q-27 59 -27 84h-6q0 -47 -114 -477q-12 -51 -23 -63l4 -9q-16 -51 -41 -65l-35 -2q-35 0 -53 33v18l31 80l-4 8q18 39 88 291q33 104 55 240q10 0 23 83q10 31 16 31q-20 41 -43 127q-12 25 -78 201q-43 80 -74 149h-2q0 2 2 2q-63 129 -63 142q8 23 14 22 q8 -4 17 -4q0 8 8 8t14 -4l8 4q45 0 105 -174q72 -127 125 -276q8 -20 8 -27h4l68 228q0 4 12 10l-4 8l76 223l18 17l12 -9z" />
<glyph unicode="y" horiz-adv-x="724" d="M494 1448l45 -27v-4h-9v-4q12 0 13 -18v-17q-31 -61 -76 -229q-57 -164 -107 -361v-18q0 -10 5 -16q-4 -18 -9 -19l4 -8l-4 -6q4 -8 4 -12t-4 -4q8 -47 9 -99h-5l5 -8v-14q0 -4 -5 -4l5 -9q0 -2 -5 -2q6 -37 7 -102v-16q-6 -37 -7 -41v-129q0 -4 -4 -5l9 -30l-5 -6 q8 -127 15 -129l-4 -9l8 -34h-4l8 -33q-27 -35 -57 -35q0 6 -41 14q-12 25 -13 47h4l-14 95v37q0 10 -4 16q4 6 4 14v8q0 8 -4 15l4 8q-4 12 -8 12l4 19v32q0 57 8 58q0 4 -4 4q4 14 6 94q-2 27 -2 43h2l-2 6q0 4 2 4l-2 19v39q0 33 -8 49q4 8 4 12l-4 19l4 18q-4 20 -4 23 q0 4 4 4l-4 26v62q-16 25 -49 135q-57 156 -141 325q0 8 -7 9q0 4 2 4q-63 127 -63 139q8 23 14 23q8 -4 17 -5q0 8 8 9q8 0 14 -4l8 4q45 0 105 -174q72 -125 125 -277q8 -18 8 -27h4l68 228q0 6 12 12l-4 6l76 223l18 17l12 -8z" />
<glyph unicode="z" horiz-adv-x="757" d="M147 1446l23 -8q6 4 16 4h4q2 0 3 -4q4 0 4 4q49 -8 120 -8l21 4l6 -4q4 0 4 4q4 0 12 -4l72 8q6 -4 23 -4q4 0 12 4l22 -4h37q16 0 31 -45q0 -41 -57 -215q-14 -27 -27 -76q-8 -10 -55 -168q-14 -14 -31 -103q-25 -61 -31 -63l4 -8q-92 -268 -145 -459v-6q-8 0 -14 -39 q4 0 4 -4q-6 0 -12 -19l4 -8q-10 -18 -23 -53v-6l4 -8q-10 0 -18 -41q4 0 4 -4q-8 -2 -8 -9v-4l4 -6l6 2h53q8 0 17 -2q4 0 4 2l18 -2h4l37 2v-2l8 2q4 0 4 -2l6 2h9q4 0 4 -2l8 2h6q12 0 12 -2l19 2h35q4 0 4 -2l6 2h4q4 0 4 -2l8 2q4 0 4 -2l6 2q4 0 5 -2l8 2h10q4 0 4 -2 l8 2l15 -2l22 2l8 -2l9 2q45 -6 45 -53l-5 -6l5 -8q0 -18 -31 -35v-2q-33 2 -41 6l-8 -4q-6 4 -11 4q-14 -4 -16 -4q-4 0 -4 4l-59 -6l-9 2l-110 -6v4l-6 -4h-54q-8 0 -16 -4q-6 4 -14 4q-12 -4 -15 -4v4l-8 -4h-31l-26 -4v4l-6 -4q-10 0 -17 4l-8 -4q-76 0 -90 40v23 q0 31 27 61l61 129q0 12 78 263q141 406 141 438q10 10 37 106q-2 0 -2 4q10 0 59 162q39 106 39 129h-12l-18 -4v4l-31 -6l-8 2q-6 -2 -11 -2l-8 2l-8 -2q-20 2 -29 2q-41 -6 -53 -6h-31q-4 0 -4 4q-4 0 -4 -4l-18 4q-14 0 -35 -4q-59 10 -59 59q-4 0 -5 5q6 37 31 53 q4 0 10 4z" />
<glyph unicode="{" horiz-adv-x="544" d="M492 1425q0 -39 -93 -39q0 2 -4 3q-29 -12 -47 -29q-31 -25 -51 -141h2q-2 -43 -6 -48h4q0 -8 -4 -16q0 -4 4 -10q-4 -68 -4 -115v-4l-4 -18q4 0 4 -2q-8 -88 -23 -150q-41 -94 -106 -129q23 -31 51 -115l-4 -8q6 0 10 -37q-4 0 -4 -4q4 0 8 -33q-4 -6 -4 -10l4 -8l-4 -6 q4 0 4 -4q0 -25 -4 -56q0 -4 4 -12l-4 -20v-41l4 -27q-4 0 -4 -4t4 -10q0 -4 -4 -13q29 -225 49 -225q0 -37 119 -55q0 4 2 4q0 -8 12 -8q16 -29 23 -29q0 -4 -4 -4q0 -6 6 -18q-35 -33 -57 -33q-68 8 -68 14q-76 0 -102 43q-45 47 -72 195q4 0 4 2q-4 0 -4 4v4q0 33 -6 63 l4 7q-8 33 -8 73q0 4 4 13l-8 4l4 16v37l4 8h-4q0 12 4 19l-8 53q4 0 4 4q-8 90 -15 90l2 8h-2q-12 49 -61 88l-6 -2h-4q-14 6 -33 29v8l4 6h-4q0 20 18 37q111 51 111 60q29 0 45 110q-4 0 -4 4q4 6 4 17q0 8 -4 14l8 27h-4q0 6 6 24q0 4 -2 12q2 37 2 60v69q0 84 35 162 q31 94 125 142h18q27 0 82 4z" />
<glyph unicode="|" horiz-adv-x="204" d="M51 1622h23q16 0 28 -109v-34l7 -17v-4q0 -10 -5 -20l5 -11q0 -4 -5 -4l13 -219l-4 -10l2 -31v-10q0 -4 -4 -4l4 -10l-2 -52q0 -6 -4 -4l4 -12l-2 -14q0 -4 -2 -4l2 -11l-2 -51q-4 -137 2 -329h-5l5 -11v-10q-2 -4 -5 -4l3 -12v-45l2 -35h-5l5 -10q0 -6 -5 -7l3 -10 q0 -4 -3 -4l3 -10l-9 -295l2 -62h-4l2 -10l-2 -65q0 -18 4 -45l-4 -11q4 -195 13 -301q-4 -10 -5 -14l5 -10q-10 -35 -29 -49h-29q-4 0 -4 6l-6 -6q-16 2 -33 47v35q0 12 -2 20l4 10l-8 154q2 4 4 4q-4 55 -2 154q4 0 4 4q-8 0 -8 10l4 10q-2 10 -2 14l4 11q-4 10 -4 16 l4 10q-4 8 -2 21h4l-4 8l2 98q2 20 -2 41q4 18 6 39v31q0 12 -2 20l4 11q0 6 -4 6l4 24l-2 27h2l-2 8q0 6 4 6l-4 11v30q0 4 4 4q-2 10 -2 17q-2 190 0 227l-4 27l4 10q-2 61 -4 70q0 6 2 6v100l4 143l-2 31q4 8 4 25l-2 24h4l-4 11q0 6 4 6l-4 10v14q2 66 -8 103q4 10 6 20 l-4 21h4q-6 18 -6 55v14q2 12 4 23q-2 10 -4 76l4 10l-2 30z" />
<glyph unicode="}" horiz-adv-x="593" d="M51 1479q55 -4 82 -4h19q96 -47 127 -142q33 -78 32 -162v-69q0 -23 4 -60q-4 -8 -4 -12q6 -18 6 -24h-2l7 -27q-4 -6 -5 -14q0 -10 5 -17q0 -4 -5 -4q18 -111 45 -110q0 -8 111 -60q18 -16 19 -37h-5l5 -6v-8q-18 -23 -33 -29h-4l-6 2q-49 -39 -60 -88h-4l4 -8 q-8 0 -14 -90q0 -4 2 -4l-6 -53q4 -6 4 -19h-4l4 -8v-37l2 -16l-6 -4q4 -8 4 -13q0 -41 -8 -73l4 -7q-8 -31 -9 -63v-4q0 -4 -4 -4q0 -2 4 -2q-27 -147 -69 -195q-29 -43 -105 -43q0 -6 -65 -14q-25 0 -60 33q6 12 7 18q-2 0 -2 4q4 0 20 29q12 0 12 8q4 0 4 -4 q117 18 117 55q20 0 49 225q-4 8 -4 13q4 6 4 10t-4 4l4 27v41l-4 20q4 8 4 12q-4 31 -4 56q0 4 4 4l-4 6l4 8q0 4 -4 10q4 33 8 33q0 4 -4 4q4 37 11 37l-2 8q27 84 51 115q-68 35 -109 129q-14 61 -20 150q0 2 4 2l-4 18v4q0 47 -4 115q4 6 4 10q-4 8 -4 16h4q-4 4 -8 48 h4q-23 117 -54 141q-18 16 -47 29q-4 0 -4 -3q-92 0 -92 39z" />
<glyph unicode="~" horiz-adv-x="737" d="M121 805l8 -2l8 2q117 0 178 -90q45 -68 86 -72h17q37 45 37 72q12 43 22 63q14 0 23 8h8l8 -4q0 8 6 9h8q31 -27 31 -68l-4 -8q4 -6 4 -15v-8q0 -8 -4 -16l4 -6q-10 -47 -22 -58q-63 -76 -129 -75q-4 0 -23 4q-8 -4 -16 -4v4l-6 -4q-59 16 -103 75q-25 23 -31 41 q-8 0 -34 39l-33 10q-8 -2 -12 -2v2q-53 -29 -54 -77q-23 -53 -53 -54q-6 -4 -14 -4q-27 29 -31 58v14q0 51 41 111q35 45 80 55z" />
<glyph unicode="&#xa1;" horiz-adv-x="276" d="M55 1382q8 -2 13 -2l6 2q37 -16 49 -55v-6h-4l8 -18q-10 -33 -31 -46h-10q-63 0 -86 37v4q0 4 4 5l-4 6v4q0 42 55 69zM88 1202l41 -33l-2 -8l6 -10l-4 -8l4 -6q-10 -59 -10 -72l4 -14q-4 -6 -4 -15q0 -4 4 -4l-4 -18q0 -98 33 -363l-4 -8l8 -47q0 -4 -4 -4l12 -84h-4 l4 -8v-117q0 -2 -4 -2l4 -8q-4 -70 -4 -97q0 -4 4 -10q-4 -6 -4 -14v-39l4 -20l-4 -9l4 -8q0 -6 -4 -14q6 -70 10 -152q-16 -41 -51 -41q0 8 -8 8l-11 -8h-8q-29 4 -28 33v31q0 20 -5 59q0 4 5 4l-5 19v28q0 20 -4 54q0 2 4 2l-4 18v23q0 8 4 16q-4 41 -8 41l4 16v105 q0 8 -4 14q0 4 4 4l-12 121h4q-4 8 -8 41l4 8l-6 49h2l-12 97h2l-2 6v26l-21 158h4q-2 10 -8 45h4l-4 8v6q0 4 4 5l-4 8v8q0 2 4 2q0 4 -4 4l4 19v36l4 9l-8 4q8 8 12 73q23 33 70 33z" />
<glyph unicode="&#xa2;" horiz-adv-x="653" d="M303 1604q63 0 84 -62v-4q-4 -23 -8 -22q0 -4 4 -5q-8 -57 -12 -57q0 -12 49 -29q23 -33 22 -47h-2l2 -6q0 -10 -32 -22v2l-9 -2q-23 2 -34 10h-7v-19q0 -4 -4 -4q0 -4 4 -4l-12 -80l4 -6q-4 -12 -8 -12l4 -18l-4 -17q4 -6 4 -10q-6 -8 -10 -72l4 -8l-35 -295q0 -4 4 -4 q-12 -86 -16 -94l4 -8q-8 -14 -8 -27q4 -8 4 -12q-6 0 -6 -6v-43q0 -2 -4 -3q4 -8 4 -12q0 -12 -8 -31q4 -6 4 -14l-9 -4q0 -4 5 -12q-4 -45 -13 -45l4 -8q-18 -143 -26 -170q4 -6 4 -11q0 -49 -8 -49l4 -8q-6 -12 -6 -23l2 -8q-2 -18 -6 -18q4 -8 4 -12q-4 -10 -9 -11l5 -8 q-4 -14 -9 -14l4 -8v-19q0 -4 -4 -4q0 -4 4 -4l-4 -19v-8q18 -27 39 -26q96 0 180 88q4 0 23 4q49 -8 49 -47q4 0 4 -4v-11q-45 -43 -90 -71q0 -16 -121 -39q-43 0 -43 -4q-18 4 -18 8l-8 -4l-23 4q0 -4 -4 -4l4 -6v-4q0 -12 -4 -13l4 -18v-12q0 -27 -37 -41q0 6 -12 12 q0 -8 -6 -8h-4q-8 0 -8 8l-9 -4q-23 10 -22 14l4 8q-10 0 -10 9q0 2 2 2q-6 12 -6 20h4q0 2 -4 2q2 31 6 31l-6 20q4 10 6 11q0 4 -2 4q4 45 6 53q-53 92 -80 215v4q0 4 4 4l-14 64h4l-4 8v8q0 4 4 4q-4 4 -8 41h4q-4 10 -8 45h4q-14 70 -15 84h2l-6 18q0 4 4 5q-8 39 -8 53 h4q0 4 -4 4l4 18v9l-4 18h4l-4 8v37q0 4 4 4l-4 8q0 4 4 4l-8 37q4 35 8 35l-4 6v74q0 2 4 2q-4 8 -4 12l4 9q-4 6 -4 14q0 4 4 4l-4 8q0 285 90 406q0 18 70 67q27 27 98 45q0 12 4 13l-4 6q4 8 4 12q-8 0 -8 8q8 6 14 64q-4 6 -4 14zM111 1137l4 -9q-8 -31 -13 -90 q0 -4 4 -12l-8 -117l4 -8l-4 -6q0 -14 4 -21q-4 -49 -4 -79v-76q0 -8 4 -14q-4 -6 -4 -15v-16q0 -29 4 -80l-4 -6l17 -84h-4q6 -20 14 -80l-4 -8q8 -14 8 -23h-4q10 -68 14 -82l-2 -8q2 -8 2 -12h4q0 33 4 35l-4 8q8 18 9 26q0 4 -5 5q4 29 9 36l-4 9q8 47 14 67l-2 8 q6 25 10 58q-4 6 -4 10l8 4l-4 8l12 86l-4 8l8 41l-4 9l19 94q0 4 -4 4l8 35q0 4 -4 4q4 53 10 72q0 4 -2 4q12 131 18 139l-4 8l4 6l-4 8q8 14 9 31l-5 23q2 14 9 14q0 4 -4 4q10 111 14 111q-2 14 -8 14q8 31 8 72l4 8h-4q-80 -39 -121 -152q-16 -71 -18 -71z" />
<glyph unicode="&#xa3;" horiz-adv-x="827" d="M422 1462q106 -35 135 -82q0 -12 12 -43q-20 -27 -41 -26v4l-8 -4q-39 25 -71 53q-39 8 -39 12q-84 -20 -113 -65q-31 -70 -39 -76l4 -6q-23 -57 -31 -115q0 -4 5 -4q-8 -35 -9 -102v-25h-6v-20q0 -14 10 -31q-4 -51 -6 -60q2 -20 2 -34v-27l-2 -27h2q35 4 39 4v-4l8 4 h27q8 0 14 -4q6 4 15 4q8 0 8 -4l18 4h4q61 -4 62 -57q-4 -16 -31 -33l-8 4q-10 -4 -10 -8l-62 8q-14 -4 -84 -8q0 4 -2 4q0 -6 -12 -12q4 -6 8 -33l-8 -4l4 -20q-2 -37 -8 -37l4 -8v-4q0 -2 -4 -2l4 -9q0 -8 -8 -8l4 -8q0 -2 -4 -2l4 -8v-23l-8 -12v-37q0 -63 -19 -88 q-14 -66 -22 -121l-8 -8q4 -6 4 -10q-10 -18 -11 -72q68 -12 95 -31q160 -98 209 -98q59 0 135 86q10 61 20 61q8 10 33 23q4 0 4 -4l8 4q49 -6 49 -27q0 -8 -4 -14l11 -20q-6 0 -19 -56q-41 -51 -76 -76q-86 -57 -121 -57v4q-4 -4 -45 -8v4q-4 0 -4 -4q-63 0 -174 61 q-8 12 -39 19q0 6 -37 22q-10 16 -53 31l-18 -16q0 4 -4 4l-31 -76q-4 0 -23 -14q-8 4 -12 4q0 -8 -6 -8l-23 4q-8 -4 -12 -4q-4 8 -4 12l-6 -4l-16 6q4 8 4 12t-4 4q0 8 26 95q45 127 88 356q2 0 2 4q-2 6 -2 10q6 12 6 23v12q0 41 9 107q-4 6 -5 14h5q0 4 -5 4l5 18v21 q-8 0 -15 -4l-8 4l-14 -4l-8 4q-6 -4 -17 -4h-2q-4 0 -4 4l-8 -4q-18 0 -76 37q12 53 39 53q2 4 29 4h12q4 0 4 -4q4 0 4 4l19 -4h4q4 0 41 8h8v4q0 12 -4 33l4 8l-4 15q2 39 8 38q0 4 -4 5q0 6 4 6q-4 76 -4 114q0 145 14 166q0 4 -4 4q4 33 12 54q-4 0 -4 4q6 4 41 102 q39 63 96 90q23 29 117 43q17 0 31 2z" />
<glyph unicode="&#xa4;" horiz-adv-x="714" d="M31 985q18 -4 28 -10l9 4q63 -74 75 -105h4q0 10 115 41v-4l8 4q33 0 82 -26h6q0 16 86 86q6 4 19 4q45 -20 45 -39v-6q0 -39 -82 -119h-4v-4q29 -47 29 -66v-12q0 -4 -2 -4q0 -4 2 -4l-2 -16q0 -14 2 -21q-2 -31 -19 -61l76 -101l4 -18q-8 -27 -27 -51v-4h-12 q-39 0 -70 61l-22 23q-59 -55 -123 -56v4l-6 -4q-29 0 -100 31q-66 -82 -89 -82q-27 0 -49 51v17l9 10h-9v6q82 78 82 86q-14 27 -33 115q12 55 29 92q-12 0 -65 74q-6 0 -17 14v4l4 8q-14 0 -14 11q0 4 4 4l-4 18q0 41 18 41q5 0 13 4zM147 705q35 -119 78 -119 q80 0 129 92q12 41 13 47q-4 8 -5 12q4 0 5 4q-12 0 -13 7v8l4 8q-6 0 -28 33q-41 14 -68 14q-102 -27 -102 -78q-9 1 -13 -28z" />
<glyph unicode="&#xa5;" d="M494 1448l45 -27v-4h-9v-4q12 0 13 -18v-17q-31 -63 -54 -157q-12 -20 -79 -254q-12 -6 -13 -58q8 4 13 4v-4l8 4h2l22 -4q20 8 31 9q35 -2 35 -9q10 4 10 9l27 -5h30q4 0 31 -30v-19l-4 -8q8 0 8 -8q-4 -14 -8 -14l4 -9q0 -4 -31 -18q-20 4 -30 4q-29 0 -64 -8 q-20 4 -39 4q-8 0 -14 -4q-6 4 -14 4h-17l-22 -4q-6 4 -10 4l-5 -8v-29q0 -10 5 -16q-4 -18 -9 -19l4 -8l-4 -6q4 -12 9 -12l26 4l6 -4q8 4 13 4v-4l8 4h2l22 -4q20 8 31 8q35 -4 35 -8q10 4 10 8l27 -4h30l31 -31v-18l-4 -9q8 -2 8 -8q-4 -14 -8 -14l4 -8q0 -4 -31 -19 q-20 4 -30 4q-29 0 -64 -8q-20 4 -39 4q-8 0 -14 -4q-6 4 -14 4h-17l-22 -4q-6 4 -10 4v-22q0 -4 -5 -4l5 -9q0 -2 -5 -2q6 -37 7 -102v-16q-6 -37 -7 -41v-129q0 -4 -4 -5l9 -30l-5 -6q8 -127 15 -129l-4 -9l8 -34h-4l8 -33q-27 -35 -57 -35q0 6 -41 14q-12 25 -13 47h4 l-14 95v37q0 10 -4 16q4 6 4 14v8q0 8 -4 15l4 8q-4 12 -8 12l4 19v32q0 57 8 58q0 4 -4 4q4 14 6 94q-2 27 -2 43h2l-2 6q0 4 2 4l-2 19v57h-4l-8 -4q-8 4 -12 4l-15 -4l-8 4q-33 -4 -41 -8l-22 4q-10 0 -62 -10q-31 8 -31 10l-6 -4q-39 33 -39 53q8 0 9 8q-4 6 -4 15 q12 6 22 35l35 12q20 -4 35 -4h41q4 0 4 -4l6 4h4q4 0 4 -4q4 0 4 4q35 -4 35 -8q6 4 10 4l8 -4q6 4 15 4q8 -4 12 -4q0 4 4 4l-4 26v64l-16 4l-15 -4l-8 4q-33 -4 -41 -6l-22 2q-10 0 -62 -11q-31 8 -31 11l-6 -2q-39 31 -39 51q8 0 9 8q-4 6 -4 16q12 4 22 33l35 13 q20 -4 35 -5h41q4 0 4 -4l6 4h4q4 0 4 -4q4 0 4 4q29 -4 37 -8v8q-63 172 -131 314q-18 39 -23 39q0 4 2 4q-63 127 -63 139q8 23 14 23q8 -4 17 -5q0 8 8 9q8 0 14 -4l8 4q45 0 105 -174q72 -125 125 -277q8 -18 8 -27h4l68 228q0 6 12 12l-4 6l76 223l18 17l12 -8z" />
<glyph unicode="&#xa6;" horiz-adv-x="247" d="M96 952v-12q0 -14 -45 -25v-4q-39 0 -47 33q0 4 -4 4l4 27v74q0 4 2 4l-2 6v26q0 8 2 15q-2 6 -2 14q0 4 2 12q0 2 -2 2l2 21l-2 16q2 8 2 13l-2 14q0 8 2 8l-2 43v17q0 33 2 96q-2 6 -2 14q2 6 2 10l-2 9q0 4 2 4l-6 69q10 68 37 68q16 0 41 -41q10 0 10 -8l-2 -6 q0 -4 2 -5q0 -4 -2 -12q6 -92 6 -166q0 -4 -4 -22q4 -6 4 -10t-4 -5l4 -18v-78q0 -4 -4 -4l4 -6v-35l-4 -22q4 -6 4 -19v-4q0 -6 -4 -14l4 -6l-4 -9q0 -4 4 -4l-4 -14q4 -33 4 -41h-4q8 -13 8 -29zM96 -43v-10q0 -16 -45 -27v-4q-39 0 -47 33q0 4 -4 4l4 27v73q0 4 2 4l-2 6 v27q0 8 2 14q-2 6 -2 17q0 4 2 10q0 2 -2 2l2 21l-2 16q2 8 2 12l-2 15q0 8 2 8l-2 45v14q0 35 2 96q-2 6 -2 15q2 8 2 10l-2 8q0 4 2 4l-6 70q10 68 37 68q16 0 41 -41q10 0 10 -9l-2 -6q0 -4 2 -4q0 -4 -2 -10q6 -94 6 -168q0 -2 -4 -23q4 -6 4 -10t-4 -4l4 -18v-78 q0 -4 -4 -4l4 -6v-33l-4 -25q4 -6 4 -16v-4q0 -8 -4 -17l4 -6l-4 -8q0 -2 4 -2l-4 -16q4 -33 4 -41h-4q8 -13 8 -29z" />
<glyph unicode="&#xa7;" horiz-adv-x="667" d="M137 424q33 -8 135 -21q84 4 136 52q59 49 57 123q-2 35 -10 65q-18 37 -39 45q-31 35 -82 49h-53q-84 -4 -181 -98q-20 -41 -24 -80q6 -33 12 -49h-2q14 -37 51 -86zM350 809q-18 14 -47 31q-8 10 -104 57q-121 90 -154 154q-43 45 -63 135q2 0 2 4q-6 0 -7 4l-2 23 q0 6 -2 12q0 8 9 8l-7 6q-4 74 66 131q8 25 129 82q66 16 82 17v-3l4 3q86 -4 117 -21q80 -41 121 -121q4 -27 10 -49q-2 -4 -2 -10q2 0 4 -4q-18 -27 -33 -27q-37 -2 -39 39q-20 55 -49 66q-31 35 -82 49h-53q-82 -4 -180 -101q-20 -39 -25 -77q6 -33 14 -50h-4 q20 -53 90 -131q51 -51 111 -84q29 -16 74 -41l90 -63q63 -66 92 -133q23 -78 25 -113l2 -16q0 -6 2 -13q-10 -92 -45 -129q-61 -76 -156 -102q-6 0 -37 -4v2l-4 -4h-20q-33 0 -58 2q33 -25 66 -41q29 -18 73 -41l89 -66q63 -66 94 -135q23 -78 24 -110v-19q0 -6 4 -10 q-12 -92 -47 -129q-59 -76 -153 -100q-8 0 -37 -9v5l-6 -5h-19q-92 2 -108 11l-6 -2q-25 6 -70 20q0 -2 -2 -2q-47 29 -49 35q-61 55 -74 100q-4 0 -31 72v12l-4 29q16 23 29 22q47 -6 49 -43h-2q53 -135 123 -163q29 -10 139 -23q82 4 133 51q61 49 58 123q-6 123 -78 197 q-12 25 -82 65q-10 8 -107 58q-94 70 -133 122h-2v3q-10 16 -16 28q-43 43 -66 135q2 0 2 4q-4 -2 -6 5v22q0 6 -4 10v11l2 6q-2 72 68 131q8 25 129 82q63 14 82 16v-4l4 4q36 -2 63 -6z" />
<glyph unicode="&#xa8;" horiz-adv-x="614" d="M-8 1317l4 6q-4 6 -4 16q49 59 86 60h14q59 -18 60 -49q8 0 8 -33h-4l4 -8q0 -31 -68 -60h-14q-41 0 -82 54q0 8 -4 14zM295 1335q0 41 61 64h29q37 -18 61 -62l-4 -16v-27q-31 -49 -67 -49q-76 10 -76 76q-4 0 -4 14z" />
<glyph unicode="&#xa9;" horiz-adv-x="1398" d="M555 1346l10 -5q4 0 4 5l19 -5h28q96 0 226 -36q129 -35 303 -265q25 -35 50.5 -85t51.5 -115v-6q0 -4 -4 -5q8 -16 12 -36q-4 -8 -4 -11q8 -2 9 -8q0 -4 -5 -4l11 -37l-4 -22v-6l4 -27h-4q4 -8 4 -10q-6 -59 -11 -60l5 -10q-23 -53 -39.5 -91t-28.5 -61 q-66 -111 -162 -202q-106 -82 -199 -92q-35 -12 -40 -19q-4 0 -5 4q-6 -6 -55 -16q0 4 -4 4q0 -6 -6 -6l-8 2q0 -8 -33 -10q0 4 -4 4q0 -8 -6 -9l-8 5q-20 -4 -49 -7.5t-66 -7.5v4l-6 -4h-64q-6 0 -14 -4q-70 14 -115 24.5t-65 20.5q-84 23 -166 131q-29 33 -72 129h4 l-24 45l2 9q-6 0 -25 92l4 6q-4 8 -4 14l4 12l-8 5q2 18 8 18l-4 6v4q0 45 6 45l-2 19v43q6 6 10 59q10 47 26.5 101.5t39.5 119.5q33 59 61.5 106.5t57.5 82.5q109 98 176 125q12 14 178 37zM514 1243q-88 -12 -152 -63q-84 -55 -114 -129q-10 -10 -22.5 -32t-28.5 -50 q-16 -31 -34 -78t-32 -103q-4 0 -14 -59q-4 0 -4 -4v-25q0 -10 -2 -16q2 -4 2 -14v-4q0 -18 -7 -19l5 -6q0 -4 -5 -4q0 -4 5 -4l-5 -25v-12q0 -23 7 -55h-2q0 -8 39 -107q10 -20 18 -37.5t18 -31.5q63 -100 138 -123q20 -6 35.5 -12.5t29.5 -12.5l8 4l41 -16q4 0 4 4l19 -4 h24q4 0 4 -2l23 6l18 -4q45 2 52 8q8 -4 10 -4q31 8 37 8l18 -4q6 4 35 13.5t76 13.5q10 8 33.5 14t58.5 14q80 33 106 49q14 14 31 28.5t35 31.5q70 82 108.5 154.5t38.5 136.5q0 4 -1 14t-3 29h4q-14 106 -41 141q-27 57 -57.5 107.5t-66.5 91.5q-18 16 -32 30.5t-24 28.5 q-14 12 -37.5 31.5t-58.5 46.5q-31 27 -67.5 39t-71.5 12q0 4 -6 4q-4 0 -5 -4q-41 6 -86 6v4q-2 0 -2 -4l-12 4q-10 -2 -18.5 -3t-14.5 -1v4q-29 -2 -47 -10zM614 1092q135 0 185 -60v-47q0 -6 -19 -18h-41q0 12 -114 28q-86 0 -138 -118q-12 0 -38 -136v-77 q0 -113 98 -195q57 -31 100 -31q63 0 125 82q8 6 14 6q68 0 68 -39v-30q-70 -106 -201 -107q-211 0 -295 232q0 16 -6 82q0 324 176 413q18 4 39.5 8.5t46.5 6.5z" />
<glyph unicode="&#xab;" horiz-adv-x="911" d="M311 934q4 0 4 -4l19 4h24q33 -18 33 -60q-23 -29 -147 -104q-37 -39 -111 -88v-4q76 -33 303 -119q23 -23 23 -29l-4 -8q4 -6 4 -14v-4q-33 -35 -41 -37q-23 0 -162 55q-217 78 -252 115q-4 0 -4 4v23q0 4 4 4l-4 6v4q0 31 51 59q4 0 137 121q8 0 123 76zM657 963 q4 0 5 -2l18 2h27q33 -18 32 -60q-23 -29 -147 -102q-39 -39 -113 -88v-4q76 -33 305 -119q23 -25 23 -31l-4 -6q4 -6 4 -14v-4q-35 -37 -41 -37q-23 0 -164 55q-217 78 -252 115q-4 0 -4 4v20q0 4 4 4l-4 9v4q0 31 53 59q4 0 138 121q5 0 120 74z" />
<glyph unicode="&#xac;" horiz-adv-x="944" d="M754 743q39 0 49 -125h-4q4 -8 4 -12l-4 -24q0 -4 4 -4q-10 -86 -12 -97q0 -4 4 -4l-4 -26v-25l4 -23q-4 -8 -4 -12q4 -18 4 -37q-43 -37 -86 -37q-25 20 -25 41l4 9q0 4 -4 4q4 25 6 32q-2 6 -2 15v8q0 2 2 2q0 4 -2 4l2 17q0 45 8 133q0 2 -4 2l4 22q0 4 -4 37 l-413 -18h114l-37 -4v4l-6 -4h-18q-4 0 -4 4l-8 -4h-125q-4 0 -4 4q-4 0 -5 -4l-36 4h-60q-8 0 -14 -4q-6 4 -15 4q-4 0 -12 -4q-47 4 -47 30q-4 0 -4 4v7q0 41 27 49q18 18 32 18h4q4 0 5 -4l6 4q45 -4 45 -8l8 4l14 -4l6 4l9 -4q8 4 12 4l12 -4q8 4 13 4v-4q4 0 4 4l18 -4 q2 0 2 4l21 -4h143q25 0 -90 4v-4l8 4q2 0 23 -4l6 4q4 0 4 -4l37 4h28l21 4v-4q6 4 10 4q45 0 68 6q2 0 2 -4q68 6 73 8l9 -4q20 4 28 4v-4l8 4q4 0 5 -4q8 4 12 4q23 0 121 4z" />
<glyph unicode="&#xad;" horiz-adv-x="669" d="M549 643v-4q-8 0 -41 4l-16 -4q0 4 -5 4l-6 -4l-8 4q-6 -4 -14 -4h-4q-12 0 -19 4l-22 -4h-33l-6 4q0 -4 -4 -4h-78l-19 4q0 -4 -4 -4t-12 4q-18 -4 -20 -4q-74 0 -168 8q-6 -4 -11 -4q0 4 -4 4l-8 -4q-6 0 -6 10q-41 25 -41 41q0 27 68 37l69 -6q0 4 4 4l6 -4q4 0 13 4 q8 0 14 -4q61 4 96 4h15l45 -4q0 4 8 4l14 -4q2 0 10 4l19 -4l18 4q0 -4 4 -4q6 4 11 4q10 0 14 -4q8 4 16 4h25l8 -4q0 4 4 4h74l27 2q0 -2 4 -2q33 -8 32 -49h-4q-12 -43 -26 -43h-10q-17 0 -29 6z" />
<glyph unicode="&#xae;" horiz-adv-x="1398" d="M561 1065q168 0 221 -96q16 -43 17 -56v-32q0 -115 -137 -185q-23 -4 -23 -10q102 -119 180 -235v-37q0 -41 -65 -41h-9q-33 27 -157 207l-33 32v-100q0 -16 1 -39.5t3 -56.5q0 -20 -37 -47h-22q-47 0 -49 69v4q2 109 3 171.5t1 78.5q-2 129 -3 210t-1 116q0 47 92 47h18 zM547 954q4 -72 6 -113.5t2 -58.5q59 6 107 43q29 47 28 64q0 51 -51 51q-18 8 -92 18v-4zM555 1346l10 -5q4 0 4 5l19 -5h28q96 0 226 -36q129 -35 303 -265q25 -35 50.5 -85t51.5 -115v-6q0 -4 -4 -5q8 -16 12 -36q-4 -8 -4 -11q8 -2 9 -8q0 -4 -5 -4l11 -37l-4 -22v-6 l4 -27h-4q4 -8 4 -10q-6 -59 -11 -60l5 -10q-23 -53 -39.5 -91t-28.5 -61q-66 -111 -162 -202q-106 -82 -199 -92q-35 -12 -40 -19q-4 0 -5 4q-6 -6 -55 -16q0 4 -4 4q0 -6 -6 -6l-8 2q0 -8 -33 -10q0 4 -4 4q0 -8 -6 -9l-8 5q-20 -4 -49 -7.5t-66 -7.5v4l-6 -4h-64 q-6 0 -14 -4q-70 14 -115 24.5t-65 20.5q-84 23 -166 131q-29 33 -72 129h4l-24 45l2 9q-6 0 -25 92l4 6q-4 8 -4 14l4 12l-8 5q2 18 8 18l-4 6v4q0 45 6 45l-2 19v43q6 6 10 59q10 47 26.5 101.5t39.5 119.5q33 59 61.5 106.5t57.5 82.5q109 98 176 125q12 14 178 37z M514 1243q-88 -12 -152 -63q-84 -55 -114 -129q-10 -10 -22.5 -32t-28.5 -50q-16 -31 -34 -78t-32 -103q-4 0 -14 -59q-4 0 -4 -4v-25q0 -10 -2 -16q2 -4 2 -14v-4q0 -18 -7 -19l5 -6q0 -4 -5 -4q0 -4 5 -4l-5 -25v-12q0 -23 7 -55h-2q0 -8 39 -107q10 -20 18 -37.5 t18 -31.5q63 -100 138 -123q20 -6 35.5 -12.5t29.5 -12.5l8 4l41 -16q4 0 4 4l19 -4h24q4 0 4 -2l23 6l18 -4q45 2 52 8q8 -4 10 -4q31 8 37 8l18 -4q6 4 35 13.5t76 13.5q10 8 33.5 14t58.5 14q80 33 106 49q14 14 31 28.5t35 31.5q70 82 108.5 154.5t38.5 136.5q0 4 -1 14 t-3 29h4q-14 106 -41 141q-27 57 -57.5 107.5t-66.5 91.5q-18 16 -32 30.5t-24 28.5q-14 12 -37.5 31.5t-58.5 46.5q-31 27 -67.5 39t-71.5 12q0 4 -6 4q-4 0 -5 -4q-41 6 -86 6v4q-2 0 -2 -4l-12 4q-10 -2 -18.5 -3t-14.5 -1v4q-29 -2 -47 -10z" />
<glyph unicode="&#xaf;" horiz-adv-x="1187" d="M408 1411q4 0 4 -4l16 4h4l23 -4l8 4q4 0 10 -4q8 0 41 4q51 -4 64 -4l24 4l8 -4q8 4 13 4q4 0 32 -6q6 2 15 2v-2l8 2h24q8 0 17 -2l6 2q27 -2 27 -6l18 4h74q4 0 4 -4l18 6q4 0 4 -2l19 2h10q20 0 33 -2l86 6q37 -6 37 -37q2 -8 8 -8q0 -23 -21 -33q0 4 -2 4l-4 -8 q4 0 4 -4q-23 -10 -36 -10l-27 4q-6 -4 -10 -4q-20 4 -21 8q-12 -8 -28 -8h-46q-2 0 -2 4l-8 -4h-45q-4 0 -4 4l-37 -8q-10 4 -10 8l-6 -4h-27q-8 0 -14 -4l-8 4l-9 -4q-14 4 -14 8q-4 0 -4 -4l-25 4h-12q-8 0 -14 -4q-6 4 -15 4h-20q-6 0 -12 -4q-25 4 -25 8l-6 -4 q-4 0 -4 4l-19 -4h-63q-2 0 -2 4q-8 -4 -12 -4q-18 0 -64 -4l-16 4q-4 0 -4 -4l-19 4h-4q-8 0 -14 -4q-4 0 -4 4l-23 -4l-33 4q-8 -4 -12 -4v4q-4 -4 -55 -8q-12 4 -14 4l-41 -8l-9 4q-27 -6 -51 -6l-6 2q0 -6 -8 -7l-8 5q-2 0 -2 -5q-43 0 -68 33q0 35 23 41q0 4 32 27 q20 -4 31 -4q6 4 10 4v-4l8 4q10 0 11 -4q41 4 53 8q2 0 2 -4l86 6v-2q6 2 10 2q8 0 8 -2l25 2h86z" />
<glyph unicode="&#xb0;" horiz-adv-x="417" d="M178 1473q53 0 115 -82q0 -12 4 -33q0 -80 -76 -137q-14 -6 -24 -7l-17 3l-6 -3q-4 0 -4 3l-18 -3h-11l-8 3q0 -6 -6 -7h-8q-119 35 -119 115v10q18 55 37 64q74 70 137 69q0 5 4 5zM147 1376q0 4 -4 4q-39 -45 -43 -45v-14q33 -27 47 -27q39 0 46 64q0 18 -19 31 q-11 -1 -27 -13z" />
<glyph unicode="&#xb1;" horiz-adv-x="1013" d="M512 432h10q12 0 23 -45h4q0 -39 -29 -47q-4 0 -4 -4l-24 4h-64q-4 0 -4 2l-8 -2h-21q-8 0 -16 2q-2 -2 -12 -2q-4 0 -9 2q-4 0 -4 -2l-16 2l-16 -2q-6 2 -9 2l-14 -2q-6 0 -6 2l-41 -2h-12q-31 0 -86 2q-4 -2 -13 -2q-6 2 -10 2l-6 -2q-4 0 -4 2l-62 -6q-59 10 -59 37 q0 16 37 41q0 12 4 12l8 -4q4 0 4 4q4 0 8 -4q84 6 150 6q2 0 18 -2q6 2 11 2q4 0 4 -2l16 2h70q2 0 2 -2l6 2h29l20 -2q6 2 16 2h5q6 0 12 -2l8 2l4 -2q4 0 4 2l15 -2q29 2 36 2v-2q11 6 25 6zM260 1014q31 0 57 -39q0 -6 -8 -6l8 -17l-8 -4l4 -18v-4q0 -8 -4 -15l4 -8 q-4 -27 -4 -41v-18q8 0 8 -4l9 4q4 0 4 -4l6 4h4q4 0 4 -4l8 4l15 -4l18 4l21 -4q41 4 75 4h6l19 2q35 -16 35 -23q16 -20 18 -45q-10 -35 -37 -35h-4l-8 5l-4 -7q-6 0 -6 2q-63 -2 -94 -2h-52q-8 0 -14 2l-35 -10v-4l4 -18h-4q0 -4 4 -4l-4 -19q0 -8 4 -16l-4 -6 q4 -8 4 -13h-4l4 -8v-6q0 -4 -4 -4l4 -8l-4 -27l4 -37q-20 -35 -30 -35l-7 4l-18 -4q-51 18 -51 41q0 86 -2 97l2 6l-2 8l2 8q-2 6 -2 10h2l-2 9v4l2 8q-14 6 -15 10q-4 0 -4 -4q-4 0 -10 4l-35 -4q-74 0 -143 49l4 8l-12 15q6 0 22 22q8 0 23 17q6 4 16 4q63 -12 129 -13 q4 0 29 13l-4 18v41l-2 23q0 68 37 75q16 17 22 17z" />
<glyph unicode="&#xb4;" horiz-adv-x="466" d="M47 1487h27q84 -86 233 -207q14 -29 15 -33q0 -39 -52 -49q0 4 -4 4q0 -8 -8 -8h-6q-23 0 -35 27q-6 0 -98 77q-82 57 -119 119v4q0 29 43 64q0 2 4 2z" />
<glyph unicode="&#xb6;" d="M291 1448h258q10 0 16 -43v-29q0 -4 -4 -4l4 -8v-4q0 -4 -4 -4q0 -4 4 -4q-8 -68 -8 -113l-8 -4l4 -8q0 -2 -4 -29q0 -4 4 -4l-4 -18v-66q0 -33 4 -102h-4l4 -9q0 -2 -4 -2l4 -8v-18q0 -4 -4 -4l4 -9q-4 -53 -4 -90h4q0 -4 -4 -4l4 -18l-4 -35q4 -8 4 -12h-4l4 -6v-5 l-4 -22l4 -8q-4 -20 -4 -35v-6q0 -10 4 -17l-4 -6l8 -20l-8 -4q4 -37 4 -56v-65q0 -4 -4 -4q0 -2 4 -2q0 -4 -4 -13q0 -10 8 -45h-4q0 -4 4 -4q0 -8 -4 -8q6 -63 8 -72q-4 -6 -4 -14v-8q0 -12 4 -19l-4 -22v-47q0 -8 4 -15l-4 -8l4 -18h-4l4 -8q0 -4 -4 -11l8 -34l-4 -7 l8 -65q0 -4 -4 -4q4 -41 6 -49l-6 -23q4 0 4 -4q-18 -33 -24 -33q-14 0 -29 -12q-37 8 -57 35l4 26v33q0 4 4 4l-8 31q0 4 4 4q-4 16 -12 90q4 12 8 13l-4 6v30q0 4 4 4q0 4 -4 5l4 18v76q0 18 4 39q-8 76 -12 82q4 8 4 16v10l-4 23q4 8 4 12l-41 -8q0 -4 4 -4q0 -4 -4 -10 q0 -10 6 -46h-2q0 -4 2 -4q0 -8 -2 -8q4 -63 6 -71q-4 -6 -4 -15v-8q0 -12 4 -18l-4 -23v-47q0 -8 4 -14l-4 -9l4 -18h-4l4 -8q0 -4 -4 -10l8 -35l-4 -8l8 -64q0 -4 -4 -4q4 -41 8 -49l-8 -23q4 0 4 -4q-18 -35 -22 -35q-14 0 -31 -10q-37 8 -57 35l4 24v35q0 4 4 4l-8 31 q0 4 4 4q-4 16 -11 90q2 12 7 13l-5 6v30q0 4 5 5q0 4 -5 4l5 18v76q0 18 4 39q-8 74 -11 82q2 6 2 16v2l-2 39h-20q-88 0 -129 45q-23 0 -90 84q-57 82 -58 129q4 0 5 4q-6 0 -15 45q0 4 4 4l-8 54h4l-8 45l4 22v31q0 4 4 4l-4 6q0 109 57 262q6 0 29 45q53 74 168 107 q15 4 33 4zM115 1137q2 -8 2 -13q-2 -10 -6 -10q0 -4 4 -4q-4 -27 -9 -27q0 -4 5 -4q-6 -66 -9 -71l4 -23v-37q0 -225 162 -307q27 -4 49 -4v84q0 2 5 2l-5 8v19q0 4 5 4l-5 8v8q0 2 5 2q0 4 -5 4l5 27v12l-5 23l5 8l-5 6l5 20q0 14 -5 15q4 51 5 76v182q0 80 12 170 q-4 6 -4 14v17l4 18l-8 -4q-2 0 -23 4q-84 -14 -121 -49q-45 -57 -53 -129q-10 -49 -14 -49zM428 1360q-8 -74 -8 -117l-6 -4l4 -8q-4 -27 -4 -31q0 -2 4 -2l-4 -20v-64q0 -33 4 -102h-4l4 -8q0 -4 -4 -5l4 -6v-20q0 -2 -4 -2l4 -8q-4 -53 -4 -91h4q0 -4 -4 -4l4 -20l-4 -33 q4 -8 4 -12h-4l4 -6v-4l-4 -23l4 -8q-4 -20 -4 -35v-6q0 -10 4 -16l-4 -9l6 -18q-6 0 -6 -10q4 -29 4 -31h37v80q0 4 4 4l-4 6v18q0 4 4 5l-4 8v8q0 4 4 4q0 2 -4 2l4 27v12l-4 23l4 8l-4 6l4 20q0 14 -4 15q4 51 4 75v183q0 82 10 170q-2 6 -2 16v14l2 19l-6 -4 q-21 4 -35 4z" />
<glyph unicode="&#xb7;" horiz-adv-x="256" d="M-8 694l4 8q-4 6 -4 15q49 59 86 59h14q59 -18 60 -49q8 0 8 -33h-4l4 -8q0 -31 -68 -57h-14q-41 0 -82 51q0 8 -4 14z" />
<glyph unicode="&#xb8;" horiz-adv-x="358" d="M170 37q-33 -59 -47 -84q31 -20 63 -66q0 -12 4 -32q0 -80 -75 -138q-14 -6 -25 -6l-16 2l-6 -2q-4 0 -5 2l-18 -2h-10l-8 2q0 -6 -7 -6h-8l-12 4v86q27 -6 41 -6q39 0 45 64q0 18 -18 30h-7v2q-49 -6 -61 27q-2 4 2 37q47 84 82 151l43 19h90q-24 -49 -47 -84z" />
<glyph unicode="&#xb9;" horiz-adv-x="538" d="M209 1505l6 -4l8 4q57 -14 58 -57q8 -45 10 -57l-2 -7q2 -43 2 -71v-8q0 -8 -2 -17q0 -2 2 -2l-2 -20q0 -6 6 -29l-6 -4q0 -4 2 -4l-2 -39v-60q0 -4 -4 -4l4 -8v-33q0 -16 2 -30q-2 -16 -2 -27l2 -27q-2 -8 -2 -12q2 -14 2 -26l-2 -7l2 -8q0 -4 -2 -4q2 -27 6 -35 q-4 -6 -4 -14q0 -4 4 -10l-4 -25v-6q0 -8 4 -16q-4 -6 -4 -15q0 -8 4 -8l-4 -18v-84q0 -4 -2 -4l6 -41q0 -4 -4 -4q0 -4 4 -11l-4 301l4 -6q0 -4 -4 -4l4 -18v-8q0 -12 -4 -19q8 -53 8 -92h-4l8 -23q-4 -14 -4 -26q4 -6 4 -10h-4l4 -9q0 -4 -4 -4q0 -4 4 -4l-4 -18v-19 l4 -26h-4q4 -8 4 -13q0 -16 -4 -22q4 -25 4 -41v-27l-4 -22q4 -8 4 -13h-4q8 -14 8 -41q-25 -53 -57 -53h-4q-37 12 -37 19q-8 70 -12 75l8 5l-4 8v30q0 18 4 56l-8 4q4 8 4 12q0 10 -4 27q4 41 8 41q-4 6 -8 49q4 20 4 31l-4 8q0 2 4 2q-4 41 -8 51l4 14q-4 41 -4 72h4 l-4 8v-235l-3 20h3q0 2 -3 2l3 21v63l-3 23q2 6 3 18l-3 8q2 8 3 13q-6 0 -7 6q4 12 7 12q-6 39 -11 182q4 23 4 54q-4 33 -4 41h4q0 4 -4 4l4 18v19h-4l-49 -125q0 -18 -8 -19l4 -8q-31 -68 -80 -68q-49 6 -49 62q6 8 72 170l53 143q45 133 84 133z" />
<glyph unicode="&#xba;" horiz-adv-x="466" d="M156 1477q51 0 108 -93q0 -16 4 -38q0 -92 -69 -154q-16 -10 -27 -10l-12 4l-8 -4q-4 0 -5 4l-16 -4h-10l-8 4q0 -8 -7 -8h-8q-113 41 -112 131v12q16 61 34 72q70 80 132 80q0 4 4 4zM127 1366q0 6 -4 6q-37 -51 -41 -51v-16q33 -29 45 -29q37 0 43 70q0 23 -18 34 q-9 0 -25 -14z" />
<glyph unicode="&#xbb;" horiz-adv-x="940" d="M68 858q80 -27 294 -110l29 -13q0 4 4 4q0 -4 78 -37q0 -10 12 -18l-4 -8q8 0 11 -33q-186 -152 -359 -240q0 -6 -27 -20q-35 8 -55 31q0 4 -4 12l4 6l-4 8q0 33 80 66q117 70 190 127l23 20q-2 0 -2 4l-8 -4q-16 0 -189 82q-35 4 -35 13q-2 0 -2 -5q-104 14 -104 64v6 q0 4 4 4l-4 6q15 35 68 35zM428 897q82 -25 297 -111l29 -10q0 2 4 2q0 -4 78 -37q0 -8 10 -16l-4 -8q8 0 12 -35q-186 -152 -360 -240q0 -6 -25 -18q-37 6 -55 31q0 4 -4 10l4 6l-4 8q0 33 77 68q117 68 193 125l20 22q-2 0 -2 4l-8 -4q-14 0 -188 82q-33 4 -33 10 q-4 0 -4 -4q-104 16 -105 64v8q0 2 5 2l-5 8q17 33 68 33z" />
<glyph unicode="&#xbf;" horiz-adv-x="575" d="M285 1384q49 -25 49 -69q-6 -20 -39 -41q-4 0 -4 4l-6 -4q-57 0 -80 41v22q0 47 80 47zM272 1229l4 -8l9 4q57 -14 57 -58l2 -8q-2 -10 -6 -10q4 -55 10 -76q-6 -2 -6 -8v-14l2 -19h-2q6 -18 6 -35q-27 -139 -41 -151q-16 -45 -106 -193q-23 -45 -23 -57q-16 -4 -57 -152 l4 -8q-8 -10 -19 -71l5 -9q-4 -23 -13 -45l4 -8q-8 -49 -8 -59l4 -17l-4 -6q0 -119 66 -160l59 -18h17q45 18 81 113l17 80q-4 6 -4 14q0 4 4 12q-4 8 -4 12h4q-4 6 -4 11q0 29 37 34h16q49 -16 49 -71v-21q0 -2 -4 -2q0 -4 4 -4q-23 -137 -65 -186q-61 -72 -109 -72v4 l-18 -8q-25 4 -25 8q-2 0 -2 -4q-113 20 -152 60q-47 51 -57 137l-4 14q0 4 4 4l-4 27v39q0 92 12 133q0 2 -4 2q4 35 15 43q0 4 -5 4q12 86 43 174q43 100 136 250q43 98 43 151q0 10 -9 86h5l-5 9v4q0 4 5 4q-8 25 -13 82q8 29 49 43z" />
<glyph unicode="&#xc0;" d="M23 1778h26q84 -88 232 -207q16 -29 16 -35q0 -37 -53 -47q0 4 -4 4q0 -8 -7 -8h-8q-20 0 -32 26q-8 0 -101 78q-82 55 -119 117v4q0 31 45 64q1 4 5 4zM254 1432q53 -18 53 -66q4 0 41 -98l92 -340q14 -123 23 -123q0 -4 -4 -4q84 -530 110 -625h-4l33 -129q4 0 4 -4 v-37l-8 4q0 -10 -41 -22q0 -8 -8 -8q-43 0 -64 143q-31 98 -90 520h-43l-37 -4v4l-8 -4q-4 0 -4 4l-8 -4h-6q-4 0 -4 4q-4 0 -5 -4q-18 4 -83 8q-2 -106 -11 -106q0 -4 4 -4q-4 -35 -8 -35l4 -6q-25 -137 -30 -150l4 -6q-18 -63 -35 -178h-4l4 -8v-4q0 -4 -4 -5l4 -6 l-15 -57q0 -4 5 -4l-5 -19v-8l5 -18q-14 -8 -31 -39q-4 0 -41 -6q-4 0 -4 4l-8 -4h-4q-6 0 -23 26q0 4 4 4l-4 7v4l8 12q0 2 -4 2q4 41 19 96q-4 6 -5 11h5l-5 8q8 16 17 67q-4 0 -4 4q8 0 8 9l-4 18q12 0 55 295h4q0 4 -4 4q4 27 8 27q0 4 -4 4q8 82 21 151l-4 8q4 18 6 19 q0 4 -2 4q0 18 41 330q0 4 -4 4q23 186 45 309q39 10 39 16l6 -4zM262 1206q-16 -115 -20 -116l4 -9q-2 -33 -6 -32q0 -4 2 -5q-2 -51 -29 -178q0 -4 2 -4q-6 -47 -6 -98h-4l4 -8l-4 -23v-4h37q4 0 4 -4q4 0 4 4l18 -4h27q8 0 16 4q6 -4 15 -4h30l19 4q-45 287 -99 422 q-8 55 -14 55z" />
<glyph unicode="&#xc1;" d="M512 1774q43 -33 43 -64v-4q-35 -61 -117 -117q-94 -78 -100 -78q-12 -27 -35 -26h-6q-8 0 -8 8q-4 0 -4 -4q-51 10 -52 47q0 6 15 35q150 119 233 207h27q4 0 4 -4zM254 1432q53 -18 53 -66q4 0 41 -98l92 -340q14 -123 23 -123q0 -4 -4 -4q84 -530 110 -625h-4l33 -129 q4 0 4 -4v-37l-8 4q0 -10 -41 -22q0 -8 -8 -8q-43 0 -64 143q-31 98 -90 520h-43l-37 -4v4l-8 -4q-4 0 -4 4l-8 -4h-6q-4 0 -4 4q-4 0 -5 -4q-18 4 -83 8q-2 -106 -11 -106q0 -4 4 -4q-4 -35 -8 -35l4 -6q-25 -137 -30 -150l4 -6q-18 -63 -35 -178h-4l4 -8v-4q0 -4 -4 -5 l4 -6l-15 -57q0 -4 5 -4l-5 -19v-8l5 -18q-14 -8 -31 -39q-4 0 -41 -6q-4 0 -4 4l-8 -4h-4q-6 0 -23 26q0 4 4 4l-4 7v4l8 12q0 2 -4 2q4 41 19 96q-4 6 -5 11h5l-5 8q8 16 17 67q-4 0 -4 4q8 0 8 9l-4 18q12 0 55 295h4q0 4 -4 4q4 27 8 27q0 4 -4 4q8 82 21 151l-4 8 q4 18 6 19q0 4 -2 4q0 18 41 330q0 4 -4 4q23 186 45 309q39 10 39 16l6 -4zM262 1206q-16 -115 -20 -116l4 -9q-2 -33 -6 -32q0 -4 2 -5q-2 -51 -29 -178q0 -4 2 -4q-6 -47 -6 -98h-4l4 -8l-4 -23v-4h37q4 0 4 -4q4 0 4 4l18 -4h27q8 0 16 4q6 -4 15 -4h30l19 4 q-45 287 -99 422q-8 55 -14 55z" />
<glyph unicode="&#xc2;" d="M244 1763h2q4 0 4 -2l8 2q66 -39 139 -143q53 -70 54 -78q0 -8 6 -18v-27q-14 -20 -33 -29q-4 0 -4 5l-6 -5h-8q-4 0 -5 5l-6 -5q-4 0 -4 5l-8 -5q-10 0 -10 19l-8 -4q-47 88 -111 147q-10 -14 -49 -133q-14 -31 -37 -47l-6 2l-10 -6q-57 6 -58 55v15q31 55 74 174 q10 0 31 59q25 14 45 14zM254 1432q53 -18 53 -66q4 0 41 -98l92 -340q14 -123 23 -123q0 -4 -4 -4q84 -530 110 -625h-4l33 -129q4 0 4 -4v-37l-8 4q0 -10 -41 -22q0 -8 -8 -8q-43 0 -64 143q-31 98 -90 520h-43l-37 -4v4l-8 -4q-4 0 -4 4l-8 -4h-6q-4 0 -4 4q-4 0 -5 -4 q-18 4 -83 8q-2 -106 -11 -106q0 -4 4 -4q-4 -35 -8 -35l4 -6q-25 -137 -30 -150l4 -6q-18 -63 -35 -178h-4l4 -8v-4q0 -4 -4 -5l4 -6l-15 -57q0 -4 5 -4l-5 -19v-8l5 -18q-14 -8 -31 -39q-4 0 -41 -6q-4 0 -4 4l-8 -4h-4q-6 0 -23 26q0 4 4 4l-4 7v4l8 12q0 2 -4 2 q4 41 19 96q-4 6 -5 11h5l-5 8q8 16 17 67q-4 0 -4 4q8 0 8 9l-4 18q12 0 55 295h4q0 4 -4 4q4 27 8 27q0 4 -4 4q8 82 21 151l-4 8q4 18 6 19q0 4 -2 4q0 18 41 330q0 4 -4 4q23 186 45 309q39 10 39 16l6 -4zM262 1206q-16 -115 -20 -116l4 -9q-2 -33 -6 -32q0 -4 2 -5 q-2 -51 -29 -178q0 -4 2 -4q-6 -47 -6 -98h-4l4 -8l-4 -23v-4h37q4 0 4 -4q4 0 4 4l18 -4h27q8 0 16 4q6 -4 15 -4h30l19 4q-45 287 -99 422q-8 55 -14 55z" />
<glyph unicode="&#xc3;" d="M254 1432q53 -18 53 -66q4 0 41 -98l92 -340q14 -123 23 -123q0 -4 -4 -4q84 -530 110 -625h-4l33 -129q4 0 4 -4v-37l-8 4q0 -10 -41 -22q0 -8 -8 -8q-43 0 -64 143q-31 98 -90 520h-43l-37 -4v4l-8 -4q-4 0 -4 4l-8 -4h-6q-4 0 -4 4q-4 0 -5 -4q-18 4 -83 8 q-2 -106 -11 -106q0 -4 4 -4q-4 -35 -8 -35l4 -6q-25 -137 -30 -150l4 -6q-18 -63 -35 -178h-4l4 -8v-4q0 -4 -4 -5l4 -6l-15 -57q0 -4 5 -4l-5 -19v-8l5 -18q-14 -8 -31 -39q-4 0 -41 -6q-4 0 -4 4l-8 -4h-4q-6 0 -23 26q0 4 4 4l-4 7v4l8 12q0 2 -4 2q4 41 19 96 q-4 6 -5 11h5l-5 8q8 16 17 67q-4 0 -4 4q8 0 8 9l-4 18q12 0 55 295h4q0 4 -4 4q4 27 8 27q0 4 -4 4q8 82 21 151l-4 8q4 18 6 19q0 4 -2 4q0 18 41 330q0 4 -4 4q23 186 45 309q39 10 39 16l6 -4zM262 1206q-16 -115 -20 -116l4 -9q-2 -33 -6 -32q0 -4 2 -5 q-2 -51 -29 -178q0 -4 2 -4q-6 -47 -6 -98h-4l4 -8l-4 -23v-4h37q4 0 4 -4q4 0 4 4l18 -4h27q8 0 16 4q6 -4 15 -4h30l19 4q-45 287 -99 422q-8 55 -14 55zM113 1749l8 -2l8 2q117 0 178 -90q45 -68 86 -72h17q37 45 36 72q12 43 23 63q14 0 23 9h8l8 -5q0 8 6 9h8 q31 -27 31 -68l-4 -8q4 -6 4 -14v-9q0 -8 -4 -16l4 -6q-10 -47 -23 -58q-63 -76 -129 -75q-4 0 -22 4q-8 -4 -17 -4v4l-6 -4q-59 16 -102 75q-25 23 -31 41q-8 0 -35 39l-32 11q-8 -2 -13 -2v2q-53 -29 -53 -78q-23 -53 -53 -53q-6 -4 -14 -5q-27 29 -31 58v14q0 51 41 111 q35 45 80 55z" />
<glyph unicode="&#xc4;" d="M35 1550l4 6q-4 6 -4 17q49 57 86 57h14q59 -16 60 -47q8 0 8 -33h-4l4 -8q0 -31 -68 -59h-14q-41 0 -82 53q0 6 -4 14zM338 1569q0 41 61 61h31q35 -16 59 -59l-4 -19v-24q-31 -49 -67 -49q-76 10 -76 73q-4 1 -4 17zM254 1432q53 -18 53 -66q4 0 41 -98l92 -340 q14 -123 23 -123q0 -4 -4 -4q84 -530 110 -625h-4l33 -129q4 0 4 -4v-37l-8 4q0 -10 -41 -22q0 -8 -8 -8q-43 0 -64 143q-31 98 -90 520h-43l-37 -4v4l-8 -4q-4 0 -4 4l-8 -4h-6q-4 0 -4 4q-4 0 -5 -4q-18 4 -83 8q-2 -106 -11 -106q0 -4 4 -4q-4 -35 -8 -35l4 -6 q-25 -137 -30 -150l4 -6q-18 -63 -35 -178h-4l4 -8v-4q0 -4 -4 -5l4 -6l-15 -57q0 -4 5 -4l-5 -19v-8l5 -18q-14 -8 -31 -39q-4 0 -41 -6q-4 0 -4 4l-8 -4h-4q-6 0 -23 26q0 4 4 4l-4 7v4l8 12q0 2 -4 2q4 41 19 96q-4 6 -5 11h5l-5 8q8 16 17 67q-4 0 -4 4q8 0 8 9l-4 18 q12 0 55 295h4q0 4 -4 4q4 27 8 27q0 4 -4 4q8 82 21 151l-4 8q4 18 6 19q0 4 -2 4q0 18 41 330q0 4 -4 4q23 186 45 309q39 10 39 16l6 -4zM262 1206q-16 -115 -20 -116l4 -9q-2 -33 -6 -32q0 -4 2 -5q-2 -51 -29 -178q0 -4 2 -4q-6 -47 -6 -98h-4l4 -8l-4 -23v-4h37 q4 0 4 -4q4 0 4 4l18 -4h27q8 0 16 4q6 -4 15 -4h30l19 4q-45 287 -99 422q-8 55 -14 55z" />
<glyph unicode="&#xc5;" horiz-adv-x="724" d="M279 1757q53 0 110 -94q0 -14 4 -37q0 -92 -71 -156q-14 -8 -25 -8l-14 4l-7 -4q-4 0 -4 4l-16 -4h-12l-6 4q0 -8 -9 -8h-6q-113 41 -112 129v15q16 61 34 71q70 78 131 78q1 6 3 6zM252 1647q0 6 -4 6q-39 -51 -43 -51v-19q33 -29 47 -29q37 0 41 72q0 23 -17 35 q-10 0 -24 -14zM254 1432q53 -18 53 -66q4 0 41 -98l92 -340q14 -123 23 -123q0 -4 -4 -4q84 -530 110 -625h-4l33 -129q4 0 4 -4v-37l-8 4q0 -10 -41 -22q0 -8 -8 -8q-43 0 -64 143q-31 98 -90 520h-43l-37 -4v4l-8 -4q-4 0 -4 4l-8 -4h-6q-4 0 -4 4q-4 0 -5 -4 q-18 4 -83 8q-2 -106 -11 -106q0 -4 4 -4q-4 -35 -8 -35l4 -6q-25 -137 -30 -150l4 -6q-18 -63 -35 -178h-4l4 -8v-4q0 -4 -4 -5l4 -6l-15 -57q0 -4 5 -4l-5 -19v-8l5 -18q-14 -8 -31 -39q-4 0 -41 -6q-4 0 -4 4l-8 -4h-4q-6 0 -23 26q0 4 4 4l-4 7v4l8 12q0 2 -4 2 q4 41 19 96q-4 6 -5 11h5l-5 8q8 16 17 67q-4 0 -4 4q8 0 8 9l-4 18q12 0 55 295h4q0 4 -4 4q4 27 8 27q0 4 -4 4q8 82 21 151l-4 8q4 18 6 19q0 4 -2 4q0 18 41 330q0 4 -4 4q23 186 45 309q39 10 39 16l6 -4zM262 1206q-16 -115 -20 -116l4 -9q-2 -33 -6 -32q0 -4 2 -5 q-2 -51 -29 -178q0 -4 2 -4q-6 -47 -6 -98h-4l4 -8l-4 -23v-4h37q4 0 4 -4q4 0 4 4l18 -4h27q8 0 16 4q6 -4 15 -4h30l19 4q-45 287 -99 422q-8 55 -14 55z" />
<glyph unicode="&#xc6;" horiz-adv-x="1222" d="M795 1380l16 -2h45l23 2q37 -2 36 -6l9 4h37q51 -20 51 -37v-18l-47 -45l-21 2l-16 -2q-39 2 -39 6l-6 -4h-60q-8 0 -14 4q-6 -4 -14 -4q-4 0 -4 4l-9 -4q-4 0 -4 4l-18 -4h69l-18 -2v2l-8 -2h-31q-66 0 -129 -8l-6 4q-8 -4 -12 -4q14 -106 14 -185l4 -8l-4 -8 q0 -14 4 -20q-4 -49 -4 -78v-115q0 -14 4 -31q-4 -14 -4 -28v-29q0 -16 4 -31q-4 -14 -4 -28v-41q0 -8 4 -17q-4 -6 -4 -12q14 -8 31 -8h8q6 0 14 4l6 -4q8 4 17 4v-4l8 4q6 0 12 -4l8 4l19 -4l26 4l15 -4l22 4q2 0 15 -4q6 4 14 4v-4l8 4q2 0 -112 -4l8 4q4 -4 14 -4 q18 0 19 8l18 -4q20 0 25 4q20 -4 34 -4h29l8 -4q0 4 2 4q37 -25 37 -45v-8q-25 -43 -76 -43h-30q-8 0 -15 -4q-37 4 -37 6l-8 -2h-6q-4 0 -4 2l-8 -2h-19q127 0 121 2q-6 -2 -14 -2h-4q-4 0 -4 2l-6 -2h-68q-8 0 -14 -4q-6 4 -17 4h-24l-37 -4v4q-31 -6 -31 -17v-10 q0 -18 4 -37l-4 -22q0 -4 4 -4l-4 -19v-37q0 -8 4 -14q-4 -6 -4 -14v-5q2 -8 8 -8l-4 -8q0 -6 4 -14q-4 -6 -4 -11l8 -4q0 -8 -4 -8l8 -88q-4 -12 -4 -33l4 -8l-4 -8q4 -6 4 -10l-4 -6q6 -16 7 -41l-3 -9l80 -14l9 4l14 -4q4 0 10 4q20 -4 35 -4h14q12 0 13 4l18 -4h-84 q8 0 14 4l9 -4q6 4 14 4q4 0 4 -4l6 4h33l20 2v-2l6 2h5q70 0 122 13l5 -9l6 4h22q39 -31 41 -45q-23 -43 -41 -43q0 -8 -22 -8q-63 0 -170 -14q-6 4 -11 4q-4 0 -30 -4q-4 0 -4 4l-25 -4h35q-8 0 -14 -4q-8 4 -17 4h-6l-18 -4v4q-4 0 -4 -4l-142 14l-8 -4q-39 20 -39 35 q-4 0 -4 4v14q0 27 -6 41q0 43 12 43v21q0 72 -6 96q0 2 4 2l-4 37v72l-4 24h4l-4 8v11q0 4 4 4l-4 8v10q0 4 4 4l-4 6v35q0 14 -2 39q2 8 2 12q-8 6 -33 13l-6 -4h-12q-14 0 -33 4q-8 -4 -12 -4l-6 4q-8 -4 -17 -4q-4 0 -4 4q-166 -10 -166 -21q0 -14 -55 -162 q-4 0 -23 -55l-92 -270q-4 -4 -18 -33q-14 0 -15 -4q-59 0 -59 41v14q78 197 184 526q10 12 113 291q172 403 195 441l-5 8q10 29 41 41q16 18 60 18h4q6 -2 6 -8l39 8l6 -4l8 4q6 -4 11 -4l8 4q4 0 4 -4q49 8 139 8h45q4 0 4 -4l8 4q2 0 2 -4l-127 4h37q13 0 13 2z M537 1194q-43 -113 -152 -356q-78 -205 -78 -211h4q39 0 117 8l8 -4q27 4 41 4h55q4 0 5 -4q8 4 12 4v6q0 8 -4 14q4 6 4 17q0 10 -4 10l4 27v88l-4 26h4l-4 6v19q0 4 4 4l-4 8v6q0 39 4 82l-4 27l4 18q0 2 -4 2l4 27v27q0 18 -4 55h4l-4 6v23q0 16 -4 41q4 6 4 16z" />
<glyph unicode="&#xc7;" horiz-adv-x="636" d="M346 -61q-33 -59 -47 -84q31 -20 63 -66q0 -12 5 -33q0 -80 -76 -137q-14 -6 -25 -6l-16 2l-6 -2q-4 0 -4 2l-19 -2h-10l-8 2q0 -6 -6 -6h-9l-12 4v86q27 -6 41 -6q39 0 45 63q0 18 -18 31h-6v2q-49 -6 -62 27q-2 4 2 37q45 82 80 147h-4q-4 0 -4 4l-8 -4q-92 0 -174 201 l-27 106q0 4 4 4l-14 64h4l-4 8v8q0 2 4 2q-4 6 -8 43h4q-4 10 -8 45h4q-14 68 -15 84h2l-6 19q0 4 4 4q-8 39 -8 53h4q0 4 -4 4l4 19v6l-4 20h4l-4 6v39q0 4 4 4l-4 6q0 4 4 5l-8 38q4 33 8 33l-4 8v72q0 4 4 4q-4 8 -4 13l4 6q-4 8 -4 16q0 4 4 4l-4 6q0 279 86 402 q29 51 92 84q0 12 68 30h18q158 0 174 -80h-2l2 -8q0 -8 -32 -22v4l-9 -4q-68 23 -94 22l-18 -2v2l-8 -2q-4 0 -5 2q-94 -37 -129 -121q-12 -16 -36 -112l4 -8q-8 -31 -13 -90q0 -4 4 -13l-8 -116l4 -9l-4 -8q0 -12 4 -18q-4 -49 -4 -80v-76q0 -8 4 -14q-4 -6 -4 -17v-14 q0 -31 4 -80l-4 -8l17 -82h-4q6 -20 14 -80l-4 -8q8 -14 8 -23h-4q10 -68 14 -84l-2 -6q23 -123 76 -194q35 -37 53 -37q96 0 180 86q20 4 23 4q49 -6 49 -45q4 0 4 -4v-10l-80 -70q-8 0 -22 -14q-14 -6 -29 -11q-25 -44 -45 -77z" />
<glyph unicode="&#xc8;" horiz-adv-x="614" d="M8 1778h25q86 -88 233 -207q16 -29 17 -35q0 -37 -54 -47q0 4 -4 4q0 -8 -6 -8h-8q-20 0 -33 26q-8 0 -100 78q-82 55 -119 117v4q0 31 45 64q0 4 4 4zM164 1403l2 -8q4 0 4 4l20 -4h78q14 0 35 -4q6 4 14 4l9 -4q8 4 12 4l6 -4q8 4 16 4q18 -8 33 -35q-8 -49 -90 -49 l-14 4q-92 4 -119 4v4l-6 -4h-66v-19q0 -4 -4 -4l4 -8v-18q0 -18 -8 -19q8 -20 8 -26h-4q0 -4 4 -4q0 -4 -4 -13q0 -2 4 -22l-4 -35q4 -18 4 -37h-4q0 -4 4 -4q0 -8 -4 -14q4 -53 4 -92v-23l4 -23q-4 -6 -4 -18q0 -25 8 -53h-4l4 -8q0 -4 -4 -5l4 -6l-4 -26l4 -39h-4 q8 -14 9 -31v-10h26q10 0 10 4l19 -4h16q20 0 54 4l6 -4q20 4 34 4q27 0 39 -35q0 -35 -53 -53l-26 4h-58l-26 -4v4l-31 -8q0 8 -6 8l-4 -8v-15q0 -12 4 -12l-4 -18v-35q0 -8 4 -14q0 -4 -4 -5l4 -14q-4 -98 -4 -133l4 -8l-4 -6l4 -21l-4 -6q4 -20 6 -20l-2 -19v-133 q0 -8 2 -14q-2 -6 -2 -15v-39l2 -22v-14q51 -8 151 -9h4q8 0 17 4q6 -4 14 -4h35q12 0 33 4q4 0 4 -4l39 4h49q31 -18 31 -45q-29 -43 -52 -43q0 -4 -24 -6l-8 2l-17 -2l-22 2q-4 0 -4 -2l-19 2h-4l-22 -2q-6 2 -11 2l-16 -2q-20 2 -29 2l-8 -2q-8 2 -12 2l-33 -2v2l-8 -2 h-12q-8 0 -15 2q-6 -2 -14 -2l-17 2q-6 -2 -18 -2v2q-4 0 -4 -2l-19 2h-12q-23 -2 -22 -10l-19 4l-14 -8q-8 4 -21 4v4q0 4 5 4q-8 12 -9 29v129q0 4 4 4l-4 8v15q0 4 4 4l-4 8v6q0 4 4 4l-4 8v201q0 8 4 14l-4 9q4 6 4 16q0 2 -4 2l4 20v56l-4 39h4l-4 8v6q0 4 4 4l-4 8 v160q0 8 -2 14l2 9q0 6 -6 26q0 8 4 15q-8 80 -8 192v39l-4 18h4q0 4 -4 4q0 8 4 9q-4 76 -4 112v76q0 4 4 4l-4 8q0 16 4 37q-4 16 -4 27q39 39 76 39v-4q8 4 12 4l6 -4q6 4 17 4l14 -4q19 8 39 8z" />
<glyph unicode="&#xc9;" horiz-adv-x="614" d="M426 1774q43 -33 43 -64v-4q-37 -61 -119 -117q-92 -78 -98 -78q-12 -27 -35 -26h-6q-8 0 -8 8q-4 0 -4 -4q-51 10 -52 47q0 6 15 35q150 119 233 207h27q4 0 4 -4zM164 1403l2 -8q4 0 4 4l20 -4h78q14 0 35 -4q6 4 14 4l9 -4q8 4 12 4l6 -4q8 4 16 4q18 -8 33 -35 q-8 -49 -90 -49l-14 4q-92 4 -119 4v4l-6 -4h-66v-19q0 -4 -4 -4l4 -8v-18q0 -18 -8 -19q8 -20 8 -26h-4q0 -4 4 -4q0 -4 -4 -13q0 -2 4 -22l-4 -35q4 -18 4 -37h-4q0 -4 4 -4q0 -8 -4 -14q4 -53 4 -92v-23l4 -23q-4 -6 -4 -18q0 -25 8 -53h-4l4 -8q0 -4 -4 -5l4 -6l-4 -26 l4 -39h-4q8 -14 9 -31v-10h26q10 0 10 4l19 -4h16q20 0 54 4l6 -4q20 4 34 4q27 0 39 -35q0 -35 -53 -53l-26 4h-58l-26 -4v4l-31 -8q0 8 -6 8l-4 -8v-15q0 -12 4 -12l-4 -18v-35q0 -8 4 -14q0 -4 -4 -5l4 -14q-4 -98 -4 -133l4 -8l-4 -6l4 -21l-4 -6q4 -20 6 -20l-2 -19 v-133q0 -8 2 -14q-2 -6 -2 -15v-39l2 -22v-14q51 -8 151 -9h4q8 0 17 4q6 -4 14 -4h35q12 0 33 4q4 0 4 -4l39 4h49q31 -18 31 -45q-29 -43 -52 -43q0 -4 -24 -6l-8 2l-17 -2l-22 2q-4 0 -4 -2l-19 2h-4l-22 -2q-6 2 -11 2l-16 -2q-20 2 -29 2l-8 -2q-8 2 -12 2l-33 -2v2 l-8 -2h-12q-8 0 -15 2q-6 -2 -14 -2l-17 2q-6 -2 -18 -2v2q-4 0 -4 -2l-19 2h-12q-23 -2 -22 -10l-19 4l-14 -8q-8 4 -21 4v4q0 4 5 4q-8 12 -9 29v129q0 4 4 4l-4 8v15q0 4 4 4l-4 8v6q0 4 4 4l-4 8v201q0 8 4 14l-4 9q4 6 4 16q0 2 -4 2l4 20v56l-4 39h4l-4 8v6q0 4 4 4 l-4 8v160q0 8 -2 14l2 9q0 6 -6 26q0 8 4 15q-8 80 -8 192v39l-4 18h4q0 4 -4 4q0 8 4 9q-4 76 -4 112v76q0 4 4 4l-4 8q0 16 4 37q-4 16 -4 27q39 39 76 39v-4q8 4 12 4l6 -4q6 4 17 4l14 -4q19 8 39 8z" />
<glyph unicode="&#xca;" horiz-adv-x="614" d="M166 1763h4q2 0 2 -2l8 2q66 -39 139 -143q53 -70 54 -78q0 -8 8 -18v-27q-16 -20 -35 -29q-2 0 -2 5l-8 -5h-8q-4 0 -4 5l-7 -5q-4 0 -4 5l-6 -5q-10 0 -12 19l-8 -4q-47 88 -111 147q-10 -14 -47 -133q-16 -31 -37 -47l-8 2l-10 -6q-55 6 -56 55v15q29 55 74 174 q10 0 29 59q27 14 45 14zM164 1403l2 -8q4 0 4 4l20 -4h78q14 0 35 -4q6 4 14 4l9 -4q8 4 12 4l6 -4q8 4 16 4q18 -8 33 -35q-8 -49 -90 -49l-14 4q-92 4 -119 4v4l-6 -4h-66v-19q0 -4 -4 -4l4 -8v-18q0 -18 -8 -19q8 -20 8 -26h-4q0 -4 4 -4q0 -4 -4 -13q0 -2 4 -22l-4 -35 q4 -18 4 -37h-4q0 -4 4 -4q0 -8 -4 -14q4 -53 4 -92v-23l4 -23q-4 -6 -4 -18q0 -25 8 -53h-4l4 -8q0 -4 -4 -5l4 -6l-4 -26l4 -39h-4q8 -14 9 -31v-10h26q10 0 10 4l19 -4h16q20 0 54 4l6 -4q20 4 34 4q27 0 39 -35q0 -35 -53 -53l-26 4h-58l-26 -4v4l-31 -8q0 8 -6 8l-4 -8 v-15q0 -12 4 -12l-4 -18v-35q0 -8 4 -14q0 -4 -4 -5l4 -14q-4 -98 -4 -133l4 -8l-4 -6l4 -21l-4 -6q4 -20 6 -20l-2 -19v-133q0 -8 2 -14q-2 -6 -2 -15v-39l2 -22v-14q51 -8 151 -9h4q8 0 17 4q6 -4 14 -4h35q12 0 33 4q4 0 4 -4l39 4h49q31 -18 31 -45q-29 -43 -52 -43 q0 -4 -24 -6l-8 2l-17 -2l-22 2q-4 0 -4 -2l-19 2h-4l-22 -2q-6 2 -11 2l-16 -2q-20 2 -29 2l-8 -2q-8 2 -12 2l-33 -2v2l-8 -2h-12q-8 0 -15 2q-6 -2 -14 -2l-17 2q-6 -2 -18 -2v2q-4 0 -4 -2l-19 2h-12q-23 -2 -22 -10l-19 4l-14 -8q-8 4 -21 4v4q0 4 5 4q-8 12 -9 29v129 q0 4 4 4l-4 8v15q0 4 4 4l-4 8v6q0 4 4 4l-4 8v201q0 8 4 14l-4 9q4 6 4 16q0 2 -4 2l4 20v56l-4 39h4l-4 8v6q0 4 4 4l-4 8v160q0 8 -2 14l2 9q0 6 -6 26q0 8 4 15q-8 80 -8 192v39l-4 18h4q0 4 -4 4q0 8 4 9q-4 76 -4 112v76q0 4 4 4l-4 8q0 16 4 37q-4 16 -4 27 q39 39 76 39v-4q8 4 12 4l6 -4q6 4 17 4l14 -4q19 8 39 8z" />
<glyph unicode="&#xcb;" horiz-adv-x="614" d="M-29 1550l4 6q-4 6 -4 17q47 57 84 57h15q59 -16 59 -47q8 0 8 -33h-4l4 -8q0 -31 -67 -59h-15q-39 0 -80 53q0 6 -4 14zM272 1569q0 41 64 61h29q35 -16 59 -59l-4 -19v-24q-31 -49 -66 -49q-78 10 -78 73q-4 1 -4 17zM164 1403l2 -8q4 0 4 4l20 -4h78q14 0 35 -4 q6 4 14 4l9 -4q8 4 12 4l6 -4q8 4 16 4q18 -8 33 -35q-8 -49 -90 -49l-14 4q-92 4 -119 4v4l-6 -4h-66v-19q0 -4 -4 -4l4 -8v-18q0 -18 -8 -19q8 -20 8 -26h-4q0 -4 4 -4q0 -4 -4 -13q0 -2 4 -22l-4 -35q4 -18 4 -37h-4q0 -4 4 -4q0 -8 -4 -14q4 -53 4 -92v-23l4 -23 q-4 -6 -4 -18q0 -25 8 -53h-4l4 -8q0 -4 -4 -5l4 -6l-4 -26l4 -39h-4q8 -14 9 -31v-10h26q10 0 10 4l19 -4h16q20 0 54 4l6 -4q20 4 34 4q27 0 39 -35q0 -35 -53 -53l-26 4h-58l-26 -4v4l-31 -8q0 8 -6 8l-4 -8v-15q0 -12 4 -12l-4 -18v-35q0 -8 4 -14q0 -4 -4 -5l4 -14 q-4 -98 -4 -133l4 -8l-4 -6l4 -21l-4 -6q4 -20 6 -20l-2 -19v-133q0 -8 2 -14q-2 -6 -2 -15v-39l2 -22v-14q51 -8 151 -9h4q8 0 17 4q6 -4 14 -4h35q12 0 33 4q4 0 4 -4l39 4h49q31 -18 31 -45q-29 -43 -52 -43q0 -4 -24 -6l-8 2l-17 -2l-22 2q-4 0 -4 -2l-19 2h-4l-22 -2 q-6 2 -11 2l-16 -2q-20 2 -29 2l-8 -2q-8 2 -12 2l-33 -2v2l-8 -2h-12q-8 0 -15 2q-6 -2 -14 -2l-17 2q-6 -2 -18 -2v2q-4 0 -4 -2l-19 2h-12q-23 -2 -22 -10l-19 4l-14 -8q-8 4 -21 4v4q0 4 5 4q-8 12 -9 29v129q0 4 4 4l-4 8v15q0 4 4 4l-4 8v6q0 4 4 4l-4 8v201q0 8 4 14 l-4 9q4 6 4 16q0 2 -4 2l4 20v56l-4 39h4l-4 8v6q0 4 4 4l-4 8v160q0 8 -2 14l2 9q0 6 -6 26q0 8 4 15q-8 80 -8 192v39l-4 18h4q0 4 -4 4q0 8 4 9q-4 76 -4 112v76q0 4 4 4l-4 8q0 16 4 37q-4 16 -4 27q39 39 76 39v-4q8 4 12 4l6 -4q6 4 17 4l14 -4q19 8 39 8z" />
<glyph unicode="&#xcc;" horiz-adv-x="294" d="M-152 1778h25q84 -88 233 -207q16 -29 17 -35q0 -37 -53 -47q0 4 -4 4q0 -8 -7 -8h-8q-20 0 -33 26q-8 0 -100 78q-82 55 -119 117v4q0 31 45 64q0 4 4 4zM61 1409h2q53 -14 54 -45v-12q-6 0 -6 -6q6 -2 6 -9q0 -4 -2 -4q2 -20 2 -30l-2 -27q2 -6 2 -10h-2l2 -9v-4 q0 -2 -2 -2l2 -8v-8q0 -12 -2 -18l6 -41h-4q4 -8 4 -13q-6 -12 -6 -18l2 -21h-2q0 -2 2 -2l-2 -20q0 -2 2 -2l-2 -21v-71q0 -4 -4 -4l4 -7q0 -14 6 -133h-4l4 -8q0 -10 -4 -31q4 -18 4 -22q-4 -27 -4 -45l4 -8q-4 -8 -6 -33l2 -8q0 -4 -2 -4l2 -19v-80q0 -4 -2 -4l2 -8v-10 q0 -4 -2 -4l2 -9q0 -2 -2 -2q2 -47 6 -47l-4 -18v-53q-10 -47 -11 -160q0 -4 -4 -10l4 -23v-22q0 -8 -4 -17q4 -4 9 -67l-5 -9q4 -6 5 -14h-5q8 -10 11 -49h-2l2 -8q0 -4 -2 -4q2 -25 6 -33q-33 -35 -41 -35h-12q-45 14 -45 18q-10 27 -11 43h2q-6 16 -6 60q0 4 4 4 q-8 14 -8 31v34q0 2 4 3l-4 8v45q0 12 -4 20q18 193 18 228v28q0 12 -4 21l4 22v53q0 8 -4 15l4 8l-4 37l4 39q-4 14 -4 33h4q0 4 -4 4l4 18v27q0 25 5 57q-8 41 -11 125q2 6 2 16q-6 18 -6 27h4l-4 6q0 4 4 4q0 4 -4 4l10 162q-4 14 -6 133l2 8q0 4 -2 5q0 53 15 53 q14 10 34 10z" />
<glyph unicode="&#xcd;" horiz-adv-x="276" d="M307 1774q45 -33 45 -64v-4q-37 -61 -119 -117q-92 -78 -100 -78q-10 -27 -33 -26h-8q-6 0 -6 8q-4 0 -4 -4q-51 10 -51 47q0 6 14 35q150 119 234 207h24q4 0 4 -4zM61 1409h2q53 -14 54 -45v-12q-6 0 -6 -6q6 -2 6 -9q0 -4 -2 -4q2 -20 2 -30l-2 -27q2 -6 2 -10h-2 l2 -9v-4q0 -2 -2 -2l2 -8v-8q0 -12 -2 -18l6 -41h-4q4 -8 4 -13q-6 -12 -6 -18l2 -21h-2q0 -2 2 -2l-2 -20q0 -2 2 -2l-2 -21v-71q0 -4 -4 -4l4 -7q0 -14 6 -133h-4l4 -8q0 -10 -4 -31q4 -18 4 -22q-4 -27 -4 -45l4 -8q-4 -8 -6 -33l2 -8q0 -4 -2 -4l2 -19v-80q0 -4 -2 -4 l2 -8v-10q0 -4 -2 -4l2 -9q0 -2 -2 -2q2 -47 6 -47l-4 -18v-53q-10 -47 -11 -160q0 -4 -4 -10l4 -23v-22q0 -8 -4 -17q4 -4 9 -67l-5 -9q4 -6 5 -14h-5q8 -10 11 -49h-2l2 -8q0 -4 -2 -4q2 -25 6 -33q-33 -35 -41 -35h-12q-45 14 -45 18q-10 27 -11 43h2q-6 16 -6 60 q0 4 4 4q-8 14 -8 31v34q0 2 4 3l-4 8v45q0 12 -4 20q18 193 18 228v28q0 12 -4 21l4 22v53q0 8 -4 15l4 8l-4 37l4 39q-4 14 -4 33h4q0 4 -4 4l4 18v27q0 25 5 57q-8 41 -11 125q2 6 2 16q-6 18 -6 27h4l-4 6q0 4 4 4q0 4 -4 4l10 162q-4 14 -6 133l2 8q0 4 -2 5 q0 53 15 53q14 10 34 10z" />
<glyph unicode="&#xce;" horiz-adv-x="333" d="M68 1763h4q4 0 4 -2l8 2q63 -39 139 -143q51 -70 51 -78t9 -18v-27q-16 -20 -33 -29q-4 0 -4 5l-8 -5h-7q-4 0 -4 5l-8 -5q-4 0 -4 5l-6 -5q-10 0 -10 19l-9 -4q-47 88 -110 147q-12 -14 -49 -133q-16 -31 -37 -47l-6 2l-13 -6q-55 6 -55 55v15q31 55 74 174q10 0 31 59 q25 14 43 14zM61 1409h2q53 -14 54 -45v-12q-6 0 -6 -6q6 -2 6 -9q0 -4 -2 -4q2 -20 2 -30l-2 -27q2 -6 2 -10h-2l2 -9v-4q0 -2 -2 -2l2 -8v-8q0 -12 -2 -18l6 -41h-4q4 -8 4 -13q-6 -12 -6 -18l2 -21h-2q0 -2 2 -2l-2 -20q0 -2 2 -2l-2 -21v-71q0 -4 -4 -4l4 -7 q0 -14 6 -133h-4l4 -8q0 -10 -4 -31q4 -18 4 -22q-4 -27 -4 -45l4 -8q-4 -8 -6 -33l2 -8q0 -4 -2 -4l2 -19v-80q0 -4 -2 -4l2 -8v-10q0 -4 -2 -4l2 -9q0 -2 -2 -2q2 -47 6 -47l-4 -18v-53q-10 -47 -11 -160q0 -4 -4 -10l4 -23v-22q0 -8 -4 -17q4 -4 9 -67l-5 -9q4 -6 5 -14 h-5q8 -10 11 -49h-2l2 -8q0 -4 -2 -4q2 -25 6 -33q-33 -35 -41 -35h-12q-45 14 -45 18q-10 27 -11 43h2q-6 16 -6 60q0 4 4 4q-8 14 -8 31v34q0 2 4 3l-4 8v45q0 12 -4 20q18 193 18 228v28q0 12 -4 21l4 22v53q0 8 -4 15l4 8l-4 37l4 39q-4 14 -4 33h4q0 4 -4 4l4 18v27 q0 25 5 57q-8 41 -11 125q2 6 2 16q-6 18 -6 27h4l-4 6q0 4 4 4q0 4 -4 4l10 162q-4 14 -6 133l2 8q0 4 -2 5q0 53 15 53q14 10 34 10z" />
<glyph unicode="&#xcf;" horiz-adv-x="325" d="M-135 1550l4 6q-4 6 -4 17q49 57 86 57h14q59 -16 60 -47q8 0 8 -33h-4l4 -8q0 -31 -68 -59h-14q-41 0 -82 53q0 6 -4 14zM168 1569q0 41 61 61h29q37 -16 61 -59l-4 -19v-24q-31 -49 -67 -49q-78 10 -78 73q-2 1 -2 17zM82 1409h2q53 -14 53 -45v-12q-6 0 -6 -6 q6 -2 6 -9q0 -4 -2 -4q2 -20 2 -30l-2 -27q2 -6 2 -10h-2l2 -9v-4q0 -2 -2 -2l2 -8v-8q0 -12 -2 -18l6 -41h-4q4 -8 4 -13q-6 -12 -6 -18l2 -21h-2q0 -2 2 -2l-2 -20q0 -2 2 -2l-2 -21v-71q0 -4 -4 -4l4 -7q0 -14 6 -133h-4l4 -8q0 -10 -4 -31q4 -18 4 -22q-4 -27 -4 -45 l4 -8q-4 -8 -6 -33l2 -8q0 -4 -2 -4l2 -19v-80q0 -4 -2 -4l2 -8v-10q0 -4 -2 -4l2 -9q0 -2 -2 -2q2 -47 6 -47l-4 -18v-53q-10 -47 -10 -160q0 -4 -4 -10l4 -23v-22q0 -8 -4 -17q4 -4 8 -67l-4 -9q4 -6 4 -14h-4q8 -10 10 -49h-2l2 -8q0 -4 -2 -4q2 -25 6 -33 q-33 -35 -41 -35h-12q-45 14 -45 18q-10 27 -10 43h2q-6 16 -6 60q0 4 4 4q-8 14 -8 31v34q0 2 4 3l-4 8v45q0 12 -5 20q18 193 19 228v28q0 12 -4 21l4 22v53q0 8 -4 15l4 8l-4 37l4 39q-4 14 -4 33h4q0 4 -4 4l4 18v27q0 25 4 57q-8 41 -10 125q2 6 2 16q-6 18 -6 27h4 l-4 6q0 4 4 4q0 4 -4 4l10 162q-4 14 -6 133l2 8q0 4 -2 5q0 53 14 53q15 10 35 10z" />
<glyph unicode="&#xd0;" horiz-adv-x="653" d="M129 643q0 -4 -4 -4q8 -43 8 -57h-4l4 -9v-86q0 -49 6 -67q-2 -8 -2 -12q2 -8 2 -11h-2l2 -8v-61l4 -45h-4l4 -9v-41q0 -8 4 -14q-4 -8 -4 -16v-41l4 -19h-4l4 -8q0 -4 -4 -4l9 -53q8 0 26 8q4 0 4 -4q82 0 117 129q35 72 53 330q4 4 4 80v32q0 88 -8 129h4l-22 160h4 q-4 29 -12 37l4 20q-39 242 -84 314q-37 49 -105 49q-23 -2 -22 -6q0 -10 2 -17l-2 -26q6 -39 6 -41q-4 0 -4 -4q4 0 4 -4l-6 -4l6 -37q-6 -14 -6 -43v-181q0 -16 -4 -30q4 -14 4 -31v-14q0 -84 6 -123h-4l4 -6q0 -12 -4 -19l4 -45h10l14 -2q4 2 13 2h2q6 0 10 -2l6 2l4 -2 q2 0 2 2l11 -2q23 2 26 2v-2q8 6 21 6h6q10 0 18 -45h2q0 -39 -22 -47q-2 0 -2 -4l-19 4h-47q-4 0 -4 2l-4 -2h-16q-6 0 -13 2q-2 -2 -8 -2h-2zM18 731q-2 16 -4 37h4q0 4 -4 4q-2 80 -2 121v35l-4 24h4l-4 9v22q0 20 4 35q-4 20 -4 37v43q0 8 -4 14q4 8 4 12l-4 15l4 8 q0 4 -4 4l4 18v45l4 23q-4 6 -4 18v5l4 22l-4 8q4 6 4 17q-4 10 -8 10l4 26l-4 23q4 6 4 16q-8 25 -8 33v8q14 37 61 37v-2q2 0 2 2q4 0 13 -2q4 0 30 2q88 0 170 -49q78 -59 111 -174l37 -182q-4 -6 -4 -11l8 -4l-4 -8q12 -90 18 -112l-2 -17q2 -39 11 -59q0 -4 -5 -4 q12 -133 17 -133l-4 -27v-68q0 -115 -8 -143l4 -8q-12 -41 -13 -49v-27q0 -4 -2 -4q0 -4 2 -4q-25 -160 -51 -215q-20 -70 -65 -111q-37 -29 -37 -33q-51 -25 -88 -24v4l-64 -18q-43 8 -43 12l-6 -4h-4q-39 14 -39 49l-4 18l4 15q-4 20 -4 34h4l-4 9v94l-2 45h2q-2 8 -2 12 t2 4l-2 19v37q0 14 -4 34q0 4 4 4q-4 8 -8 111h4q-4 18 -8 19l4 18v12q0 8 -4 15q0 4 4 4l-4 18v4q0 10 4 10q-6 51 -8 62l4 8q-23 0 -56 2q-4 -2 -8 -2q-6 2 -8 2l-4 -2q-4 0 -4 2l-45 -6q-45 10 -45 37q0 16 26 41q0 12 4 12l7 -4q2 0 2 4q4 0 8 -4q61 6 110 6h4z" />
<glyph unicode="&#xd1;" horiz-adv-x="794" d="M90 1444q242 -231 406 -432q16 -14 16 -23h6l-2 8q0 4 2 4l-2 7v4q0 4 2 4l-2 8v23l-4 22q4 8 4 12l-4 6l4 9l-4 18l4 16q0 4 -4 5l4 24v39q0 8 -4 14q0 4 4 5q-8 59 -16 69q0 2 4 10l-4 19q4 8 4 12l-4 8q4 6 4 15l-8 12q29 68 49 68v-5q14 8 30 9q8 -2 9 -9l8 5 q18 -16 18 -35h-4q8 -18 8 -27l-8 -4l4 -18v-5q0 -8 -4 -14q4 -23 8 -22l-4 -19q0 -10 4 -31q0 -4 -4 -12q4 -39 4 -59v-17q0 -10 4 -10l-4 -20v-82q0 -10 4 -17l-4 -6q4 -8 4 -16l-8 -4q4 -2 8 -64l-4 -16q0 -2 4 -2l-4 -39v-31q0 -4 -4 -4l8 -45q-4 -6 -4 -14v-27 q0 -4 -4 -4q0 -4 4 -4l-4 -19v-4q0 -8 4 -14q-4 -8 -4 -12t4 -4l-4 -15q4 -117 4 -147q-2 -43 -8 -43l4 -6v-66q0 -4 -4 -4l4 -6q4 -84 4 -111h-4l4 -8l-4 -18q4 -20 4 -31h-4l4 -6v-31l4 -22q-4 -8 -4 -13q4 -6 4 -10h-4l4 -8v-4q0 -12 -4 -19l7 -67q-6 -16 -7 -43l4 -8h-4 l4 -7q0 -35 -57 -57q-45 6 -45 18q2 0 2 5q-10 0 -10 8h4l-4 8q8 12 8 29v92l-4 22l4 9q0 2 -4 2l4 20q0 4 -4 10q4 6 4 17l-4 6q0 4 4 4l-4 18q0 12 4 13q-6 137 -12 137l8 72q-4 6 -4 10l8 16q-4 25 -4 41h4l-4 8q0 4 4 4l-4 7v8q0 4 4 4q0 4 -4 4q0 4 4 10q0 29 -8 98 l8 5l-4 8v14l4 8l-8 4q8 18 8 45l-4 27q0 4 4 4q-4 72 -20 72q4 0 4 4l-174 205q-119 139 -144 155l-67 64h-4q0 -18 -5 -45l15 -221h-4l4 -7v-18q0 -4 -4 -4q4 -8 8 -57h-4l4 -9v-4q0 -2 -4 -2q4 -16 8 -16l-4 -19v-34q0 -18 4 -58h-4l4 -6v-53q0 -8 4 -16l-4 -7 q4 -6 4 -16h-4l4 -6v-39q0 -8 4 -14q0 -4 -4 -5l4 -18v-43q0 -14 -4 -41q4 -4 4 -27h-4l4 -8v-41q0 -20 2 -63h-2l2 -8v-50q0 -18 -2 -38q4 -51 6 -60l-4 -8q4 -27 8 -35q0 -4 -4 -4q12 -78 13 -108q0 -61 -31 -76q-4 0 -4 4q-12 -8 -19 -8v4l-8 -4q-41 10 -41 45v12 q0 4 4 4q-4 6 -8 45h4q-14 53 -14 72l2 8q-2 6 -2 10l2 8q-2 6 -2 11l2 8q0 4 -2 4l2 14q-6 35 -6 39h4l-4 8q0 2 4 2l-4 9v8q0 18 4 37l-4 20q0 4 4 10l-8 58q8 0 8 8q-8 0 -8 6q8 12 8 21l-4 14q0 4 4 4l-4 27v59l-4 27h4l-4 8v37l-4 20h4l-4 6q4 8 4 13q0 4 -4 4 q2 31 8 30l-8 23l4 6q-4 8 -4 12l4 9q-8 18 -8 26l4 6q-4 8 -4 17q0 4 4 4l-4 6v31q0 20 -5 65l9 2q-2 8 -9 54h5l-5 8q0 4 5 4l-5 8v45q0 8 -4 14q0 4 4 5q-6 47 -6 94h2q-2 10 -6 45h4l-8 43q2 14 8 14q-4 4 -8 57h4l-4 9q0 10 -4 71q4 31 39 58h2l8 -4q12 6 41 10z M147 1743l9 -2l8 2q117 0 178 -90q45 -68 86 -72h16q37 45 37 72q12 43 23 63q14 0 22 8h9l8 -4q0 8 6 9h8q31 -27 31 -68l-4 -8q4 -6 4 -15v-8q0 -8 -4 -16l4 -6q-10 -47 -23 -58q-63 -76 -129 -75q-4 0 -22 4q-8 -4 -17 -4v4l-6 -4q-59 16 -102 75q-25 23 -31 41 q-8 0 -35 39l-33 10q-8 -2 -12 -2v2q-53 -29 -53 -77q-23 -53 -53 -54q-6 -4 -15 -4q-27 29 -30 58v14q0 51 41 111q34 45 79 55z" />
<glyph unicode="&#xd2;" horiz-adv-x="776" d="M106 1778h27q84 -88 232 -207q16 -29 16 -35q0 -37 -53 -47q0 4 -4 4q0 -8 -7 -8h-8q-20 0 -33 26q-8 0 -100 78q-82 55 -119 117v4q0 31 45 64q0 4 4 4zM289 1432h45q12 -18 112 -35q72 -43 80 -103q12 0 27 -45q27 -35 41 -194h-2l2 -6q0 -4 -2 -5l2 -8l-2 -8q6 0 6 -6 q0 -4 -4 -4l4 -19v-30q0 -4 -4 -4l4 -9v-28q0 -35 8 -66q0 -4 -4 -4l4 -18v-41q0 -10 4 -17l-4 -6q0 -4 4 -4l-4 -27v-124q0 -10 4 -17q-4 -27 -8 -26l4 -19q0 -27 -8 -41q4 -8 4 -16v-4q0 -2 -4 -2q0 -4 4 -4q-2 -45 -8 -46l4 -8q-10 -47 -27 -147h-2q0 -4 2 -4 q0 -43 -36 -117q-8 0 -13 -25q-33 -61 -86 -98q-27 -14 -26 -22q-63 -45 -121 -45q-115 18 -115 40q-74 70 -98 142q-35 92 -58 291h5l-19 204h4l-4 9v26q0 8 -4 15l4 8q0 4 -4 4l4 18v4q0 27 -4 84h4l-4 6q4 8 4 13q-4 6 -4 10h4q0 4 -4 4l8 76l-4 16q0 51 37 215v9 q10 0 27 57q45 80 69 117q68 72 131 79zM137 1130l2 -6q-10 0 -37 -168q0 -4 4 -4l-4 -18v-60q0 -43 -4 -110q4 -8 4 -12h-4l4 -7v-57q2 -27 9 -26l-5 -19v-53q0 -8 5 -17l-5 -6l5 -18h-5q8 -20 9 -27l-4 -8l10 -84h-4q23 -162 35 -182h-5q18 -72 54 -131q47 -57 80 -58 q47 0 90 54q35 0 92 147h4q0 4 -4 4q27 164 37 174l-4 8q16 76 16 91v196q0 31 4 72q-4 8 -4 12q4 14 4 27q-4 6 -4 10h4q-4 10 -8 49l4 27q0 20 -12 61h4l-4 8v29q0 4 4 4l-4 8q0 4 4 13q0 115 -80 256q0 23 -125 34q-61 -20 -98 -88l-35 -63q-6 -1 -29 -62z" />
<glyph unicode="&#xd3;" horiz-adv-x="770" d="M547 1774q43 -33 43 -64v-4q-35 -61 -117 -117q-94 -78 -100 -78q-12 -27 -35 -26h-6q-8 0 -8 8q-4 0 -5 -4q-51 10 -51 47q0 6 15 35q150 119 233 207h27q4 0 4 -4zM289 1432h45q12 -18 112 -35q72 -43 80 -103q12 0 27 -45q27 -35 41 -194h-2l2 -6q0 -4 -2 -5l2 -8 l-2 -8q6 0 6 -6q0 -4 -4 -4l4 -19v-30q0 -4 -4 -4l4 -9v-28q0 -35 8 -66q0 -4 -4 -4l4 -18v-41q0 -10 4 -17l-4 -6q0 -4 4 -4l-4 -27v-124q0 -10 4 -17q-4 -27 -8 -26l4 -19q0 -27 -8 -41q4 -8 4 -16v-4q0 -2 -4 -2q0 -4 4 -4q-2 -45 -8 -46l4 -8q-10 -47 -27 -147h-2 q0 -4 2 -4q0 -43 -36 -117q-8 0 -13 -25q-33 -61 -86 -98q-27 -14 -26 -22q-63 -45 -121 -45q-115 18 -115 40q-74 70 -98 142q-35 92 -58 291h5l-19 204h4l-4 9v26q0 8 -4 15l4 8q0 4 -4 4l4 18v4q0 27 -4 84h4l-4 6q4 8 4 13q-4 6 -4 10h4q0 4 -4 4l8 76l-4 16 q0 51 37 215v9q10 0 27 57q45 80 69 117q68 72 131 79zM137 1130l2 -6q-10 0 -37 -168q0 -4 4 -4l-4 -18v-60q0 -43 -4 -110q4 -8 4 -12h-4l4 -7v-57q2 -27 9 -26l-5 -19v-53q0 -8 5 -17l-5 -6l5 -18h-5q8 -20 9 -27l-4 -8l10 -84h-4q23 -162 35 -182h-5q18 -72 54 -131 q47 -57 80 -58q47 0 90 54q35 0 92 147h4q0 4 -4 4q27 164 37 174l-4 8q16 76 16 91v196q0 31 4 72q-4 8 -4 12q4 14 4 27q-4 6 -4 10h4q-4 10 -8 49l4 27q0 20 -12 61h4l-4 8v29q0 4 4 4l-4 8q0 4 4 13q0 115 -80 256q0 23 -125 34q-61 -20 -98 -88l-35 -63q-6 -1 -29 -62z " />
<glyph unicode="&#xd4;" horiz-adv-x="782" d="M295 1763h2q4 0 4 -2l8 2q66 -39 140 -143q53 -70 53 -78t6 -18v-27q-14 -20 -33 -29q-4 0 -4 5l-6 -5h-8q-4 0 -4 5l-7 -5q-4 0 -4 5l-8 -5q-10 0 -10 19l-8 -4q-47 88 -111 147q-10 -14 -49 -133q-14 -31 -37 -47l-6 2l-10 -6q-57 6 -58 55v15q31 55 74 174q10 0 31 59 q25 14 45 14zM289 1432h45q12 -18 112 -35q72 -43 80 -103q12 0 27 -45q27 -35 41 -194h-2l2 -6q0 -4 -2 -5l2 -8l-2 -8q6 0 6 -6q0 -4 -4 -4l4 -19v-30q0 -4 -4 -4l4 -9v-28q0 -35 8 -66q0 -4 -4 -4l4 -18v-41q0 -10 4 -17l-4 -6q0 -4 4 -4l-4 -27v-124q0 -10 4 -17 q-4 -27 -8 -26l4 -19q0 -27 -8 -41q4 -8 4 -16v-4q0 -2 -4 -2q0 -4 4 -4q-2 -45 -8 -46l4 -8q-10 -47 -27 -147h-2q0 -4 2 -4q0 -43 -36 -117q-8 0 -13 -25q-33 -61 -86 -98q-27 -14 -26 -22q-63 -45 -121 -45q-115 18 -115 40q-74 70 -98 142q-35 92 -58 291h5l-19 204h4 l-4 9v26q0 8 -4 15l4 8q0 4 -4 4l4 18v4q0 27 -4 84h4l-4 6q4 8 4 13q-4 6 -4 10h4q0 4 -4 4l8 76l-4 16q0 51 37 215v9q10 0 27 57q45 80 69 117q68 72 131 79zM137 1130l2 -6q-10 0 -37 -168q0 -4 4 -4l-4 -18v-60q0 -43 -4 -110q4 -8 4 -12h-4l4 -7v-57q2 -27 9 -26 l-5 -19v-53q0 -8 5 -17l-5 -6l5 -18h-5q8 -20 9 -27l-4 -8l10 -84h-4q23 -162 35 -182h-5q18 -72 54 -131q47 -57 80 -58q47 0 90 54q35 0 92 147h4q0 4 -4 4q27 164 37 174l-4 8q16 76 16 91v196q0 31 4 72q-4 8 -4 12q4 14 4 27q-4 6 -4 10h4q-4 10 -8 49l4 27 q0 20 -12 61h4l-4 8v29q0 4 4 4l-4 8q0 4 4 13q0 115 -80 256q0 23 -125 34q-61 -20 -98 -88l-35 -63q-6 -1 -29 -62z" />
<glyph unicode="&#xd5;" horiz-adv-x="782" d="M289 1432h45q12 -18 112 -35q72 -43 80 -103q12 0 27 -45q27 -35 41 -194h-2l2 -6q0 -4 -2 -5l2 -8l-2 -8q6 0 6 -6q0 -4 -4 -4l4 -19v-30q0 -4 -4 -4l4 -9v-28q0 -35 8 -66q0 -4 -4 -4l4 -18v-41q0 -10 4 -17l-4 -6q0 -4 4 -4l-4 -27v-124q0 -10 4 -17q-4 -27 -8 -26 l4 -19q0 -27 -8 -41q4 -8 4 -16v-4q0 -2 -4 -2q0 -4 4 -4q-2 -45 -8 -46l4 -8q-10 -47 -27 -147h-2q0 -4 2 -4q0 -43 -36 -117q-8 0 -13 -25q-33 -61 -86 -98q-27 -14 -26 -22q-63 -45 -121 -45q-115 18 -115 40q-74 70 -98 142q-35 92 -58 291h5l-19 204h4l-4 9v26 q0 8 -4 15l4 8q0 4 -4 4l4 18v4q0 27 -4 84h4l-4 6q4 8 4 13q-4 6 -4 10h4q0 4 -4 4l8 76l-4 16q0 51 37 215v9q10 0 27 57q45 80 69 117q68 72 131 79zM137 1130l2 -6q-10 0 -37 -168q0 -4 4 -4l-4 -18v-60q0 -43 -4 -110q4 -8 4 -12h-4l4 -7v-57q2 -27 9 -26l-5 -19v-53 q0 -8 5 -17l-5 -6l5 -18h-5q8 -20 9 -27l-4 -8l10 -84h-4q23 -162 35 -182h-5q18 -72 54 -131q47 -57 80 -58q47 0 90 54q35 0 92 147h4q0 4 -4 4q27 164 37 174l-4 8q16 76 16 91v196q0 31 4 72q-4 8 -4 12q4 14 4 27q-4 6 -4 10h4q-4 10 -8 49l4 27q0 20 -12 61h4l-4 8v29 q0 4 4 4l-4 8q0 4 4 13q0 115 -80 256q0 23 -125 34q-61 -20 -98 -88l-35 -63q-6 -1 -29 -62zM147 1743l9 -2l8 2q117 0 178 -90q45 -68 86 -72h16q37 45 37 72q12 43 23 63q14 0 22 8h9l8 -4q0 8 6 9h8q31 -27 31 -68l-4 -8q4 -6 4 -15v-8q0 -8 -4 -16l4 -6 q-10 -47 -23 -58q-63 -76 -129 -75q-4 0 -22 4q-8 -4 -17 -4v4l-6 -4q-59 16 -102 75q-25 23 -31 41q-8 0 -35 39l-33 10q-8 -2 -12 -2v2q-53 -29 -53 -77q-23 -53 -53 -54q-6 -4 -15 -4q-27 29 -30 58v14q0 51 41 111q34 45 79 55z" />
<glyph unicode="&#xd6;" horiz-adv-x="776" d="M92 1550l4 6q-4 6 -4 17q49 57 86 57h15q59 -16 59 -47q8 0 8 -33h-4l4 -8q0 -31 -67 -59h-15q-41 0 -82 53q0 6 -4 14zM395 1569q0 41 62 61h30q35 -16 60 -59l-4 -19v-24q-31 -49 -68 -49q-76 10 -76 73q-4 1 -4 17zM289 1432h45q12 -18 112 -35q72 -43 80 -103 q12 0 27 -45q27 -35 41 -194h-2l2 -6q0 -4 -2 -5l2 -8l-2 -8q6 0 6 -6q0 -4 -4 -4l4 -19v-30q0 -4 -4 -4l4 -9v-28q0 -35 8 -66q0 -4 -4 -4l4 -18v-41q0 -10 4 -17l-4 -6q0 -4 4 -4l-4 -27v-124q0 -10 4 -17q-4 -27 -8 -26l4 -19q0 -27 -8 -41q4 -8 4 -16v-4q0 -2 -4 -2 q0 -4 4 -4q-2 -45 -8 -46l4 -8q-10 -47 -27 -147h-2q0 -4 2 -4q0 -43 -36 -117q-8 0 -13 -25q-33 -61 -86 -98q-27 -14 -26 -22q-63 -45 -121 -45q-115 18 -115 40q-74 70 -98 142q-35 92 -58 291h5l-19 204h4l-4 9v26q0 8 -4 15l4 8q0 4 -4 4l4 18v4q0 27 -4 84h4l-4 6 q4 8 4 13q-4 6 -4 10h4q0 4 -4 4l8 76l-4 16q0 51 37 215v9q10 0 27 57q45 80 69 117q68 72 131 79zM137 1130l2 -6q-10 0 -37 -168q0 -4 4 -4l-4 -18v-60q0 -43 -4 -110q4 -8 4 -12h-4l4 -7v-57q2 -27 9 -26l-5 -19v-53q0 -8 5 -17l-5 -6l5 -18h-5q8 -20 9 -27l-4 -8 l10 -84h-4q23 -162 35 -182h-5q18 -72 54 -131q47 -57 80 -58q47 0 90 54q35 0 92 147h4q0 4 -4 4q27 164 37 174l-4 8q16 76 16 91v196q0 31 4 72q-4 8 -4 12q4 14 4 27q-4 6 -4 10h4q-4 10 -8 49l4 27q0 20 -12 61h4l-4 8v29q0 4 4 4l-4 8q0 4 4 13q0 115 -80 256 q0 23 -125 34q-61 -20 -98 -88l-35 -63q-6 -1 -29 -62z" />
<glyph unicode="&#xd7;" horiz-adv-x="587" d="M383 879q23 -2 37 -31q8 0 12 -31q0 -14 -106 -139q-23 -18 -23 -27q49 -57 137 -141q6 -27 6 -41q0 -25 -45 -35q-39 0 -86 58q-41 33 -79 88h-9q0 -12 -45 -62q-25 -27 -61 -84q-4 0 -23 -14l-8 4l-14 -4q-53 20 -53 41v22q6 2 102 129q12 0 35 43q-16 2 -133 117 q-10 0 -13 14l-6 -2q-8 14 -8 41q0 6 12 13l-4 6q18 27 55 26q39 -8 111 -94q49 -45 62 -45q106 131 116 131q8 1 31 17z" />
<glyph unicode="&#xd8;" horiz-adv-x="749" d="M346 1337q-20 4 -47 6q-61 -20 -98 -88l-35 -63q-6 0 -29 -62l2 -6q-10 0 -37 -168q0 -4 4 -4l-4 -18v-60q0 -43 -4 -110q4 -8 4 -12h-4l4 -7v-57q2 -27 9 -26l-5 -19v-53q0 -8 5 -17l-5 -6l5 -18h-5q8 -20 9 -27l-4 -8l10 -84h-4q10 -76 18 -121q23 127 41 266l19 66 l-5 8q95 432 156 688zM446 1268q-2 -6 -4 -15h-4l4 -8q-31 -106 -51 -246q-27 -94 -57 -243h-4q0 -6 4 -6q-53 -254 -58 -297h-4q4 -8 4 -13l-4 -8l4 -10q-8 -10 -12 -66l4 -8q-27 -94 -43 -258q31 -31 56 -31q47 0 90 54q35 0 92 147h4q0 4 -4 4q27 164 37 174l-4 8 q16 76 16 91v196q0 31 4 72q-4 8 -4 12q4 14 4 27q-4 6 -4 10h4q-4 10 -8 49l4 27q0 20 -12 61h4l-4 8v29q0 4 4 4l-4 8q0 4 4 13q-1 98 -58 215zM100 111q-16 27 -24 51q-35 92 -58 291h5l-19 204h4l-4 9v26q0 8 -4 15l4 8q0 4 -4 4l4 18v4q0 27 -4 84h4l-4 6q4 8 4 13 q-4 6 -4 10h4q0 4 -4 4l8 76l-4 16q0 51 37 215v9q10 0 27 57q45 80 69 117q68 72 131 79l21 5h45q6 -8 31 -17q14 63 26 113q29 35 51 35q61 -23 62 -66q-14 -47 -31 -119q47 -37 53 -84q12 0 27 -45q27 -35 41 -194h-2l2 -6q0 -4 -2 -5l2 -8l-2 -8q6 0 6 -6q0 -4 -4 -4 l4 -19v-30q0 -4 -4 -4l4 -9v-28q0 -35 8 -66q0 -4 -4 -4l4 -18v-41q0 -10 4 -17l-4 -6q0 -4 4 -4l-4 -27v-124q0 -10 4 -17q-4 -27 -8 -26l4 -19q0 -27 -8 -41q4 -8 4 -16v-4q0 -2 -4 -2q0 -4 4 -4q-2 -45 -8 -46l4 -8q-10 -47 -27 -147h-2q0 -4 2 -4q0 -43 -36 -117 q-8 0 -13 -25q-33 -61 -86 -98q-27 -14 -26 -22q-63 -45 -121 -45q-49 8 -78 16q0 -6 4 -14q-39 -88 -70 -88v-5q-74 14 -73 39v4h4q-4 8 -4 15q8 20 30 147l-4 10q0 5 2 7z" />
<glyph unicode="&#xd9;" horiz-adv-x="692" d="M100 1778h27q84 -88 231 -207q16 -29 17 -35q0 -37 -53 -47q0 4 -5 4q0 -8 -6 -8h-8q-20 0 -33 26q-8 0 -100 78q-82 55 -119 117v4q0 31 45 64q0 4 4 4zM41 1450q70 0 70 -57v-15l-5 -8q6 -8 11 -57q-6 0 -6 -6q4 -8 4 -13l-4 -8q4 -6 4 -10h-4l4 -8q-4 -27 -9 -27 q8 -23 9 -31l-4 -6l10 -30l-4 -9l4 -8l-4 -6q8 -41 8 -43q0 -4 -4 -4q4 -35 8 -45l-4 -23v-14l4 -23l-4 -8l4 -8l-4 -27q0 -4 4 -4l-8 -67q4 -33 4 -58v-49q0 -12 4 -33q-4 -8 -4 -16l4 -45l-4 -8q4 -6 8 -37q0 -4 -4 -12l8 -45l-4 -9q6 -14 6 -41v-4q0 -4 -2 -4l2 -6 q0 -4 -2 -4l2 -18v-13q0 -8 -2 -14q6 -14 10 -57h-4l4 -9q0 -4 -4 -4l4 -6l-4 -26l9 -39l-5 -6l9 -31h-4q8 -16 8 -23h-4q2 -12 14 -53q-4 -8 -4 -16q6 0 24 -56q10 -33 76 -73h37q78 0 117 198l-2 6q6 14 6 31v17q0 8 -4 14q4 6 4 14v4q0 16 -4 31q0 4 4 12q-4 31 -4 52v24 q0 12 4 33q-4 6 -4 16l4 6q-4 6 -4 17l4 6q-4 8 -4 12t4 4l-4 19l4 22q-4 14 -4 31v8q0 2 4 2l-4 8v13q0 4 4 4l-4 6v49q0 16 4 43l-4 6q4 8 4 13q0 4 -4 4l4 18v31l4 8q-8 0 -8 6q0 4 4 4l-4 19v57q0 4 4 4l-4 8v37q0 4 4 4q-4 8 -4 13q0 12 4 18q-4 20 -4 33v4q0 8 4 16 l-4 6q4 43 4 74q0 2 -4 10q4 6 4 15q0 6 -4 47q4 6 4 10q-6 12 -6 23v49q0 16 2 43q-2 6 -2 18q27 41 55 41q53 -16 53 -59q-8 -10 -8 -17q0 -12 4 -18l-4 -27q0 -10 4 -30q-4 -25 -4 -41q0 -2 4 -23q-4 -8 -4 -12q0 -8 4 -15l-6 -98q2 -14 2 -35h-2q2 -6 2 -10 q0 -14 -2 -80l2 -8q-2 -14 -2 -27l2 -22q0 -2 -2 -15q2 -33 2 -53h-2l2 -8v-41q0 -4 -2 -4q0 -4 2 -4q0 -2 -2 -14q0 -4 2 -13q-2 -37 -6 -37l6 -24l-2 -6l2 -21h-2l2 -6v-57q0 -14 -2 -35q2 -6 2 -14q-2 -39 -2 -45l2 -19q0 -4 -2 -12q6 -88 6 -107h-4l4 -8q0 -2 -4 -2 l4 -8q0 -66 -14 -111l4 -6l-16 -47q4 0 4 -2q-4 0 -15 -31q-16 -49 -94 -129q-59 -18 -110 -30q-45 10 -45 12l-9 -4q-6 0 -12 10l-6 -4q-94 53 -111 102q-27 66 -41 150l4 6q-8 27 -16 98h4l-4 8v31q0 8 -4 14q0 4 4 5l-18 241h4l-4 8q0 4 4 13q-4 39 -8 45q0 4 4 4l-9 102 h5l-5 6v25l-4 22q4 4 4 23l-4 6l4 8l-4 9q0 2 4 22l-4 27h4q0 4 -4 4l4 18v41q0 4 5 4l-5 8v35q0 47 -6 68q0 4 2 4l-6 37q4 8 4 12l-12 41l8 4l-8 41l4 21l-4 24l4 27q-4 35 -4 57q29 33 41 35z" />
<glyph unicode="&#xda;" horiz-adv-x="704" d="M492 1774q43 -33 43 -64v-4q-35 -61 -117 -117q-94 -78 -101 -78q-12 -27 -34 -26h-7q-8 0 -8 8q-4 0 -4 -4q-51 10 -51 47q0 6 14 35q150 119 234 207h26q5 0 5 -4zM41 1450q70 0 70 -57v-15l-5 -8q6 -8 11 -57q-6 0 -6 -6q4 -8 4 -13l-4 -8q4 -6 4 -10h-4l4 -8 q-4 -27 -9 -27q8 -23 9 -31l-4 -6l10 -30l-4 -9l4 -8l-4 -6q8 -41 8 -43q0 -4 -4 -4q4 -35 8 -45l-4 -23v-14l4 -23l-4 -8l4 -8l-4 -27q0 -4 4 -4l-8 -67q4 -33 4 -58v-49q0 -12 4 -33q-4 -8 -4 -16l4 -45l-4 -8q4 -6 8 -37q0 -4 -4 -12l8 -45l-4 -9q6 -14 6 -41v-4 q0 -4 -2 -4l2 -6q0 -4 -2 -4l2 -18v-13q0 -8 -2 -14q6 -14 10 -57h-4l4 -9q0 -4 -4 -4l4 -6l-4 -26l9 -39l-5 -6l9 -31h-4q8 -16 8 -23h-4q2 -12 14 -53q-4 -8 -4 -16q6 0 24 -56q10 -33 76 -73h37q78 0 117 198l-2 6q6 14 6 31v17q0 8 -4 14q4 6 4 14v4q0 16 -4 31 q0 4 4 12q-4 31 -4 52v24q0 12 4 33q-4 6 -4 16l4 6q-4 6 -4 17l4 6q-4 8 -4 12t4 4l-4 19l4 22q-4 14 -4 31v8q0 2 4 2l-4 8v13q0 4 4 4l-4 6v49q0 16 4 43l-4 6q4 8 4 13q0 4 -4 4l4 18v31l4 8q-8 0 -8 6q0 4 4 4l-4 19v57q0 4 4 4l-4 8v37q0 4 4 4q-4 8 -4 13q0 12 4 18 q-4 20 -4 33v4q0 8 4 16l-4 6q4 43 4 74q0 2 -4 10q4 6 4 15q0 6 -4 47q4 6 4 10q-6 12 -6 23v49q0 16 2 43q-2 6 -2 18q27 41 55 41q53 -16 53 -59q-8 -10 -8 -17q0 -12 4 -18l-4 -27q0 -10 4 -30q-4 -25 -4 -41q0 -2 4 -23q-4 -8 -4 -12q0 -8 4 -15l-6 -98q2 -14 2 -35h-2 q2 -6 2 -10q0 -14 -2 -80l2 -8q-2 -14 -2 -27l2 -22q0 -2 -2 -15q2 -33 2 -53h-2l2 -8v-41q0 -4 -2 -4q0 -4 2 -4q0 -2 -2 -14q0 -4 2 -13q-2 -37 -6 -37l6 -24l-2 -6l2 -21h-2l2 -6v-57q0 -14 -2 -35q2 -6 2 -14q-2 -39 -2 -45l2 -19q0 -4 -2 -12q6 -88 6 -107h-4l4 -8 q0 -2 -4 -2l4 -8q0 -66 -14 -111l4 -6l-16 -47q4 0 4 -2q-4 0 -15 -31q-16 -49 -94 -129q-59 -18 -110 -30q-45 10 -45 12l-9 -4q-6 0 -12 10l-6 -4q-94 53 -111 102q-27 66 -41 150l4 6q-8 27 -16 98h4l-4 8v31q0 8 -4 14q0 4 4 5l-18 241h4l-4 8q0 4 4 13q-4 39 -8 45 q0 4 4 4l-9 102h5l-5 6v25l-4 22q4 4 4 23l-4 6l4 8l-4 9q0 2 4 22l-4 27h4q0 4 -4 4l4 18v41q0 4 5 4l-5 8v35q0 47 -6 68q0 4 2 4l-6 37q4 8 4 12l-12 41l8 4l-8 41l4 21l-4 24l4 27q-4 35 -4 57q29 33 41 35z" />
<glyph unicode="&#xdb;" horiz-adv-x="704" d="M252 1763h4q2 0 2 -2l8 2q66 -39 142 -143q51 -70 51 -78t8 -18v-27q-16 -20 -35 -29q-2 0 -2 5l-8 -5h-8q-2 0 -2 5l-9 -5q-4 0 -4 5l-6 -5q-10 0 -12 19l-8 -4q-47 88 -111 147q-10 -14 -47 -133q-16 -31 -37 -47l-8 2l-10 -6q-55 6 -56 55v15q29 55 74 174q10 0 29 59 q27 14 45 14zM41 1450q70 0 70 -57v-15l-5 -8q6 -8 11 -57q-6 0 -6 -6q4 -8 4 -13l-4 -8q4 -6 4 -10h-4l4 -8q-4 -27 -9 -27q8 -23 9 -31l-4 -6l10 -30l-4 -9l4 -8l-4 -6q8 -41 8 -43q0 -4 -4 -4q4 -35 8 -45l-4 -23v-14l4 -23l-4 -8l4 -8l-4 -27q0 -4 4 -4l-8 -67 q4 -33 4 -58v-49q0 -12 4 -33q-4 -8 -4 -16l4 -45l-4 -8q4 -6 8 -37q0 -4 -4 -12l8 -45l-4 -9q6 -14 6 -41v-4q0 -4 -2 -4l2 -6q0 -4 -2 -4l2 -18v-13q0 -8 -2 -14q6 -14 10 -57h-4l4 -9q0 -4 -4 -4l4 -6l-4 -26l9 -39l-5 -6l9 -31h-4q8 -16 8 -23h-4q2 -12 14 -53 q-4 -8 -4 -16q6 0 24 -56q10 -33 76 -73h37q78 0 117 198l-2 6q6 14 6 31v17q0 8 -4 14q4 6 4 14v4q0 16 -4 31q0 4 4 12q-4 31 -4 52v24q0 12 4 33q-4 6 -4 16l4 6q-4 6 -4 17l4 6q-4 8 -4 12t4 4l-4 19l4 22q-4 14 -4 31v8q0 2 4 2l-4 8v13q0 4 4 4l-4 6v49q0 16 4 43 l-4 6q4 8 4 13q0 4 -4 4l4 18v31l4 8q-8 0 -8 6q0 4 4 4l-4 19v57q0 4 4 4l-4 8v37q0 4 4 4q-4 8 -4 13q0 12 4 18q-4 20 -4 33v4q0 8 4 16l-4 6q4 43 4 74q0 2 -4 10q4 6 4 15q0 6 -4 47q4 6 4 10q-6 12 -6 23v49q0 16 2 43q-2 6 -2 18q27 41 55 41q53 -16 53 -59 q-8 -10 -8 -17q0 -12 4 -18l-4 -27q0 -10 4 -30q-4 -25 -4 -41q0 -2 4 -23q-4 -8 -4 -12q0 -8 4 -15l-6 -98q2 -14 2 -35h-2q2 -6 2 -10q0 -14 -2 -80l2 -8q-2 -14 -2 -27l2 -22q0 -2 -2 -15q2 -33 2 -53h-2l2 -8v-41q0 -4 -2 -4q0 -4 2 -4q0 -2 -2 -14q0 -4 2 -13 q-2 -37 -6 -37l6 -24l-2 -6l2 -21h-2l2 -6v-57q0 -14 -2 -35q2 -6 2 -14q-2 -39 -2 -45l2 -19q0 -4 -2 -12q6 -88 6 -107h-4l4 -8q0 -2 -4 -2l4 -8q0 -66 -14 -111l4 -6l-16 -47q4 0 4 -2q-4 0 -15 -31q-16 -49 -94 -129q-59 -18 -110 -30q-45 10 -45 12l-9 -4q-6 0 -12 10 l-6 -4q-94 53 -111 102q-27 66 -41 150l4 6q-8 27 -16 98h4l-4 8v31q0 8 -4 14q0 4 4 5l-18 241h4l-4 8q0 4 4 13q-4 39 -8 45q0 4 4 4l-9 102h5l-5 6v25l-4 22q4 4 4 23l-4 6l4 8l-4 9q0 2 4 22l-4 27h4q0 4 -4 4l4 18v41q0 4 5 4l-5 8v35q0 47 -6 68q0 4 2 4l-6 37 q4 8 4 12l-12 41l8 4l-8 41l4 21l-4 24l4 27q-4 35 -4 57q29 33 41 35z" />
<glyph unicode="&#xdc;" horiz-adv-x="704" d="M41 1550l2 6q-2 6 -2 17q47 57 84 57h14q59 -16 60 -47q8 0 8 -33h-4l4 -8q0 -31 -68 -59h-14q-41 0 -82 53q0 6 -2 14zM342 1569q0 41 64 61h28q35 -16 60 -59l-5 -19v-24q-31 -49 -65 -49q-78 10 -78 73q-4 1 -4 17zM41 1450q70 0 70 -57v-15l-5 -8q6 -8 11 -57 q-6 0 -6 -6q4 -8 4 -13l-4 -8q4 -6 4 -10h-4l4 -8q-4 -27 -9 -27q8 -23 9 -31l-4 -6l10 -30l-4 -9l4 -8l-4 -6q8 -41 8 -43q0 -4 -4 -4q4 -35 8 -45l-4 -23v-14l4 -23l-4 -8l4 -8l-4 -27q0 -4 4 -4l-8 -67q4 -33 4 -58v-49q0 -12 4 -33q-4 -8 -4 -16l4 -45l-4 -8q4 -6 8 -37 q0 -4 -4 -12l8 -45l-4 -9q6 -14 6 -41v-4q0 -4 -2 -4l2 -6q0 -4 -2 -4l2 -18v-13q0 -8 -2 -14q6 -14 10 -57h-4l4 -9q0 -4 -4 -4l4 -6l-4 -26l9 -39l-5 -6l9 -31h-4q8 -16 8 -23h-4q2 -12 14 -53q-4 -8 -4 -16q6 0 24 -56q10 -33 76 -73h37q78 0 117 198l-2 6q6 14 6 31v17 q0 8 -4 14q4 6 4 14v4q0 16 -4 31q0 4 4 12q-4 31 -4 52v24q0 12 4 33q-4 6 -4 16l4 6q-4 6 -4 17l4 6q-4 8 -4 12t4 4l-4 19l4 22q-4 14 -4 31v8q0 2 4 2l-4 8v13q0 4 4 4l-4 6v49q0 16 4 43l-4 6q4 8 4 13q0 4 -4 4l4 18v31l4 8q-8 0 -8 6q0 4 4 4l-4 19v57q0 4 4 4l-4 8 v37q0 4 4 4q-4 8 -4 13q0 12 4 18q-4 20 -4 33v4q0 8 4 16l-4 6q4 43 4 74q0 2 -4 10q4 6 4 15q0 6 -4 47q4 6 4 10q-6 12 -6 23v49q0 16 2 43q-2 6 -2 18q27 41 55 41q53 -16 53 -59q-8 -10 -8 -17q0 -12 4 -18l-4 -27q0 -10 4 -30q-4 -25 -4 -41q0 -2 4 -23q-4 -8 -4 -12 q0 -8 4 -15l-6 -98q2 -14 2 -35h-2q2 -6 2 -10q0 -14 -2 -80l2 -8q-2 -14 -2 -27l2 -22q0 -2 -2 -15q2 -33 2 -53h-2l2 -8v-41q0 -4 -2 -4q0 -4 2 -4q0 -2 -2 -14q0 -4 2 -13q-2 -37 -6 -37l6 -24l-2 -6l2 -21h-2l2 -6v-57q0 -14 -2 -35q2 -6 2 -14q-2 -39 -2 -45l2 -19 q0 -4 -2 -12q6 -88 6 -107h-4l4 -8q0 -2 -4 -2l4 -8q0 -66 -14 -111l4 -6l-16 -47q4 0 4 -2q-4 0 -15 -31q-16 -49 -94 -129q-59 -18 -110 -30q-45 10 -45 12l-9 -4q-6 0 -12 10l-6 -4q-94 53 -111 102q-27 66 -41 150l4 6q-8 27 -16 98h4l-4 8v31q0 8 -4 14q0 4 4 5 l-18 241h4l-4 8q0 4 4 13q-4 39 -8 45q0 4 4 4l-9 102h5l-5 6v25l-4 22q4 4 4 23l-4 6l4 8l-4 9q0 2 4 22l-4 27h4q0 4 -4 4l4 18v41q0 4 5 4l-5 8v35q0 47 -6 68q0 4 2 4l-6 37q4 8 4 12l-12 41l8 4l-8 41l4 21l-4 24l4 27q-4 35 -4 57q29 33 41 35z" />
<glyph unicode="&#xdd;" horiz-adv-x="729" d="M535 1774q43 -33 43 -64v-4q-35 -61 -117 -117q-94 -78 -101 -78q-12 -27 -34 -26h-7q-8 0 -8 8q-4 0 -4 -4q-51 10 -51 47q0 6 14 35q150 119 234 207h26q5 0 5 -4zM494 1448l45 -27v-4h-9v-4q12 0 13 -18v-17q-31 -61 -76 -229q-57 -164 -107 -361v-18q0 -10 5 -16 q-4 -18 -9 -19l4 -8l-4 -6q4 -8 4 -12t-4 -4q8 -47 9 -99h-5l5 -8v-14q0 -4 -5 -4l5 -9q0 -2 -5 -2q6 -37 7 -102v-16q-6 -37 -7 -41v-129q0 -4 -4 -5l9 -30l-5 -6q8 -127 15 -129l-4 -9l8 -34h-4l8 -33q-27 -35 -57 -35q0 6 -41 14q-12 25 -13 47h4l-14 95v37q0 10 -4 16 q4 6 4 14v8q0 8 -4 15l4 8q-4 12 -8 12l4 19v32q0 57 8 58q0 4 -4 4q4 14 6 94q-2 27 -2 43h2l-2 6q0 4 2 4l-2 19v39q0 33 -8 49q4 8 4 12l-4 19l4 18q-4 20 -4 23q0 4 4 4l-4 26v62q-16 25 -49 135q-57 156 -141 325q0 8 -7 9q0 4 2 4q-63 127 -63 139q8 23 14 23 q8 -4 17 -5q0 8 8 9q8 0 14 -4l8 4q45 0 105 -174q72 -125 125 -277q8 -18 8 -27h4l68 228q0 6 12 12l-4 6l76 223l18 17l12 -8z" />
<glyph unicode="&#xdf;" horiz-adv-x="743" d="M248 1448q139 0 254 -133q-4 0 -4 -4q35 -55 65 -187q-6 -23 -12 -22q0 -4 4 -4q0 -117 -76 -254q-63 -57 -92 -58v-12q41 0 141 -186q16 -57 27.5 -94t15.5 -58q2 0 2 -4h-2l2 -8v-14q0 -23 13 -62h-4l4 -8q0 -2 -4 -2l4 -8v-23q0 -57 -8 -57q0 -4 4 -4 q-35 -147 -68 -148q-41 -49 -92 -65q-20 -14 -31 -15q0 2 -4 2q-39 -27 -113 -26q0 -2 -16 -2q-76 2 -84 26v11q14 45 21 45q25 12 41 12v-4q14 8 61 8q4 0 4 -4q111 20 111 45q33 0 63 102q0 10 8 43v35q0 6 9 6q-10 27 -25 123h4l-37 117q-4 0 -4 4v4q0 4 4 4 q-80 156 -164 156q-8 -4 -16 -4v4l-6 -4q-4 0 -4 4q-14 -2 -22.5 -4t-12.5 -4q-35 35 -35 43v10q16 47 21 47q27 10 41 10v-4q72 0 172 88q35 55 53 187q4 0 4 4q-8 18 -8 31h4q0 66 -58 159q-49 45 -102 68q-82 -12 -129 -53q-51 -70 -51 -144l4 -12h-6v-8l2 -19h-2 q2 -6 2 -12q-6 -12 -6 -18l4 -19h-4q0 -4 4 -4l-4 -18q0 -4 4 -4l-4 -19v-74q0 -4 -4 -4l4 -6q0 -14 6 -133h-2l2 -8v-12.5t-2 -18.5v-7t2 -15q-2 -14 -2 -24.5v-20.5l2 -9q-4 -10 -6 -34l4 -7q0 -4 -4 -4l4 -20v-80q0 -2 -4 -2l4 -8v-13q0 -4 -4 -4l4 -6q0 -4 -4 -4 q2 -45 6 -45l-2 -20v-54q-12 -47 -13 -159q0 -2 -4 -11l4 -22v-47q0 -6 -4 -15q6 -10 9 -69l-5 -6q4 -8 5 -17h-5q8 -10 13 -49h-4l4 -8q0 -2 -4 -2q2 -25 6 -35q-35 -35 -41 -35h-12q-45 14 -45 19q-10 31 -11 43h2q-6 14 -6 61q0 2 4 2q-8 14 -8 31v35q0 4 4 4l-4 8v68 q0 10 -4 18q18 193 18 229v31q0 10 -4 18l4 23v53q0 6 -4 15l4 8l-4 39l4 37q-2 8 -3 16t-1 18h4q0 4 -4 4l4 19v27q0 12 1 26t4 31q-4 20 -6.5 52t-4.5 73q2 6 2 16q-6 18 -6 27h4l-4 6q0 4 4 4q0 4 -4 4q12 258 31 258q0 20 6 21l-4 6l43 80q80 96 164 96z" />
<glyph unicode="&#xe0;" d="M23 1778h26q84 -88 232 -207q16 -29 16 -35q0 -37 -53 -47q0 4 -4 4q0 -8 -7 -8h-8q-20 0 -32 26q-8 0 -101 78q-82 55 -119 117v4q0 31 45 64q1 4 5 4zM254 1432q53 -18 53 -66q4 0 41 -98l92 -340q14 -123 23 -123q0 -4 -4 -4q84 -530 110 -625h-4l33 -129q4 0 4 -4 v-37l-8 4q0 -10 -41 -22q0 -8 -8 -8q-43 0 -64 143q-31 98 -90 520h-43l-37 -4v4l-8 -4q-4 0 -4 4l-8 -4h-6q-4 0 -4 4q-4 0 -5 -4q-18 4 -83 8q-2 -106 -11 -106q0 -4 4 -4q-4 -35 -8 -35l4 -6q-25 -137 -30 -150l4 -6q-18 -63 -35 -178h-4l4 -8v-4q0 -4 -4 -5l4 -6 l-15 -57q0 -4 5 -4l-5 -19v-8l5 -18q-14 -8 -31 -39q-4 0 -41 -6q-4 0 -4 4l-8 -4h-4q-6 0 -23 26q0 4 4 4l-4 7v4l8 12q0 2 -4 2q4 41 19 96q-4 6 -5 11h5l-5 8q8 16 17 67q-4 0 -4 4q8 0 8 9l-4 18q12 0 55 295h4q0 4 -4 4q4 27 8 27q0 4 -4 4q8 82 21 151l-4 8q4 18 6 19 q0 4 -2 4q0 18 41 330q0 4 -4 4q23 186 45 309q39 10 39 16l6 -4zM262 1206q-16 -115 -20 -116l4 -9q-2 -33 -6 -32q0 -4 2 -5q-2 -51 -29 -178q0 -4 2 -4q-6 -47 -6 -98h-4l4 -8l-4 -23v-4h37q4 0 4 -4q4 0 4 4l18 -4h27q8 0 16 4q6 -4 15 -4h30l19 4q-45 287 -99 422 q-8 55 -14 55z" />
<glyph unicode="&#xe1;" d="M512 1774q43 -33 43 -64v-4q-35 -61 -117 -117q-94 -78 -100 -78q-12 -27 -35 -26h-6q-8 0 -8 8q-4 0 -4 -4q-51 10 -52 47q0 6 15 35q150 119 233 207h27q4 0 4 -4zM254 1432q53 -18 53 -66q4 0 41 -98l92 -340q14 -123 23 -123q0 -4 -4 -4q84 -530 110 -625h-4l33 -129 q4 0 4 -4v-37l-8 4q0 -10 -41 -22q0 -8 -8 -8q-43 0 -64 143q-31 98 -90 520h-43l-37 -4v4l-8 -4q-4 0 -4 4l-8 -4h-6q-4 0 -4 4q-4 0 -5 -4q-18 4 -83 8q-2 -106 -11 -106q0 -4 4 -4q-4 -35 -8 -35l4 -6q-25 -137 -30 -150l4 -6q-18 -63 -35 -178h-4l4 -8v-4q0 -4 -4 -5 l4 -6l-15 -57q0 -4 5 -4l-5 -19v-8l5 -18q-14 -8 -31 -39q-4 0 -41 -6q-4 0 -4 4l-8 -4h-4q-6 0 -23 26q0 4 4 4l-4 7v4l8 12q0 2 -4 2q4 41 19 96q-4 6 -5 11h5l-5 8q8 16 17 67q-4 0 -4 4q8 0 8 9l-4 18q12 0 55 295h4q0 4 -4 4q4 27 8 27q0 4 -4 4q8 82 21 151l-4 8 q4 18 6 19q0 4 -2 4q0 18 41 330q0 4 -4 4q23 186 45 309q39 10 39 16l6 -4zM262 1206q-16 -115 -20 -116l4 -9q-2 -33 -6 -32q0 -4 2 -5q-2 -51 -29 -178q0 -4 2 -4q-6 -47 -6 -98h-4l4 -8l-4 -23v-4h37q4 0 4 -4q4 0 4 4l18 -4h27q8 0 16 4q6 -4 15 -4h30l19 4 q-45 287 -99 422q-8 55 -14 55z" />
<glyph unicode="&#xe2;" d="M244 1763h2q4 0 4 -2l8 2q66 -39 139 -143q53 -70 54 -78q0 -8 6 -18v-27q-14 -20 -33 -29q-4 0 -4 5l-6 -5h-8q-4 0 -5 5l-6 -5q-4 0 -4 5l-8 -5q-10 0 -10 19l-8 -4q-47 88 -111 147q-10 -14 -49 -133q-14 -31 -37 -47l-6 2l-10 -6q-57 6 -58 55v15q31 55 74 174 q10 0 31 59q25 14 45 14zM254 1432q53 -18 53 -66q4 0 41 -98l92 -340q14 -123 23 -123q0 -4 -4 -4q84 -530 110 -625h-4l33 -129q4 0 4 -4v-37l-8 4q0 -10 -41 -22q0 -8 -8 -8q-43 0 -64 143q-31 98 -90 520h-43l-37 -4v4l-8 -4q-4 0 -4 4l-8 -4h-6q-4 0 -4 4q-4 0 -5 -4 q-18 4 -83 8q-2 -106 -11 -106q0 -4 4 -4q-4 -35 -8 -35l4 -6q-25 -137 -30 -150l4 -6q-18 -63 -35 -178h-4l4 -8v-4q0 -4 -4 -5l4 -6l-15 -57q0 -4 5 -4l-5 -19v-8l5 -18q-14 -8 -31 -39q-4 0 -41 -6q-4 0 -4 4l-8 -4h-4q-6 0 -23 26q0 4 4 4l-4 7v4l8 12q0 2 -4 2 q4 41 19 96q-4 6 -5 11h5l-5 8q8 16 17 67q-4 0 -4 4q8 0 8 9l-4 18q12 0 55 295h4q0 4 -4 4q4 27 8 27q0 4 -4 4q8 82 21 151l-4 8q4 18 6 19q0 4 -2 4q0 18 41 330q0 4 -4 4q23 186 45 309q39 10 39 16l6 -4zM262 1206q-16 -115 -20 -116l4 -9q-2 -33 -6 -32q0 -4 2 -5 q-2 -51 -29 -178q0 -4 2 -4q-6 -47 -6 -98h-4l4 -8l-4 -23v-4h37q4 0 4 -4q4 0 4 4l18 -4h27q8 0 16 4q6 -4 15 -4h30l19 4q-45 287 -99 422q-8 55 -14 55z" />
<glyph unicode="&#xe3;" d="M254 1432q53 -18 53 -66q4 0 41 -98l92 -340q14 -123 23 -123q0 -4 -4 -4q84 -530 110 -625h-4l33 -129q4 0 4 -4v-37l-8 4q0 -10 -41 -22q0 -8 -8 -8q-43 0 -64 143q-31 98 -90 520h-43l-37 -4v4l-8 -4q-4 0 -4 4l-8 -4h-6q-4 0 -4 4q-4 0 -5 -4q-18 4 -83 8 q-2 -106 -11 -106q0 -4 4 -4q-4 -35 -8 -35l4 -6q-25 -137 -30 -150l4 -6q-18 -63 -35 -178h-4l4 -8v-4q0 -4 -4 -5l4 -6l-15 -57q0 -4 5 -4l-5 -19v-8l5 -18q-14 -8 -31 -39q-4 0 -41 -6q-4 0 -4 4l-8 -4h-4q-6 0 -23 26q0 4 4 4l-4 7v4l8 12q0 2 -4 2q4 41 19 96 q-4 6 -5 11h5l-5 8q8 16 17 67q-4 0 -4 4q8 0 8 9l-4 18q12 0 55 295h4q0 4 -4 4q4 27 8 27q0 4 -4 4q8 82 21 151l-4 8q4 18 6 19q0 4 -2 4q0 18 41 330q0 4 -4 4q23 186 45 309q39 10 39 16l6 -4zM262 1206q-16 -115 -20 -116l4 -9q-2 -33 -6 -32q0 -4 2 -5 q-2 -51 -29 -178q0 -4 2 -4q-6 -47 -6 -98h-4l4 -8l-4 -23v-4h37q4 0 4 -4q4 0 4 4l18 -4h27q8 0 16 4q6 -4 15 -4h30l19 4q-45 287 -99 422q-8 55 -14 55zM113 1749l8 -2l8 2q117 0 178 -90q45 -68 86 -72h17q37 45 36 72q12 43 23 63q14 0 23 9h8l8 -5q0 8 6 9h8 q31 -27 31 -68l-4 -8q4 -6 4 -14v-9q0 -8 -4 -16l4 -6q-10 -47 -23 -58q-63 -76 -129 -75q-4 0 -22 4q-8 -4 -17 -4v4l-6 -4q-59 16 -102 75q-25 23 -31 41q-8 0 -35 39l-32 11q-8 -2 -13 -2v2q-53 -29 -53 -78q-23 -53 -53 -53q-6 -4 -14 -5q-27 29 -31 58v14q0 51 41 111 q35 45 80 55z" />
<glyph unicode="&#xe4;" d="M35 1550l4 6q-4 6 -4 17q49 57 86 57h14q59 -16 60 -47q8 0 8 -33h-4l4 -8q0 -31 -68 -59h-14q-41 0 -82 53q0 6 -4 14zM338 1569q0 41 61 61h31q35 -16 59 -59l-4 -19v-24q-31 -49 -67 -49q-76 10 -76 73q-4 1 -4 17zM254 1432q53 -18 53 -66q4 0 41 -98l92 -340 q14 -123 23 -123q0 -4 -4 -4q84 -530 110 -625h-4l33 -129q4 0 4 -4v-37l-8 4q0 -10 -41 -22q0 -8 -8 -8q-43 0 -64 143q-31 98 -90 520h-43l-37 -4v4l-8 -4q-4 0 -4 4l-8 -4h-6q-4 0 -4 4q-4 0 -5 -4q-18 4 -83 8q-2 -106 -11 -106q0 -4 4 -4q-4 -35 -8 -35l4 -6 q-25 -137 -30 -150l4 -6q-18 -63 -35 -178h-4l4 -8v-4q0 -4 -4 -5l4 -6l-15 -57q0 -4 5 -4l-5 -19v-8l5 -18q-14 -8 -31 -39q-4 0 -41 -6q-4 0 -4 4l-8 -4h-4q-6 0 -23 26q0 4 4 4l-4 7v4l8 12q0 2 -4 2q4 41 19 96q-4 6 -5 11h5l-5 8q8 16 17 67q-4 0 -4 4q8 0 8 9l-4 18 q12 0 55 295h4q0 4 -4 4q4 27 8 27q0 4 -4 4q8 82 21 151l-4 8q4 18 6 19q0 4 -2 4q0 18 41 330q0 4 -4 4q23 186 45 309q39 10 39 16l6 -4zM262 1206q-16 -115 -20 -116l4 -9q-2 -33 -6 -32q0 -4 2 -5q-2 -51 -29 -178q0 -4 2 -4q-6 -47 -6 -98h-4l4 -8l-4 -23v-4h37 q4 0 4 -4q4 0 4 4l18 -4h27q8 0 16 4q6 -4 15 -4h30l19 4q-45 287 -99 422q-8 55 -14 55z" />
<glyph unicode="&#xe5;" horiz-adv-x="724" d="M279 1757q53 0 110 -94q0 -14 4 -37q0 -92 -71 -156q-14 -8 -25 -8l-14 4l-7 -4q-4 0 -4 4l-16 -4h-12l-6 4q0 -8 -9 -8h-6q-113 41 -112 129v15q16 61 34 71q70 78 131 78q1 6 3 6zM252 1647q0 6 -4 6q-39 -51 -43 -51v-19q33 -29 47 -29q37 0 41 72q0 23 -17 35 q-10 0 -24 -14zM254 1432q53 -18 53 -66q4 0 41 -98l92 -340q14 -123 23 -123q0 -4 -4 -4q84 -530 110 -625h-4l33 -129q4 0 4 -4v-37l-8 4q0 -10 -41 -22q0 -8 -8 -8q-43 0 -64 143q-31 98 -90 520h-43l-37 -4v4l-8 -4q-4 0 -4 4l-8 -4h-6q-4 0 -4 4q-4 0 -5 -4 q-18 4 -83 8q-2 -106 -11 -106q0 -4 4 -4q-4 -35 -8 -35l4 -6q-25 -137 -30 -150l4 -6q-18 -63 -35 -178h-4l4 -8v-4q0 -4 -4 -5l4 -6l-15 -57q0 -4 5 -4l-5 -19v-8l5 -18q-14 -8 -31 -39q-4 0 -41 -6q-4 0 -4 4l-8 -4h-4q-6 0 -23 26q0 4 4 4l-4 7v4l8 12q0 2 -4 2 q4 41 19 96q-4 6 -5 11h5l-5 8q8 16 17 67q-4 0 -4 4q8 0 8 9l-4 18q12 0 55 295h4q0 4 -4 4q4 27 8 27q0 4 -4 4q8 82 21 151l-4 8q4 18 6 19q0 4 -2 4q0 18 41 330q0 4 -4 4q23 186 45 309q39 10 39 16l6 -4zM262 1206q-16 -115 -20 -116l4 -9q-2 -33 -6 -32q0 -4 2 -5 q-2 -51 -29 -178q0 -4 2 -4q-6 -47 -6 -98h-4l4 -8l-4 -23v-4h37q4 0 4 -4q4 0 4 4l18 -4h27q8 0 16 4q6 -4 15 -4h30l19 4q-45 287 -99 422q-8 55 -14 55z" />
<glyph unicode="&#xe6;" horiz-adv-x="1310" d="M795 1380l16 -2h45l23 2q37 -2 36 -6l9 4h37q51 -20 51 -37v-18l-47 -45l-21 2l-16 -2q-39 2 -39 6l-6 -4h-60q-8 0 -14 4q-6 -4 -14 -4q-4 0 -4 4l-9 -4q-4 0 -4 4l-18 -4h69l-18 -2v2l-8 -2h-31q-66 0 -129 -8l-6 4q-8 -4 -12 -4q14 -106 14 -185l4 -8l-4 -8 q0 -14 4 -20q-4 -49 -4 -78v-115q0 -14 4 -31q-4 -14 -4 -28v-29q0 -16 4 -31q-4 -14 -4 -28v-41q0 -8 4 -17q-4 -6 -4 -12q14 -8 31 -8h8q6 0 14 4l6 -4q8 4 17 4v-4l8 4q6 0 12 -4l8 4l19 -4l26 4l15 -4l22 4q2 0 15 -4q6 4 14 4v-4l8 4q2 0 -112 -4l8 4q4 -4 14 -4 q18 0 19 8l18 -4q20 0 25 4q20 -4 34 -4h29l8 -4q0 4 2 4q37 -25 37 -45v-8q-25 -43 -76 -43h-30q-8 0 -15 -4q-37 4 -37 6l-8 -2h-6q-4 0 -4 2l-8 -2h-19q127 0 121 2q-6 -2 -14 -2h-4q-4 0 -4 2l-6 -2h-68q-8 0 -14 -4q-6 4 -17 4h-24l-37 -4v4q-31 -6 -31 -17v-10 q0 -18 4 -37l-4 -22q0 -4 4 -4l-4 -19v-37q0 -8 4 -14q-4 -6 -4 -14v-5q2 -8 8 -8l-4 -8q0 -6 4 -14q-4 -6 -4 -11l8 -4q0 -8 -4 -8l8 -88q-4 -12 -4 -33l4 -8l-4 -8q4 -6 4 -10l-4 -6q6 -16 7 -41l-3 -9l80 -14l9 4l14 -4q4 0 10 4q20 -4 35 -4h14q12 0 13 4l18 -4h-84 q8 0 14 4l9 -4q6 4 14 4q4 0 4 -4l6 4h33l20 2v-2l6 2h5q70 0 122 13l5 -9l6 4h22q39 -31 41 -45q-23 -43 -41 -43q0 -8 -22 -8q-63 0 -170 -14q-6 4 -11 4q-4 0 -30 -4q-4 0 -4 4l-25 -4h35q-8 0 -14 -4q-8 4 -17 4h-6l-18 -4v4q-4 0 -4 -4l-142 14l-8 -4q-39 20 -39 35 q-4 0 -4 4v14q0 27 -6 41q0 43 12 43v21q0 72 -6 96q0 2 4 2l-4 37v72l-4 24h4l-4 8v11q0 4 4 4l-4 8v10q0 4 4 4l-4 6v35q0 14 -2 39q2 8 2 12q-8 6 -33 13l-6 -4h-12q-14 0 -33 4q-8 -4 -12 -4l-6 4q-8 -4 -17 -4q-4 0 -4 4q-166 -10 -166 -21q0 -14 -55 -162 q-4 0 -23 -55l-92 -270q-4 -4 -18 -33q-14 0 -15 -4q-59 0 -59 41v14q78 197 184 526q10 12 113 291q172 403 195 441l-5 8q10 29 41 41q16 18 60 18h4q6 -2 6 -8l39 8l6 -4l8 4q6 -4 11 -4l8 4q4 0 4 -4q49 8 139 8h45q4 0 4 -4l8 4q2 0 2 -4l-127 4h37q13 0 13 2z M537 1194q-43 -113 -152 -356q-78 -205 -78 -211h4q39 0 117 8l8 -4q27 4 41 4h55q4 0 5 -4q8 4 12 4v6q0 8 -4 14q4 6 4 17q0 10 -4 10l4 27v88l-4 26h4l-4 6v19q0 4 4 4l-4 8v6q0 39 4 82l-4 27l4 18q0 2 -4 2l4 27v27q0 18 -4 55h4l-4 6v23q0 16 -4 41q4 6 4 16z" />
<glyph unicode="&#xe7;" horiz-adv-x="636" d="M346 -61q-33 -59 -47 -84q31 -20 63 -66q0 -12 5 -33q0 -80 -76 -137q-14 -6 -25 -6l-16 2l-6 -2q-4 0 -4 2l-19 -2h-10l-8 2q0 -6 -6 -6h-9l-12 4v86q27 -6 41 -6q39 0 45 63q0 18 -18 31h-6v2q-49 -6 -62 27q-2 4 2 37q45 82 80 147h-4q-4 0 -4 4l-8 -4q-92 0 -174 201 l-27 106q0 4 4 4l-14 64h4l-4 8v8q0 2 4 2q-4 6 -8 43h4q-4 10 -8 45h4q-14 68 -15 84h2l-6 19q0 4 4 4q-8 39 -8 53h4q0 4 -4 4l4 19v6l-4 20h4l-4 6v39q0 4 4 4l-4 6q0 4 4 5l-8 38q4 33 8 33l-4 8v72q0 4 4 4q-4 8 -4 13l4 6q-4 8 -4 16q0 4 4 4l-4 6q0 279 86 402 q29 51 92 84q0 12 68 30h18q158 0 174 -80h-2l2 -8q0 -8 -32 -22v4l-9 -4q-68 23 -94 22l-18 -2v2l-8 -2q-4 0 -5 2q-94 -37 -129 -121q-12 -16 -36 -112l4 -8q-8 -31 -13 -90q0 -4 4 -13l-8 -116l4 -9l-4 -8q0 -12 4 -18q-4 -49 -4 -80v-76q0 -8 4 -14q-4 -6 -4 -17v-14 q0 -31 4 -80l-4 -8l17 -82h-4q6 -20 14 -80l-4 -8q8 -14 8 -23h-4q10 -68 14 -84l-2 -6q23 -123 76 -194q35 -37 53 -37q96 0 180 86q20 4 23 4q49 -6 49 -45q4 0 4 -4v-10l-80 -70q-8 0 -22 -14q-14 -6 -29 -11q-25 -44 -45 -77z" />
<glyph unicode="&#xe8;" horiz-adv-x="614" d="M8 1778h25q86 -88 233 -207q16 -29 17 -35q0 -37 -54 -47q0 4 -4 4q0 -8 -6 -8h-8q-20 0 -33 26q-8 0 -100 78q-82 55 -119 117v4q0 31 45 64q0 4 4 4zM164 1403l2 -8q4 0 4 4l20 -4h78q14 0 35 -4q6 4 14 4l9 -4q8 4 12 4l6 -4q8 4 16 4q18 -8 33 -35q-8 -49 -90 -49 l-14 4q-92 4 -119 4v4l-6 -4h-66v-19q0 -4 -4 -4l4 -8v-18q0 -18 -8 -19q8 -20 8 -26h-4q0 -4 4 -4q0 -4 -4 -13q0 -2 4 -22l-4 -35q4 -18 4 -37h-4q0 -4 4 -4q0 -8 -4 -14q4 -53 4 -92v-23l4 -23q-4 -6 -4 -18q0 -25 8 -53h-4l4 -8q0 -4 -4 -5l4 -6l-4 -26l4 -39h-4 q8 -14 9 -31v-10h26q10 0 10 4l19 -4h16q20 0 54 4l6 -4q20 4 34 4q27 0 39 -35q0 -35 -53 -53l-26 4h-58l-26 -4v4l-31 -8q0 8 -6 8l-4 -8v-15q0 -12 4 -12l-4 -18v-35q0 -8 4 -14q0 -4 -4 -5l4 -14q-4 -98 -4 -133l4 -8l-4 -6l4 -21l-4 -6q4 -20 6 -20l-2 -19v-133 q0 -8 2 -14q-2 -6 -2 -15v-39l2 -22v-14q51 -8 151 -9h4q8 0 17 4q6 -4 14 -4h35q12 0 33 4q4 0 4 -4l39 4h49q31 -18 31 -45q-29 -43 -52 -43q0 -4 -24 -6l-8 2l-17 -2l-22 2q-4 0 -4 -2l-19 2h-4l-22 -2q-6 2 -11 2l-16 -2q-20 2 -29 2l-8 -2q-8 2 -12 2l-33 -2v2l-8 -2 h-12q-8 0 -15 2q-6 -2 -14 -2l-17 2q-6 -2 -18 -2v2q-4 0 -4 -2l-19 2h-12q-23 -2 -22 -10l-19 4l-14 -8q-8 4 -21 4v4q0 4 5 4q-8 12 -9 29v129q0 4 4 4l-4 8v15q0 4 4 4l-4 8v6q0 4 4 4l-4 8v201q0 8 4 14l-4 9q4 6 4 16q0 2 -4 2l4 20v56l-4 39h4l-4 8v6q0 4 4 4l-4 8 v160q0 8 -2 14l2 9q0 6 -6 26q0 8 4 15q-8 80 -8 192v39l-4 18h4q0 4 -4 4q0 8 4 9q-4 76 -4 112v76q0 4 4 4l-4 8q0 16 4 37q-4 16 -4 27q39 39 76 39v-4q8 4 12 4l6 -4q6 4 17 4l14 -4q19 8 39 8z" />
<glyph unicode="&#xe9;" horiz-adv-x="614" d="M426 1774q43 -33 43 -64v-4q-37 -61 -119 -117q-92 -78 -98 -78q-12 -27 -35 -26h-6q-8 0 -8 8q-4 0 -4 -4q-51 10 -52 47q0 6 15 35q150 119 233 207h27q4 0 4 -4zM164 1403l2 -8q4 0 4 4l20 -4h78q14 0 35 -4q6 4 14 4l9 -4q8 4 12 4l6 -4q8 4 16 4q18 -8 33 -35 q-8 -49 -90 -49l-14 4q-92 4 -119 4v4l-6 -4h-66v-19q0 -4 -4 -4l4 -8v-18q0 -18 -8 -19q8 -20 8 -26h-4q0 -4 4 -4q0 -4 -4 -13q0 -2 4 -22l-4 -35q4 -18 4 -37h-4q0 -4 4 -4q0 -8 -4 -14q4 -53 4 -92v-23l4 -23q-4 -6 -4 -18q0 -25 8 -53h-4l4 -8q0 -4 -4 -5l4 -6l-4 -26 l4 -39h-4q8 -14 9 -31v-10h26q10 0 10 4l19 -4h16q20 0 54 4l6 -4q20 4 34 4q27 0 39 -35q0 -35 -53 -53l-26 4h-58l-26 -4v4l-31 -8q0 8 -6 8l-4 -8v-15q0 -12 4 -12l-4 -18v-35q0 -8 4 -14q0 -4 -4 -5l4 -14q-4 -98 -4 -133l4 -8l-4 -6l4 -21l-4 -6q4 -20 6 -20l-2 -19 v-133q0 -8 2 -14q-2 -6 -2 -15v-39l2 -22v-14q51 -8 151 -9h4q8 0 17 4q6 -4 14 -4h35q12 0 33 4q4 0 4 -4l39 4h49q31 -18 31 -45q-29 -43 -52 -43q0 -4 -24 -6l-8 2l-17 -2l-22 2q-4 0 -4 -2l-19 2h-4l-22 -2q-6 2 -11 2l-16 -2q-20 2 -29 2l-8 -2q-8 2 -12 2l-33 -2v2 l-8 -2h-12q-8 0 -15 2q-6 -2 -14 -2l-17 2q-6 -2 -18 -2v2q-4 0 -4 -2l-19 2h-12q-23 -2 -22 -10l-19 4l-14 -8q-8 4 -21 4v4q0 4 5 4q-8 12 -9 29v129q0 4 4 4l-4 8v15q0 4 4 4l-4 8v6q0 4 4 4l-4 8v201q0 8 4 14l-4 9q4 6 4 16q0 2 -4 2l4 20v56l-4 39h4l-4 8v6q0 4 4 4 l-4 8v160q0 8 -2 14l2 9q0 6 -6 26q0 8 4 15q-8 80 -8 192v39l-4 18h4q0 4 -4 4q0 8 4 9q-4 76 -4 112v76q0 4 4 4l-4 8q0 16 4 37q-4 16 -4 27q39 39 76 39v-4q8 4 12 4l6 -4q6 4 17 4l14 -4q19 8 39 8z" />
<glyph unicode="&#xea;" horiz-adv-x="614" d="M166 1763h4q2 0 2 -2l8 2q66 -39 139 -143q53 -70 54 -78q0 -8 8 -18v-27q-16 -20 -35 -29q-2 0 -2 5l-8 -5h-8q-4 0 -4 5l-7 -5q-4 0 -4 5l-6 -5q-10 0 -12 19l-8 -4q-47 88 -111 147q-10 -14 -47 -133q-16 -31 -37 -47l-8 2l-10 -6q-55 6 -56 55v15q29 55 74 174 q10 0 29 59q27 14 45 14zM164 1403l2 -8q4 0 4 4l20 -4h78q14 0 35 -4q6 4 14 4l9 -4q8 4 12 4l6 -4q8 4 16 4q18 -8 33 -35q-8 -49 -90 -49l-14 4q-92 4 -119 4v4l-6 -4h-66v-19q0 -4 -4 -4l4 -8v-18q0 -18 -8 -19q8 -20 8 -26h-4q0 -4 4 -4q0 -4 -4 -13q0 -2 4 -22l-4 -35 q4 -18 4 -37h-4q0 -4 4 -4q0 -8 -4 -14q4 -53 4 -92v-23l4 -23q-4 -6 -4 -18q0 -25 8 -53h-4l4 -8q0 -4 -4 -5l4 -6l-4 -26l4 -39h-4q8 -14 9 -31v-10h26q10 0 10 4l19 -4h16q20 0 54 4l6 -4q20 4 34 4q27 0 39 -35q0 -35 -53 -53l-26 4h-58l-26 -4v4l-31 -8q0 8 -6 8l-4 -8 v-15q0 -12 4 -12l-4 -18v-35q0 -8 4 -14q0 -4 -4 -5l4 -14q-4 -98 -4 -133l4 -8l-4 -6l4 -21l-4 -6q4 -20 6 -20l-2 -19v-133q0 -8 2 -14q-2 -6 -2 -15v-39l2 -22v-14q51 -8 151 -9h4q8 0 17 4q6 -4 14 -4h35q12 0 33 4q4 0 4 -4l39 4h49q31 -18 31 -45q-29 -43 -52 -43 q0 -4 -24 -6l-8 2l-17 -2l-22 2q-4 0 -4 -2l-19 2h-4l-22 -2q-6 2 -11 2l-16 -2q-20 2 -29 2l-8 -2q-8 2 -12 2l-33 -2v2l-8 -2h-12q-8 0 -15 2q-6 -2 -14 -2l-17 2q-6 -2 -18 -2v2q-4 0 -4 -2l-19 2h-12q-23 -2 -22 -10l-19 4l-14 -8q-8 4 -21 4v4q0 4 5 4q-8 12 -9 29v129 q0 4 4 4l-4 8v15q0 4 4 4l-4 8v6q0 4 4 4l-4 8v201q0 8 4 14l-4 9q4 6 4 16q0 2 -4 2l4 20v56l-4 39h4l-4 8v6q0 4 4 4l-4 8v160q0 8 -2 14l2 9q0 6 -6 26q0 8 4 15q-8 80 -8 192v39l-4 18h4q0 4 -4 4q0 8 4 9q-4 76 -4 112v76q0 4 4 4l-4 8q0 16 4 37q-4 16 -4 27 q39 39 76 39v-4q8 4 12 4l6 -4q6 4 17 4l14 -4q19 8 39 8z" />
<glyph unicode="&#xeb;" horiz-adv-x="614" d="M-29 1550l4 6q-4 6 -4 17q47 57 84 57h15q59 -16 59 -47q8 0 8 -33h-4l4 -8q0 -31 -67 -59h-15q-39 0 -80 53q0 6 -4 14zM272 1569q0 41 64 61h29q35 -16 59 -59l-4 -19v-24q-31 -49 -66 -49q-78 10 -78 73q-4 1 -4 17zM164 1403l2 -8q4 0 4 4l20 -4h78q14 0 35 -4 q6 4 14 4l9 -4q8 4 12 4l6 -4q8 4 16 4q18 -8 33 -35q-8 -49 -90 -49l-14 4q-92 4 -119 4v4l-6 -4h-66v-19q0 -4 -4 -4l4 -8v-18q0 -18 -8 -19q8 -20 8 -26h-4q0 -4 4 -4q0 -4 -4 -13q0 -2 4 -22l-4 -35q4 -18 4 -37h-4q0 -4 4 -4q0 -8 -4 -14q4 -53 4 -92v-23l4 -23 q-4 -6 -4 -18q0 -25 8 -53h-4l4 -8q0 -4 -4 -5l4 -6l-4 -26l4 -39h-4q8 -14 9 -31v-10h26q10 0 10 4l19 -4h16q20 0 54 4l6 -4q20 4 34 4q27 0 39 -35q0 -35 -53 -53l-26 4h-58l-26 -4v4l-31 -8q0 8 -6 8l-4 -8v-15q0 -12 4 -12l-4 -18v-35q0 -8 4 -14q0 -4 -4 -5l4 -14 q-4 -98 -4 -133l4 -8l-4 -6l4 -21l-4 -6q4 -20 6 -20l-2 -19v-133q0 -8 2 -14q-2 -6 -2 -15v-39l2 -22v-14q51 -8 151 -9h4q8 0 17 4q6 -4 14 -4h35q12 0 33 4q4 0 4 -4l39 4h49q31 -18 31 -45q-29 -43 -52 -43q0 -4 -24 -6l-8 2l-17 -2l-22 2q-4 0 -4 -2l-19 2h-4l-22 -2 q-6 2 -11 2l-16 -2q-20 2 -29 2l-8 -2q-8 2 -12 2l-33 -2v2l-8 -2h-12q-8 0 -15 2q-6 -2 -14 -2l-17 2q-6 -2 -18 -2v2q-4 0 -4 -2l-19 2h-12q-23 -2 -22 -10l-19 4l-14 -8q-8 4 -21 4v4q0 4 5 4q-8 12 -9 29v129q0 4 4 4l-4 8v15q0 4 4 4l-4 8v6q0 4 4 4l-4 8v201q0 8 4 14 l-4 9q4 6 4 16q0 2 -4 2l4 20v56l-4 39h4l-4 8v6q0 4 4 4l-4 8v160q0 8 -2 14l2 9q0 6 -6 26q0 8 4 15q-8 80 -8 192v39l-4 18h4q0 4 -4 4q0 8 4 9q-4 76 -4 112v76q0 4 4 4l-4 8q0 16 4 37q-4 16 -4 27q39 39 76 39v-4q8 4 12 4l6 -4q6 4 17 4l14 -4q19 8 39 8z" />
<glyph unicode="&#xec;" horiz-adv-x="294" d="M-152 1778h25q84 -88 233 -207q16 -29 17 -35q0 -37 -53 -47q0 4 -4 4q0 -8 -7 -8h-8q-20 0 -33 26q-8 0 -100 78q-82 55 -119 117v4q0 31 45 64q0 4 4 4zM61 1409h2q53 -14 54 -45v-12q-6 0 -6 -6q6 -2 6 -9q0 -4 -2 -4q2 -20 2 -30l-2 -27q2 -6 2 -10h-2l2 -9v-4 q0 -2 -2 -2l2 -8v-8q0 -12 -2 -18l6 -41h-4q4 -8 4 -13q-6 -12 -6 -18l2 -21h-2q0 -2 2 -2l-2 -20q0 -2 2 -2l-2 -21v-71q0 -4 -4 -4l4 -7q0 -14 6 -133h-4l4 -8q0 -10 -4 -31q4 -18 4 -22q-4 -27 -4 -45l4 -8q-4 -8 -6 -33l2 -8q0 -4 -2 -4l2 -19v-80q0 -4 -2 -4l2 -8v-10 q0 -4 -2 -4l2 -9q0 -2 -2 -2q2 -47 6 -47l-4 -18v-53q-10 -47 -11 -160q0 -4 -4 -10l4 -23v-22q0 -8 -4 -17q4 -4 9 -67l-5 -9q4 -6 5 -14h-5q8 -10 11 -49h-2l2 -8q0 -4 -2 -4q2 -25 6 -33q-33 -35 -41 -35h-12q-45 14 -45 18q-10 27 -11 43h2q-6 16 -6 60q0 4 4 4 q-8 14 -8 31v34q0 2 4 3l-4 8v45q0 12 -4 20q18 193 18 228v28q0 12 -4 21l4 22v53q0 8 -4 15l4 8l-4 37l4 39q-4 14 -4 33h4q0 4 -4 4l4 18v27q0 25 5 57q-8 41 -11 125q2 6 2 16q-6 18 -6 27h4l-4 6q0 4 4 4q0 4 -4 4l10 162q-4 14 -6 133l2 8q0 4 -2 5q0 53 15 53 q14 10 34 10z" />
<glyph unicode="&#xed;" horiz-adv-x="276" d="M307 1774q45 -33 45 -64v-4q-37 -61 -119 -117q-92 -78 -100 -78q-10 -27 -33 -26h-8q-6 0 -6 8q-4 0 -4 -4q-51 10 -51 47q0 6 14 35q150 119 234 207h24q4 0 4 -4zM61 1409h2q53 -14 54 -45v-12q-6 0 -6 -6q6 -2 6 -9q0 -4 -2 -4q2 -20 2 -30l-2 -27q2 -6 2 -10h-2 l2 -9v-4q0 -2 -2 -2l2 -8v-8q0 -12 -2 -18l6 -41h-4q4 -8 4 -13q-6 -12 -6 -18l2 -21h-2q0 -2 2 -2l-2 -20q0 -2 2 -2l-2 -21v-71q0 -4 -4 -4l4 -7q0 -14 6 -133h-4l4 -8q0 -10 -4 -31q4 -18 4 -22q-4 -27 -4 -45l4 -8q-4 -8 -6 -33l2 -8q0 -4 -2 -4l2 -19v-80q0 -4 -2 -4 l2 -8v-10q0 -4 -2 -4l2 -9q0 -2 -2 -2q2 -47 6 -47l-4 -18v-53q-10 -47 -11 -160q0 -4 -4 -10l4 -23v-22q0 -8 -4 -17q4 -4 9 -67l-5 -9q4 -6 5 -14h-5q8 -10 11 -49h-2l2 -8q0 -4 -2 -4q2 -25 6 -33q-33 -35 -41 -35h-12q-45 14 -45 18q-10 27 -11 43h2q-6 16 -6 60 q0 4 4 4q-8 14 -8 31v34q0 2 4 3l-4 8v45q0 12 -4 20q18 193 18 228v28q0 12 -4 21l4 22v53q0 8 -4 15l4 8l-4 37l4 39q-4 14 -4 33h4q0 4 -4 4l4 18v27q0 25 5 57q-8 41 -11 125q2 6 2 16q-6 18 -6 27h4l-4 6q0 4 4 4q0 4 -4 4l10 162q-4 14 -6 133l2 8q0 4 -2 5 q0 53 15 53q14 10 34 10z" />
<glyph unicode="&#xee;" horiz-adv-x="333" d="M68 1763h4q4 0 4 -2l8 2q63 -39 139 -143q51 -70 51 -78t9 -18v-27q-16 -20 -33 -29q-4 0 -4 5l-8 -5h-7q-4 0 -4 5l-8 -5q-4 0 -4 5l-6 -5q-10 0 -10 19l-9 -4q-47 88 -110 147q-12 -14 -49 -133q-16 -31 -37 -47l-6 2l-13 -6q-55 6 -55 55v15q31 55 74 174q10 0 31 59 q25 14 43 14zM61 1409h2q53 -14 54 -45v-12q-6 0 -6 -6q6 -2 6 -9q0 -4 -2 -4q2 -20 2 -30l-2 -27q2 -6 2 -10h-2l2 -9v-4q0 -2 -2 -2l2 -8v-8q0 -12 -2 -18l6 -41h-4q4 -8 4 -13q-6 -12 -6 -18l2 -21h-2q0 -2 2 -2l-2 -20q0 -2 2 -2l-2 -21v-71q0 -4 -4 -4l4 -7 q0 -14 6 -133h-4l4 -8q0 -10 -4 -31q4 -18 4 -22q-4 -27 -4 -45l4 -8q-4 -8 -6 -33l2 -8q0 -4 -2 -4l2 -19v-80q0 -4 -2 -4l2 -8v-10q0 -4 -2 -4l2 -9q0 -2 -2 -2q2 -47 6 -47l-4 -18v-53q-10 -47 -11 -160q0 -4 -4 -10l4 -23v-22q0 -8 -4 -17q4 -4 9 -67l-5 -9q4 -6 5 -14 h-5q8 -10 11 -49h-2l2 -8q0 -4 -2 -4q2 -25 6 -33q-33 -35 -41 -35h-12q-45 14 -45 18q-10 27 -11 43h2q-6 16 -6 60q0 4 4 4q-8 14 -8 31v34q0 2 4 3l-4 8v45q0 12 -4 20q18 193 18 228v28q0 12 -4 21l4 22v53q0 8 -4 15l4 8l-4 37l4 39q-4 14 -4 33h4q0 4 -4 4l4 18v27 q0 25 5 57q-8 41 -11 125q2 6 2 16q-6 18 -6 27h4l-4 6q0 4 4 4q0 4 -4 4l10 162q-4 14 -6 133l2 8q0 4 -2 5q0 53 15 53q14 10 34 10z" />
<glyph unicode="&#xef;" horiz-adv-x="325" d="M-135 1550l4 6q-4 6 -4 17q49 57 86 57h14q59 -16 60 -47q8 0 8 -33h-4l4 -8q0 -31 -68 -59h-14q-41 0 -82 53q0 6 -4 14zM168 1569q0 41 61 61h29q37 -16 61 -59l-4 -19v-24q-31 -49 -67 -49q-78 10 -78 73q-2 1 -2 17zM82 1409h2q53 -14 53 -45v-12q-6 0 -6 -6 q6 -2 6 -9q0 -4 -2 -4q2 -20 2 -30l-2 -27q2 -6 2 -10h-2l2 -9v-4q0 -2 -2 -2l2 -8v-8q0 -12 -2 -18l6 -41h-4q4 -8 4 -13q-6 -12 -6 -18l2 -21h-2q0 -2 2 -2l-2 -20q0 -2 2 -2l-2 -21v-71q0 -4 -4 -4l4 -7q0 -14 6 -133h-4l4 -8q0 -10 -4 -31q4 -18 4 -22q-4 -27 -4 -45 l4 -8q-4 -8 -6 -33l2 -8q0 -4 -2 -4l2 -19v-80q0 -4 -2 -4l2 -8v-10q0 -4 -2 -4l2 -9q0 -2 -2 -2q2 -47 6 -47l-4 -18v-53q-10 -47 -10 -160q0 -4 -4 -10l4 -23v-22q0 -8 -4 -17q4 -4 8 -67l-4 -9q4 -6 4 -14h-4q8 -10 10 -49h-2l2 -8q0 -4 -2 -4q2 -25 6 -33 q-33 -35 -41 -35h-12q-45 14 -45 18q-10 27 -10 43h2q-6 16 -6 60q0 4 4 4q-8 14 -8 31v34q0 2 4 3l-4 8v45q0 12 -5 20q18 193 19 228v28q0 12 -4 21l4 22v53q0 8 -4 15l4 8l-4 37l4 39q-4 14 -4 33h4q0 4 -4 4l4 18v27q0 25 4 57q-8 41 -10 125q2 6 2 16q-6 18 -6 27h4 l-4 6q0 4 4 4q0 4 -4 4l10 162q-4 14 -6 133l2 8q0 4 -2 5q0 53 14 53q15 10 35 10z" />
<glyph unicode="&#xf0;" horiz-adv-x="653" d="M129 643q0 -4 -4 -4q8 -43 8 -57h-4l4 -9v-86q0 -49 6 -67q-2 -8 -2 -12q2 -8 2 -11h-2l2 -8v-61l4 -45h-4l4 -9v-41q0 -8 4 -14q-4 -8 -4 -16v-41l4 -19h-4l4 -8q0 -4 -4 -4l9 -53q8 0 26 8q4 0 4 -4q82 0 117 129q35 72 53 330q4 4 4 80v32q0 88 -8 129h4l-22 160h4 q-4 29 -12 37l4 20q-39 242 -84 314q-37 49 -105 49q-23 -2 -22 -6q0 -10 2 -17l-2 -26q6 -39 6 -41q-4 0 -4 -4q4 0 4 -4l-6 -4l6 -37q-6 -14 -6 -43v-181q0 -16 -4 -30q4 -14 4 -31v-14q0 -84 6 -123h-4l4 -6q0 -12 -4 -19l4 -45h10l14 -2q4 2 13 2h2q6 0 10 -2l6 2l4 -2 q2 0 2 2l11 -2q23 2 26 2v-2q8 6 21 6h6q10 0 18 -45h2q0 -39 -22 -47q-2 0 -2 -4l-19 4h-47q-4 0 -4 2l-4 -2h-16q-6 0 -13 2q-2 -2 -8 -2h-2zM18 731q-2 16 -4 37h4q0 4 -4 4q-2 80 -2 121v35l-4 24h4l-4 9v22q0 20 4 35q-4 20 -4 37v43q0 8 -4 14q4 8 4 12l-4 15l4 8 q0 4 -4 4l4 18v45l4 23q-4 6 -4 18v5l4 22l-4 8q4 6 4 17q-4 10 -8 10l4 26l-4 23q4 6 4 16q-8 25 -8 33v8q14 37 61 37v-2q2 0 2 2q4 0 13 -2q4 0 30 2q88 0 170 -49q78 -59 111 -174l37 -182q-4 -6 -4 -11l8 -4l-4 -8q12 -90 18 -112l-2 -17q2 -39 11 -59q0 -4 -5 -4 q12 -133 17 -133l-4 -27v-68q0 -115 -8 -143l4 -8q-12 -41 -13 -49v-27q0 -4 -2 -4q0 -4 2 -4q-25 -160 -51 -215q-20 -70 -65 -111q-37 -29 -37 -33q-51 -25 -88 -24v4l-64 -18q-43 8 -43 12l-6 -4h-4q-39 14 -39 49l-4 18l4 15q-4 20 -4 34h4l-4 9v94l-2 45h2q-2 8 -2 12 t2 4l-2 19v37q0 14 -4 34q0 4 4 4q-4 8 -8 111h4q-4 18 -8 19l4 18v12q0 8 -4 15q0 4 4 4l-4 18v4q0 10 4 10q-6 51 -8 62l4 8q-23 0 -56 2q-4 -2 -8 -2q-6 2 -8 2l-4 -2q-4 0 -4 2l-45 -6q-45 10 -45 37q0 16 26 41q0 12 4 12l7 -4q2 0 2 4q4 0 8 -4q61 6 110 6h4z" />
<glyph unicode="&#xf1;" horiz-adv-x="794" d="M90 1444q242 -231 406 -432q16 -14 16 -23h6l-2 8q0 4 2 4l-2 7v4q0 4 2 4l-2 8v23l-4 22q4 8 4 12l-4 6l4 9l-4 18l4 16q0 4 -4 5l4 24v39q0 8 -4 14q0 4 4 5q-8 59 -16 69q0 2 4 10l-4 19q4 8 4 12l-4 8q4 6 4 15l-8 12q29 68 49 68v-5q14 8 30 9q8 -2 9 -9l8 5 q18 -16 18 -35h-4q8 -18 8 -27l-8 -4l4 -18v-5q0 -8 -4 -14q4 -23 8 -22l-4 -19q0 -10 4 -31q0 -4 -4 -12q4 -39 4 -59v-17q0 -10 4 -10l-4 -20v-82q0 -10 4 -17l-4 -6q4 -8 4 -16l-8 -4q4 -2 8 -64l-4 -16q0 -2 4 -2l-4 -39v-31q0 -4 -4 -4l8 -45q-4 -6 -4 -14v-27 q0 -4 -4 -4q0 -4 4 -4l-4 -19v-4q0 -8 4 -14q-4 -8 -4 -12t4 -4l-4 -15q4 -117 4 -147q-2 -43 -8 -43l4 -6v-66q0 -4 -4 -4l4 -6q4 -84 4 -111h-4l4 -8l-4 -18q4 -20 4 -31h-4l4 -6v-31l4 -22q-4 -8 -4 -13q4 -6 4 -10h-4l4 -8v-4q0 -12 -4 -19l7 -67q-6 -16 -7 -43l4 -8h-4 l4 -7q0 -35 -57 -57q-45 6 -45 18q2 0 2 5q-10 0 -10 8h4l-4 8q8 12 8 29v92l-4 22l4 9q0 2 -4 2l4 20q0 4 -4 10q4 6 4 17l-4 6q0 4 4 4l-4 18q0 12 4 13q-6 137 -12 137l8 72q-4 6 -4 10l8 16q-4 25 -4 41h4l-4 8q0 4 4 4l-4 7v8q0 4 4 4q0 4 -4 4q0 4 4 10q0 29 -8 98 l8 5l-4 8v14l4 8l-8 4q8 18 8 45l-4 27q0 4 4 4q-4 72 -20 72q4 0 4 4l-174 205q-119 139 -144 155l-67 64h-4q0 -18 -5 -45l15 -221h-4l4 -7v-18q0 -4 -4 -4q4 -8 8 -57h-4l4 -9v-4q0 -2 -4 -2q4 -16 8 -16l-4 -19v-34q0 -18 4 -58h-4l4 -6v-53q0 -8 4 -16l-4 -7 q4 -6 4 -16h-4l4 -6v-39q0 -8 4 -14q0 -4 -4 -5l4 -18v-43q0 -14 -4 -41q4 -4 4 -27h-4l4 -8v-41q0 -20 2 -63h-2l2 -8v-50q0 -18 -2 -38q4 -51 6 -60l-4 -8q4 -27 8 -35q0 -4 -4 -4q12 -78 13 -108q0 -61 -31 -76q-4 0 -4 4q-12 -8 -19 -8v4l-8 -4q-41 10 -41 45v12 q0 4 4 4q-4 6 -8 45h4q-14 53 -14 72l2 8q-2 6 -2 10l2 8q-2 6 -2 11l2 8q0 4 -2 4l2 14q-6 35 -6 39h4l-4 8q0 2 4 2l-4 9v8q0 18 4 37l-4 20q0 4 4 10l-8 58q8 0 8 8q-8 0 -8 6q8 12 8 21l-4 14q0 4 4 4l-4 27v59l-4 27h4l-4 8v37l-4 20h4l-4 6q4 8 4 13q0 4 -4 4 q2 31 8 30l-8 23l4 6q-4 8 -4 12l4 9q-8 18 -8 26l4 6q-4 8 -4 17q0 4 4 4l-4 6v31q0 20 -5 65l9 2q-2 8 -9 54h5l-5 8q0 4 5 4l-5 8v45q0 8 -4 14q0 4 4 5q-6 47 -6 94h2q-2 10 -6 45h4l-8 43q2 14 8 14q-4 4 -8 57h4l-4 9q0 10 -4 71q4 31 39 58h2l8 -4q12 6 41 10z M147 1743l9 -2l8 2q117 0 178 -90q45 -68 86 -72h16q37 45 37 72q12 43 23 63q14 0 22 8h9l8 -4q0 8 6 9h8q31 -27 31 -68l-4 -8q4 -6 4 -15v-8q0 -8 -4 -16l4 -6q-10 -47 -23 -58q-63 -76 -129 -75q-4 0 -22 4q-8 -4 -17 -4v4l-6 -4q-59 16 -102 75q-25 23 -31 41 q-8 0 -35 39l-33 10q-8 -2 -12 -2v2q-53 -29 -53 -77q-23 -53 -53 -54q-6 -4 -15 -4q-27 29 -30 58v14q0 51 41 111q34 45 79 55z" />
<glyph unicode="&#xf2;" horiz-adv-x="776" d="M106 1778h27q84 -88 232 -207q16 -29 16 -35q0 -37 -53 -47q0 4 -4 4q0 -8 -7 -8h-8q-20 0 -33 26q-8 0 -100 78q-82 55 -119 117v4q0 31 45 64q0 4 4 4zM289 1432h45q12 -18 112 -35q72 -43 80 -103q12 0 27 -45q27 -35 41 -194h-2l2 -6q0 -4 -2 -5l2 -8l-2 -8q6 0 6 -6 q0 -4 -4 -4l4 -19v-30q0 -4 -4 -4l4 -9v-28q0 -35 8 -66q0 -4 -4 -4l4 -18v-41q0 -10 4 -17l-4 -6q0 -4 4 -4l-4 -27v-124q0 -10 4 -17q-4 -27 -8 -26l4 -19q0 -27 -8 -41q4 -8 4 -16v-4q0 -2 -4 -2q0 -4 4 -4q-2 -45 -8 -46l4 -8q-10 -47 -27 -147h-2q0 -4 2 -4 q0 -43 -36 -117q-8 0 -13 -25q-33 -61 -86 -98q-27 -14 -26 -22q-63 -45 -121 -45q-115 18 -115 40q-74 70 -98 142q-35 92 -58 291h5l-19 204h4l-4 9v26q0 8 -4 15l4 8q0 4 -4 4l4 18v4q0 27 -4 84h4l-4 6q4 8 4 13q-4 6 -4 10h4q0 4 -4 4l8 76l-4 16q0 51 37 215v9 q10 0 27 57q45 80 69 117q68 72 131 79zM137 1130l2 -6q-10 0 -37 -168q0 -4 4 -4l-4 -18v-60q0 -43 -4 -110q4 -8 4 -12h-4l4 -7v-57q2 -27 9 -26l-5 -19v-53q0 -8 5 -17l-5 -6l5 -18h-5q8 -20 9 -27l-4 -8l10 -84h-4q23 -162 35 -182h-5q18 -72 54 -131q47 -57 80 -58 q47 0 90 54q35 0 92 147h4q0 4 -4 4q27 164 37 174l-4 8q16 76 16 91v196q0 31 4 72q-4 8 -4 12q4 14 4 27q-4 6 -4 10h4q-4 10 -8 49l4 27q0 20 -12 61h4l-4 8v29q0 4 4 4l-4 8q0 4 4 13q0 115 -80 256q0 23 -125 34q-61 -20 -98 -88l-35 -63q-6 -1 -29 -62z" />
<glyph unicode="&#xf3;" horiz-adv-x="770" d="M547 1774q43 -33 43 -64v-4q-35 -61 -117 -117q-94 -78 -100 -78q-12 -27 -35 -26h-6q-8 0 -8 8q-4 0 -5 -4q-51 10 -51 47q0 6 15 35q150 119 233 207h27q4 0 4 -4zM289 1432h45q12 -18 112 -35q72 -43 80 -103q12 0 27 -45q27 -35 41 -194h-2l2 -6q0 -4 -2 -5l2 -8 l-2 -8q6 0 6 -6q0 -4 -4 -4l4 -19v-30q0 -4 -4 -4l4 -9v-28q0 -35 8 -66q0 -4 -4 -4l4 -18v-41q0 -10 4 -17l-4 -6q0 -4 4 -4l-4 -27v-124q0 -10 4 -17q-4 -27 -8 -26l4 -19q0 -27 -8 -41q4 -8 4 -16v-4q0 -2 -4 -2q0 -4 4 -4q-2 -45 -8 -46l4 -8q-10 -47 -27 -147h-2 q0 -4 2 -4q0 -43 -36 -117q-8 0 -13 -25q-33 -61 -86 -98q-27 -14 -26 -22q-63 -45 -121 -45q-115 18 -115 40q-74 70 -98 142q-35 92 -58 291h5l-19 204h4l-4 9v26q0 8 -4 15l4 8q0 4 -4 4l4 18v4q0 27 -4 84h4l-4 6q4 8 4 13q-4 6 -4 10h4q0 4 -4 4l8 76l-4 16 q0 51 37 215v9q10 0 27 57q45 80 69 117q68 72 131 79zM137 1130l2 -6q-10 0 -37 -168q0 -4 4 -4l-4 -18v-60q0 -43 -4 -110q4 -8 4 -12h-4l4 -7v-57q2 -27 9 -26l-5 -19v-53q0 -8 5 -17l-5 -6l5 -18h-5q8 -20 9 -27l-4 -8l10 -84h-4q23 -162 35 -182h-5q18 -72 54 -131 q47 -57 80 -58q47 0 90 54q35 0 92 147h4q0 4 -4 4q27 164 37 174l-4 8q16 76 16 91v196q0 31 4 72q-4 8 -4 12q4 14 4 27q-4 6 -4 10h4q-4 10 -8 49l4 27q0 20 -12 61h4l-4 8v29q0 4 4 4l-4 8q0 4 4 13q0 115 -80 256q0 23 -125 34q-61 -20 -98 -88l-35 -63q-6 -1 -29 -62z " />
<glyph unicode="&#xf4;" horiz-adv-x="782" d="M295 1763h2q4 0 4 -2l8 2q66 -39 140 -143q53 -70 53 -78t6 -18v-27q-14 -20 -33 -29q-4 0 -4 5l-6 -5h-8q-4 0 -4 5l-7 -5q-4 0 -4 5l-8 -5q-10 0 -10 19l-8 -4q-47 88 -111 147q-10 -14 -49 -133q-14 -31 -37 -47l-6 2l-10 -6q-57 6 -58 55v15q31 55 74 174q10 0 31 59 q25 14 45 14zM289 1432h45q12 -18 112 -35q72 -43 80 -103q12 0 27 -45q27 -35 41 -194h-2l2 -6q0 -4 -2 -5l2 -8l-2 -8q6 0 6 -6q0 -4 -4 -4l4 -19v-30q0 -4 -4 -4l4 -9v-28q0 -35 8 -66q0 -4 -4 -4l4 -18v-41q0 -10 4 -17l-4 -6q0 -4 4 -4l-4 -27v-124q0 -10 4 -17 q-4 -27 -8 -26l4 -19q0 -27 -8 -41q4 -8 4 -16v-4q0 -2 -4 -2q0 -4 4 -4q-2 -45 -8 -46l4 -8q-10 -47 -27 -147h-2q0 -4 2 -4q0 -43 -36 -117q-8 0 -13 -25q-33 -61 -86 -98q-27 -14 -26 -22q-63 -45 -121 -45q-115 18 -115 40q-74 70 -98 142q-35 92 -58 291h5l-19 204h4 l-4 9v26q0 8 -4 15l4 8q0 4 -4 4l4 18v4q0 27 -4 84h4l-4 6q4 8 4 13q-4 6 -4 10h4q0 4 -4 4l8 76l-4 16q0 51 37 215v9q10 0 27 57q45 80 69 117q68 72 131 79zM137 1130l2 -6q-10 0 -37 -168q0 -4 4 -4l-4 -18v-60q0 -43 -4 -110q4 -8 4 -12h-4l4 -7v-57q2 -27 9 -26 l-5 -19v-53q0 -8 5 -17l-5 -6l5 -18h-5q8 -20 9 -27l-4 -8l10 -84h-4q23 -162 35 -182h-5q18 -72 54 -131q47 -57 80 -58q47 0 90 54q35 0 92 147h4q0 4 -4 4q27 164 37 174l-4 8q16 76 16 91v196q0 31 4 72q-4 8 -4 12q4 14 4 27q-4 6 -4 10h4q-4 10 -8 49l4 27 q0 20 -12 61h4l-4 8v29q0 4 4 4l-4 8q0 4 4 13q0 115 -80 256q0 23 -125 34q-61 -20 -98 -88l-35 -63q-6 -1 -29 -62z" />
<glyph unicode="&#xf5;" horiz-adv-x="782" d="M289 1432h45q12 -18 112 -35q72 -43 80 -103q12 0 27 -45q27 -35 41 -194h-2l2 -6q0 -4 -2 -5l2 -8l-2 -8q6 0 6 -6q0 -4 -4 -4l4 -19v-30q0 -4 -4 -4l4 -9v-28q0 -35 8 -66q0 -4 -4 -4l4 -18v-41q0 -10 4 -17l-4 -6q0 -4 4 -4l-4 -27v-124q0 -10 4 -17q-4 -27 -8 -26 l4 -19q0 -27 -8 -41q4 -8 4 -16v-4q0 -2 -4 -2q0 -4 4 -4q-2 -45 -8 -46l4 -8q-10 -47 -27 -147h-2q0 -4 2 -4q0 -43 -36 -117q-8 0 -13 -25q-33 -61 -86 -98q-27 -14 -26 -22q-63 -45 -121 -45q-115 18 -115 40q-74 70 -98 142q-35 92 -58 291h5l-19 204h4l-4 9v26 q0 8 -4 15l4 8q0 4 -4 4l4 18v4q0 27 -4 84h4l-4 6q4 8 4 13q-4 6 -4 10h4q0 4 -4 4l8 76l-4 16q0 51 37 215v9q10 0 27 57q45 80 69 117q68 72 131 79zM137 1130l2 -6q-10 0 -37 -168q0 -4 4 -4l-4 -18v-60q0 -43 -4 -110q4 -8 4 -12h-4l4 -7v-57q2 -27 9 -26l-5 -19v-53 q0 -8 5 -17l-5 -6l5 -18h-5q8 -20 9 -27l-4 -8l10 -84h-4q23 -162 35 -182h-5q18 -72 54 -131q47 -57 80 -58q47 0 90 54q35 0 92 147h4q0 4 -4 4q27 164 37 174l-4 8q16 76 16 91v196q0 31 4 72q-4 8 -4 12q4 14 4 27q-4 6 -4 10h4q-4 10 -8 49l4 27q0 20 -12 61h4l-4 8v29 q0 4 4 4l-4 8q0 4 4 13q0 115 -80 256q0 23 -125 34q-61 -20 -98 -88l-35 -63q-6 -1 -29 -62zM147 1743l9 -2l8 2q117 0 178 -90q45 -68 86 -72h16q37 45 37 72q12 43 23 63q14 0 22 8h9l8 -4q0 8 6 9h8q31 -27 31 -68l-4 -8q4 -6 4 -15v-8q0 -8 -4 -16l4 -6 q-10 -47 -23 -58q-63 -76 -129 -75q-4 0 -22 4q-8 -4 -17 -4v4l-6 -4q-59 16 -102 75q-25 23 -31 41q-8 0 -35 39l-33 10q-8 -2 -12 -2v2q-53 -29 -53 -77q-23 -53 -53 -54q-6 -4 -15 -4q-27 29 -30 58v14q0 51 41 111q34 45 79 55z" />
<glyph unicode="&#xf6;" horiz-adv-x="776" d="M92 1550l4 6q-4 6 -4 17q49 57 86 57h15q59 -16 59 -47q8 0 8 -33h-4l4 -8q0 -31 -67 -59h-15q-41 0 -82 53q0 6 -4 14zM395 1569q0 41 62 61h30q35 -16 60 -59l-4 -19v-24q-31 -49 -68 -49q-76 10 -76 73q-4 1 -4 17zM289 1432h45q12 -18 112 -35q72 -43 80 -103 q12 0 27 -45q27 -35 41 -194h-2l2 -6q0 -4 -2 -5l2 -8l-2 -8q6 0 6 -6q0 -4 -4 -4l4 -19v-30q0 -4 -4 -4l4 -9v-28q0 -35 8 -66q0 -4 -4 -4l4 -18v-41q0 -10 4 -17l-4 -6q0 -4 4 -4l-4 -27v-124q0 -10 4 -17q-4 -27 -8 -26l4 -19q0 -27 -8 -41q4 -8 4 -16v-4q0 -2 -4 -2 q0 -4 4 -4q-2 -45 -8 -46l4 -8q-10 -47 -27 -147h-2q0 -4 2 -4q0 -43 -36 -117q-8 0 -13 -25q-33 -61 -86 -98q-27 -14 -26 -22q-63 -45 -121 -45q-115 18 -115 40q-74 70 -98 142q-35 92 -58 291h5l-19 204h4l-4 9v26q0 8 -4 15l4 8q0 4 -4 4l4 18v4q0 27 -4 84h4l-4 6 q4 8 4 13q-4 6 -4 10h4q0 4 -4 4l8 76l-4 16q0 51 37 215v9q10 0 27 57q45 80 69 117q68 72 131 79zM137 1130l2 -6q-10 0 -37 -168q0 -4 4 -4l-4 -18v-60q0 -43 -4 -110q4 -8 4 -12h-4l4 -7v-57q2 -27 9 -26l-5 -19v-53q0 -8 5 -17l-5 -6l5 -18h-5q8 -20 9 -27l-4 -8 l10 -84h-4q23 -162 35 -182h-5q18 -72 54 -131q47 -57 80 -58q47 0 90 54q35 0 92 147h4q0 4 -4 4q27 164 37 174l-4 8q16 76 16 91v196q0 31 4 72q-4 8 -4 12q4 14 4 27q-4 6 -4 10h4q-4 10 -8 49l4 27q0 20 -12 61h4l-4 8v29q0 4 4 4l-4 8q0 4 4 13q0 115 -80 256 q0 23 -125 34q-61 -20 -98 -88l-35 -63q-6 -1 -29 -62z" />
<glyph unicode="&#xf7;" horiz-adv-x="813" d="M315 911h27q35 0 49 -65q-4 -33 -43 -68h-49q-14 8 -37 35q0 2 4 2l-4 8l4 19q-4 0 -4 4l29 57q14 8 24 8zM53 721q4 0 4 -4q4 0 4 4q43 -4 64 -4h4q10 0 10 4l21 -4h63q8 0 17 4q41 -4 41 -8l8 4q33 -4 37 -4l34 4q6 -4 11 -4l8 4l8 -4q4 0 4 4q29 -2 29 -6l8 2h14 q12 0 13 -2l18 2h92q4 0 4 -2q6 2 11 2q12 0 26 -2l53 6q0 -4 31 -15q20 -12 27 -40q-10 -51 -49 -52q-10 0 -17 4l-6 -4q-8 4 -12 4l-15 -4l-20 4l-6 -4l-8 4l-23 -4v4q-31 -4 -31 -6l-26 2h-27q-33 0 -102 4v4q-10 -2 -45 -8q-14 4 -31 4l-18 -4q-6 4 -15 4l-26 -4 q0 8 -9 8q0 -8 -8 -8h-4q-4 0 -4 4l-6 -4q-20 4 -31 4l-8 -4l-6 4q-14 -4 -17 -4q-4 0 -4 4l-80 -6v2q-6 -2 -10 -2q-37 10 -49 41q0 4 4 4q-8 12 -8 19q8 0 27 39q14 10 26 10zM338 539q94 0 94 -80q-10 -41 -22 -41q-14 -23 -35 -23q-18 0 -19 8l-8 -4l-6 4l-8 -4 q-18 0 -45 45v9q0 4 2 4l-2 6v16q27 47 45 60h4z" />
<glyph unicode="&#xf8;" horiz-adv-x="749" d="M346 1337q-20 4 -47 6q-61 -20 -98 -88l-35 -63q-6 0 -29 -62l2 -6q-10 0 -37 -168q0 -4 4 -4l-4 -18v-60q0 -43 -4 -110q4 -8 4 -12h-4l4 -7v-57q2 -27 9 -26l-5 -19v-53q0 -8 5 -17l-5 -6l5 -18h-5q8 -20 9 -27l-4 -8l10 -84h-4q10 -76 18 -121q23 127 41 266l19 66 l-5 8q95 432 156 688zM446 1268q-2 -6 -4 -15h-4l4 -8q-31 -106 -51 -246q-27 -94 -57 -243h-4q0 -6 4 -6q-53 -254 -58 -297h-4q4 -8 4 -13l-4 -8l4 -10q-8 -10 -12 -66l4 -8q-27 -94 -43 -258q31 -31 56 -31q47 0 90 54q35 0 92 147h4q0 4 -4 4q27 164 37 174l-4 8 q16 76 16 91v196q0 31 4 72q-4 8 -4 12q4 14 4 27q-4 6 -4 10h4q-4 10 -8 49l4 27q0 20 -12 61h4l-4 8v29q0 4 4 4l-4 8q0 4 4 13q-1 98 -58 215zM100 111q-16 27 -24 51q-35 92 -58 291h5l-19 204h4l-4 9v26q0 8 -4 15l4 8q0 4 -4 4l4 18v4q0 27 -4 84h4l-4 6q4 8 4 13 q-4 6 -4 10h4q0 4 -4 4l8 76l-4 16q0 51 37 215v9q10 0 27 57q45 80 69 117q68 72 131 79l21 5h45q6 -8 31 -17q14 63 26 113q29 35 51 35q61 -23 62 -66q-14 -47 -31 -119q47 -37 53 -84q12 0 27 -45q27 -35 41 -194h-2l2 -6q0 -4 -2 -5l2 -8l-2 -8q6 0 6 -6q0 -4 -4 -4 l4 -19v-30q0 -4 -4 -4l4 -9v-28q0 -35 8 -66q0 -4 -4 -4l4 -18v-41q0 -10 4 -17l-4 -6q0 -4 4 -4l-4 -27v-124q0 -10 4 -17q-4 -27 -8 -26l4 -19q0 -27 -8 -41q4 -8 4 -16v-4q0 -2 -4 -2q0 -4 4 -4q-2 -45 -8 -46l4 -8q-10 -47 -27 -147h-2q0 -4 2 -4q0 -43 -36 -117 q-8 0 -13 -25q-33 -61 -86 -98q-27 -14 -26 -22q-63 -45 -121 -45q-49 8 -78 16q0 -6 4 -14q-39 -88 -70 -88v-5q-74 14 -73 39v4h4q-4 8 -4 15q8 20 30 147l-4 10q0 5 2 7z" />
</font>
</defs>
</svg>
